<svg width="1096" height="1096" viewBox="0 0 1096 1096" fill="none" xmlns="http://www.w3.org/2000/svg">
 <style>
  @media (prefers-color-scheme: light) {
    .favicon-path { fill: #000; }
  }
  @media (prefers-color-scheme: dark) {
    .favicon-path { fill: #fff; }
  }
 </style>
<path class="favicon-path" d="M321.731 571.677H523.664V760.304C462.915 758.867 402.539 750.679 343.664 735.867C330.601 682.055 323.289 626.992 321.727 571.68L321.731 571.677ZM321.731 523.677H523.664V335.051C462.915 336.488 402.539 344.676 343.664 359.488C330.601 413.3 323.289 468.363 321.727 523.675L321.731 523.677ZM359.168 305.931C413.293 294.556 468.356 288.243 523.661 287.056V106.243C455.849 121.117 395.849 197.743 359.168 305.923V305.931ZM970.675 412.493H970.737C927.8 279.368 824.924 174.12 692.804 128.173C739.929 183.799 773.741 249.485 791.678 320.173C857.304 337.673 918.367 369.173 970.732 412.485L970.675 412.493ZM523.621 988.493L523.684 808.307C468.372 807.119 413.309 800.807 359.191 789.432C395.879 897.62 455.879 974.245 523.684 989.112L523.621 988.493ZM124.608 682.867C167.545 815.992 270.421 921.24 402.541 967.187C355.416 911.561 321.604 845.875 303.667 775.187C238.041 757.687 176.979 726.187 124.613 682.875L124.608 682.867ZM290.048 375.493C190.985 410.056 121.421 463.493 106.675 523.68H273.728C274.978 473.931 280.415 424.368 290.04 375.493H290.048ZM290.048 719.876C280.548 671.001 275.236 621.438 274.048 571.689H106.741C121.429 631.877 191.053 685.315 290.048 719.876ZM751.675 359.493C692.8 344.681 632.424 336.493 571.675 335.056V523.683H773.608C772.045 468.371 764.733 413.308 751.671 359.496L751.675 359.493ZM571.675 808.307V989.12C639.487 974.245 699.675 897.62 736.168 789.44C682.043 800.815 626.98 807.128 571.675 808.315V808.307ZM692.8 967.187C824.925 921.249 927.813 816 970.733 682.867C918.359 726.179 857.296 757.679 791.68 775.179C773.743 845.867 739.931 911.552 692.805 967.179L692.8 967.187ZM804.8 719.813C903.863 685.251 973.427 631.813 988.173 571.627L821.613 571.689C820.363 621.438 814.926 671.001 805.301 719.876L804.8 719.813ZM1095.36 547.68C1095.36 692.933 1037.67 832.24 934.933 934.933C832.245 1037.68 692.933 1095.36 547.68 1095.36C402.427 1095.36 263.12 1037.67 160.427 934.933C57.6773 832.245 0 692.933 0 547.68C0 402.427 57.688 263.12 160.427 160.427C263.115 57.6773 402.427 0 547.68 0C692.933 0.0625 832.173 57.7493 934.933 160.427C1037.62 263.176 1095.31 402.427 1095.36 547.68ZM1039.86 547.68C1039.86 417.18 987.985 292 895.673 199.68C803.361 107.36 678.167 55.4933 547.673 55.4933C417.18 55.4933 291.993 107.368 199.673 199.68C107.356 291.992 55.4867 417.187 55.4867 547.68C55.4867 678.173 107.361 803.36 199.673 895.68C291.985 988 417.18 1039.87 547.673 1039.87C678.173 1039.68 803.247 987.741 895.487 895.493C987.727 803.245 1039.67 678.187 1039.86 547.68ZM805.3 375.493C814.8 424.368 820.112 473.931 821.3 523.68H988.607C973.919 463.492 904.295 410.055 805.3 375.493ZM571.673 106.24V287.053C626.985 288.241 682.048 294.553 736.167 305.928C699.479 197.74 639.479 121.115 571.673 106.248V106.24ZM402.553 128.177C270.428 174.115 167.54 279.364 124.62 412.497C176.995 369.185 238.057 337.685 303.673 320.185C321.611 249.497 355.423 183.812 402.548 128.185L402.553 128.177ZM773.607 571.684H571.673V760.311C632.423 758.873 692.799 750.686 751.673 735.873C764.736 682.061 772.048 626.999 773.611 571.687L773.607 571.684Z"/>
</svg>
