<svg width="596" height="64" viewBox="0 0 596 64" fill="none" xmlns="http://www.w3.org/2000/svg">
<rect width="596" height="64" fill="black"/>
<rect x="6" y="6" width="78" height="52" fill="white"/>
<rect x="359" y="6" width="231" height="52" fill="white"/>
<path d="M380.656 20.5927C380.656 20.255 380.755 19.9877 380.952 19.7907C381.177 19.5656 381.458 19.453 381.796 19.453H390.913C391.251 19.453 391.518 19.5656 391.715 19.7907C391.94 19.9877 392.053 20.255 392.053 20.5927V21.7323H380.656V20.5927ZM380.656 22.872C380.656 23.2097 380.544 23.4911 380.318 23.7162C380.121 23.9132 379.854 24.0117 379.516 24.0117H378.377V22.872C378.377 22.5343 378.475 22.267 378.672 22.07C378.897 21.8449 379.179 21.7323 379.516 21.7323H380.656V22.872ZM393.193 24.0117C392.855 24.0117 392.573 23.9132 392.348 23.7162C392.151 23.4911 392.053 23.2097 392.053 22.872V21.7323H393.15C393.488 21.7323 393.755 21.8449 393.952 22.07C394.177 22.267 394.29 22.5343 394.29 22.872V24.0117H393.193ZM376.14 25.1514C376.14 24.8137 376.238 24.5463 376.435 24.3494C376.66 24.1242 376.942 24.0117 377.279 24.0117H378.377V30.8075H376.14V25.1514ZM395.43 24.0117C395.767 24.0117 396.035 24.1242 396.232 24.3494C396.457 24.5463 396.569 24.8137 396.569 25.1514V29.6678C396.569 30.0055 396.457 30.2869 396.232 30.512C396.035 30.709 395.767 30.8075 395.43 30.8075H394.29V24.0117H395.43ZM394.29 31.9472C394.29 32.2848 394.177 32.5662 393.952 32.7914C393.755 32.9883 393.488 33.0868 393.15 33.0868H392.053V31.9472C392.053 31.6095 392.151 31.3422 392.348 31.1452C392.573 30.92 392.855 30.8075 393.193 30.8075H394.29V31.9472ZM392.053 34.2265C392.053 34.5642 391.94 34.8456 391.715 35.0707C391.518 35.2677 391.251 35.3662 390.913 35.3662H389.774V34.2265C389.774 33.8888 389.872 33.6215 390.069 33.4245C390.294 33.1994 390.575 33.0868 390.913 33.0868H392.053V34.2265ZM389.774 36.5058C389.774 36.8435 389.661 37.1249 389.436 37.35C389.239 37.547 388.972 37.6455 388.634 37.6455H387.494V36.5058C387.494 36.1682 387.593 35.9008 387.79 35.7038C388.015 35.4787 388.296 35.3662 388.634 35.3662H389.774V36.5058ZM387.494 38.7852C387.494 39.1229 387.382 39.4043 387.156 39.6294C386.96 39.8264 386.692 39.9249 386.354 39.9249H385.215V38.7852C385.215 38.4475 385.313 38.1802 385.51 37.9832C385.735 37.7581 386.017 37.6455 386.354 37.6455H387.494V38.7852ZM385.215 41.0223C385.215 41.36 385.102 41.6414 384.877 41.8665C384.68 42.0635 384.413 42.162 384.075 42.162H382.935V41.0645C382.935 40.7268 383.034 40.4595 383.231 40.2625C383.456 40.0374 383.737 39.9249 384.075 39.9249H385.215V41.0223ZM382.935 43.3016C382.935 43.6393 382.823 43.9207 382.598 44.1459C382.401 44.3428 382.133 44.4413 381.796 44.4413H380.656V43.3016C380.656 42.964 380.755 42.6966 380.952 42.4997C381.177 42.2745 381.458 42.162 381.796 42.162H382.935V43.3016ZM378.377 45.581C378.377 45.2433 378.475 44.976 378.672 44.779C378.897 44.5539 379.179 44.4413 379.516 44.4413H380.656V46.7207H378.377V45.581ZM378.377 47.8603C378.377 48.198 378.264 48.4794 378.039 48.7045C377.842 48.9015 377.575 49 377.237 49H376.14V46.7207H378.377V47.8603ZM381.796 49C381.458 49 381.177 48.9015 380.952 48.7045C380.755 48.4794 380.656 48.198 380.656 47.8603V46.7207H396.569V49H381.796ZM439.289 21.7323V20.5927C439.289 20.255 439.388 19.9877 439.585 19.7907C439.81 19.5656 440.091 19.453 440.429 19.453H449.504C449.842 19.453 450.109 19.5656 450.306 19.7907C450.531 19.9877 450.644 20.255 450.644 20.5927V21.7323H439.289ZM437.01 24.0117V22.872C437.01 22.5343 437.109 22.267 437.306 22.07C437.531 21.8449 437.812 21.7323 438.15 21.7323H439.289V22.872C439.289 23.2097 439.177 23.4911 438.952 23.7162C438.755 23.9132 438.487 24.0117 438.15 24.0117H437.01ZM450.644 21.7323H451.784C452.121 21.7323 452.389 21.8449 452.586 22.07C452.811 22.267 452.923 22.5343 452.923 22.872V24.0117H451.784C451.446 24.0117 451.165 23.9132 450.939 23.7162C450.742 23.4911 450.644 23.2097 450.644 22.872V21.7323ZM437.01 39.9249H435.87C435.533 39.9249 435.251 39.8264 435.026 39.6294C434.829 39.4043 434.731 39.1229 434.731 38.7852V25.1514C434.731 24.8137 434.829 24.5463 435.026 24.3494C435.251 24.1242 435.533 24.0117 435.87 24.0117H437.01V39.9249ZM452.923 26.291V24.0117H454.063C454.401 24.0117 454.668 24.1102 454.865 24.3071C455.09 24.5041 455.203 24.7855 455.203 25.1514C455.203 25.489 455.09 25.7704 454.865 25.9955C454.668 26.1925 454.401 26.291 454.063 26.291H452.923ZM450.644 28.5281V27.4307C450.644 27.093 450.742 26.8257 450.939 26.6287C451.165 26.4036 451.446 26.291 451.784 26.291H452.923V28.5281H450.644ZM448.365 30.8075V29.6678C448.365 29.3301 448.463 29.0628 448.66 28.8658C448.885 28.6407 449.167 28.5281 449.504 28.5281H450.644V29.6678C450.644 30.0055 450.531 30.2869 450.306 30.512C450.109 30.709 449.842 30.8075 449.504 30.8075H448.365ZM452.923 44.4413V28.5281H454.063C454.401 28.5281 454.668 28.6407 454.865 28.8658C455.09 29.0628 455.203 29.3301 455.203 29.6678V43.3016C455.203 43.6393 455.09 43.9207 454.865 44.1459C454.668 44.3428 454.401 44.4413 454.063 44.4413H452.923ZM446.085 33.0868V31.9472C446.085 31.6095 446.184 31.3422 446.381 31.1452C446.606 30.92 446.887 30.8075 447.225 30.8075H448.365V31.9472C448.365 32.2848 448.252 32.5662 448.027 32.7914C447.83 32.9883 447.563 33.0868 447.225 33.0868H446.085ZM443.806 35.3662V34.2265C443.806 33.8888 443.904 33.6215 444.101 33.4245C444.327 33.1994 444.608 33.0868 444.946 33.0868H446.085V34.2265C446.085 34.5642 445.973 34.8456 445.748 35.0707C445.551 35.2677 445.283 35.3662 444.946 35.3662H443.806ZM441.569 37.6455V36.5058C441.569 36.1682 441.667 35.9008 441.864 35.7038C442.089 35.4787 442.371 35.3662 442.708 35.3662H443.806V36.5058C443.806 36.8435 443.693 37.1249 443.468 37.35C443.271 37.547 443.004 37.6455 442.666 37.6455H441.569ZM439.289 39.9249V38.7852C439.289 38.4475 439.388 38.1802 439.585 37.9832C439.81 37.7581 440.091 37.6455 440.429 37.6455H441.569V38.7852C441.569 39.1229 441.456 39.4043 441.231 39.6294C441.034 39.8264 440.767 39.9249 440.429 39.9249H439.289ZM437.01 42.162V39.9249H439.289V41.0223C439.289 41.36 439.177 41.6414 438.952 41.8665C438.755 42.0635 438.487 42.162 438.15 42.162H437.01ZM434.731 43.3016C434.731 42.964 434.829 42.6966 435.026 42.4997C435.251 42.2745 435.533 42.162 435.87 42.162H437.01V44.4413H435.87C435.533 44.4413 435.251 44.3428 435.026 44.1459C434.829 43.9207 434.731 43.6393 434.731 43.3016ZM439.289 46.7207H438.15C437.812 46.7207 437.531 46.6222 437.306 46.4252C437.109 46.2001 437.01 45.9187 437.01 45.581V44.4413H438.15C438.487 44.4413 438.755 44.5539 438.952 44.779C439.177 44.976 439.289 45.2433 439.289 45.581V46.7207ZM452.923 44.4413V45.581C452.923 45.9187 452.811 46.2001 452.586 46.4252C452.389 46.6222 452.121 46.7207 451.784 46.7207H450.644V45.581C450.644 45.2433 450.742 44.976 450.939 44.779C451.165 44.5539 451.446 44.4413 451.784 44.4413H452.923ZM439.289 46.7207H450.644V47.8603C450.644 48.198 450.531 48.4794 450.306 48.7045C450.109 48.9015 449.842 49 449.504 49H440.429C440.091 49 439.81 48.9015 439.585 48.7045C439.388 48.4794 439.289 48.198 439.289 47.8603V46.7207ZM497.88 20.5927C497.88 20.255 497.978 19.9877 498.175 19.7907C498.4 19.5656 498.682 19.453 499.019 19.453H508.137C508.474 19.453 508.742 19.5656 508.939 19.7907C509.164 19.9877 509.276 20.255 509.276 20.5927V21.7323H497.88V20.5927ZM497.88 22.872C497.88 23.2097 497.767 23.4911 497.542 23.7162C497.345 23.9132 497.078 24.0117 496.74 24.0117H495.6V22.872C495.6 22.5343 495.699 22.267 495.896 22.07C496.121 21.8449 496.402 21.7323 496.74 21.7323H497.88V22.872ZM510.416 24.0117C510.078 24.0117 509.797 23.9132 509.572 23.7162C509.375 23.4911 509.276 23.2097 509.276 22.872V21.7323H510.374C510.711 21.7323 510.979 21.8449 511.176 22.07C511.401 22.267 511.513 22.5343 511.513 22.872V24.0117H510.416ZM493.363 25.1514C493.363 24.8137 493.462 24.5463 493.659 24.3494C493.884 24.1242 494.165 24.0117 494.503 24.0117H495.6V30.8075H493.363V25.1514ZM512.653 24.0117C512.991 24.0117 513.258 24.1242 513.455 24.3494C513.68 24.5463 513.793 24.8137 513.793 25.1514V29.6678C513.793 30.0055 513.68 30.2869 513.455 30.512C513.258 30.709 512.991 30.8075 512.653 30.8075H511.513V24.0117H512.653ZM511.513 31.9472C511.513 32.2848 511.401 32.5662 511.176 32.7914C510.979 32.9883 510.711 33.0868 510.374 33.0868H509.276V31.9472C509.276 31.6095 509.375 31.3422 509.572 31.1452C509.797 30.92 510.078 30.8075 510.416 30.8075H511.513V31.9472ZM509.276 34.2265C509.276 34.5642 509.164 34.8456 508.939 35.0707C508.742 35.2677 508.474 35.3662 508.137 35.3662H506.997V34.2265C506.997 33.8888 507.095 33.6215 507.292 33.4245C507.518 33.1994 507.799 33.0868 508.137 33.0868H509.276V34.2265ZM506.997 36.5058C506.997 36.8435 506.884 37.1249 506.659 37.35C506.462 37.547 506.195 37.6455 505.857 37.6455H504.718V36.5058C504.718 36.1682 504.816 35.9008 505.013 35.7038C505.238 35.4787 505.52 35.3662 505.857 35.3662H506.997V36.5058ZM504.718 38.7852C504.718 39.1229 504.605 39.4043 504.38 39.6294C504.183 39.8264 503.916 39.9249 503.578 39.9249H502.438V38.7852C502.438 38.4475 502.537 38.1802 502.734 37.9832C502.959 37.7581 503.24 37.6455 503.578 37.6455H504.718V38.7852ZM502.438 41.0223C502.438 41.36 502.326 41.6414 502.101 41.8665C501.904 42.0635 501.636 42.162 501.299 42.162H500.159V41.0645C500.159 40.7268 500.257 40.4595 500.454 40.2625C500.68 40.0374 500.961 39.9249 501.299 39.9249H502.438V41.0223ZM500.159 43.3016C500.159 43.6393 500.046 43.9207 499.821 44.1459C499.624 44.3428 499.357 44.4413 499.019 44.4413H497.88V43.3016C497.88 42.964 497.978 42.6966 498.175 42.4997C498.4 42.2745 498.682 42.162 499.019 42.162H500.159V43.3016ZM495.6 45.581C495.6 45.2433 495.699 44.976 495.896 44.779C496.121 44.5539 496.402 44.4413 496.74 44.4413H497.88V46.7207H495.6V45.581ZM495.6 47.8603C495.6 48.198 495.488 48.4794 495.263 48.7045C495.066 48.9015 494.798 49 494.461 49H493.363V46.7207H495.6V47.8603ZM499.019 49C498.682 49 498.4 48.9015 498.175 48.7045C497.978 48.4794 497.88 48.198 497.88 47.8603V46.7207H513.793V49H499.019ZM556.513 20.5927C556.513 20.255 556.611 19.9877 556.808 19.7907C557.033 19.5656 557.315 19.453 557.653 19.453H566.728C567.065 19.453 567.333 19.5656 567.53 19.7907C567.755 19.9877 567.867 20.255 567.867 20.5927V21.7323H556.513V20.5927ZM569.007 24.0117C568.669 24.0117 568.388 23.9132 568.163 23.7162C567.966 23.4911 567.867 23.2097 567.867 22.872V21.7323H569.007C569.345 21.7323 569.612 21.8449 569.809 22.07C570.034 22.267 570.147 22.5343 570.147 22.872V24.0117H569.007ZM556.513 22.872C556.513 23.2097 556.4 23.4911 556.175 23.7162C555.978 23.9132 555.711 24.0117 555.373 24.0117H554.234V22.872C554.234 22.5343 554.332 22.267 554.529 22.07C554.754 21.8449 555.036 21.7323 555.373 21.7323H556.513V22.872ZM551.954 25.1514C551.954 24.8137 552.053 24.5463 552.25 24.3494C552.475 24.1242 552.756 24.0117 553.094 24.0117H554.234V35.3662H553.094C552.756 35.3662 552.475 35.2677 552.25 35.0707C552.053 34.8456 551.954 34.5642 551.954 34.2265V25.1514ZM571.286 24.0117C571.624 24.0117 571.891 24.1242 572.088 24.3494C572.313 24.5463 572.426 24.8137 572.426 25.1514V26.291H570.147V24.0117H571.286ZM558.792 31.9472C558.792 31.6095 558.891 31.3422 559.088 31.1452C559.313 30.92 559.594 30.8075 559.932 30.8075H566.728C567.065 30.8075 567.333 30.92 567.53 31.1452C567.755 31.3422 567.867 31.6095 567.867 31.9472V33.0868H558.792V31.9472ZM558.792 34.2265C558.792 34.5642 558.68 34.8456 558.455 35.0707C558.258 35.2677 557.99 35.3662 557.653 35.3662H556.513V34.2265C556.513 33.8888 556.611 33.6215 556.808 33.4245C557.033 33.1994 557.315 33.0868 557.653 33.0868H558.792V34.2265ZM569.007 35.3662C568.669 35.3662 568.388 35.2677 568.163 35.0707C567.966 34.8456 567.867 34.5642 567.867 34.2265V33.0868H569.007C569.345 33.0868 569.612 33.1994 569.809 33.4245C570.034 33.6215 570.147 33.8888 570.147 34.2265V35.3662H569.007ZM556.513 36.5058C556.513 36.8435 556.4 37.1249 556.175 37.35C555.978 37.547 555.711 37.6455 555.373 37.6455H554.234V35.3662H556.513V36.5058ZM571.286 35.3662C571.624 35.3662 571.891 35.4787 572.088 35.7038C572.313 35.9008 572.426 36.1682 572.426 36.5058V43.3016C572.426 43.6393 572.313 43.9207 572.088 44.1459C571.891 44.3428 571.624 44.4413 571.286 44.4413H570.147V35.3662H571.286ZM551.954 38.7852C551.954 38.4475 552.053 38.1802 552.25 37.9832C552.475 37.7581 552.756 37.6455 553.094 37.6455H554.234V44.4413H553.094C552.756 44.4413 552.475 44.3428 552.25 44.1459C552.053 43.9207 551.954 43.6393 551.954 43.3016V38.7852ZM555.373 46.7207C555.036 46.7207 554.754 46.6222 554.529 46.4252C554.332 46.2001 554.234 45.9187 554.234 45.581V44.4413H555.373C555.711 44.4413 555.978 44.5539 556.175 44.779C556.4 44.976 556.513 45.2433 556.513 45.581V46.7207H555.373ZM570.147 45.581C570.147 45.9187 570.034 46.2001 569.809 46.4252C569.612 46.6222 569.345 46.7207 569.007 46.7207H567.867V45.581C567.867 45.2433 567.966 44.976 568.163 44.779C568.388 44.5539 568.669 44.4413 569.007 44.4413H570.147V45.581ZM557.653 49C557.315 49 557.033 48.9015 556.808 48.7045C556.611 48.4794 556.513 48.198 556.513 47.8603V46.7207H567.867V47.8603C567.867 48.198 567.755 48.4794 567.53 48.7045C567.333 48.9015 567.065 49 566.728 49H557.653Z" fill="black"/>
<path d="M69.8259 32.4159C66.9029 32.3654 64.339 32.3149 62.084 32.2223C59.1385 28.2699 55.3911 24.9879 51.0824 22.5924C55.464 25.1338 58.774 28.6234 60.4909 32.1439C49.7191 31.5464 46.8467 29.5436 45.9065 20.295C47.7075 20.8756 49.4438 21.6443 51.082 22.5924C49.4129 21.6274 47.6738 20.7831 45.8841 20.065C45.5811 16.9345 45.497 13.0268 45.41 8C45.3231 12.8052 45.2389 16.6174 44.964 19.7059C36.714 16.6455 29.1654 17.2065 26.6298 21.5658C24.9916 24.4382 25.8247 28.3011 28.4756 32.2226C26.2848 32.3096 23.8163 32.3601 21 32.4106C23.923 32.4611 26.4869 32.5116 28.7419 32.6041C31.6845 36.5566 35.4324 39.8416 39.7375 42.2401C35.3559 39.6986 32.0459 36.2091 30.329 32.6885C41.1008 33.286 43.9732 35.2889 44.9134 44.5375C43.1124 43.9568 41.3761 43.1882 39.7379 42.24C41.407 43.205 43.1461 44.0493 44.9358 44.7675C45.2388 47.898 45.3229 51.8421 45.4099 56.8241C45.4968 52.0189 45.581 48.2067 45.8559 45.1181C54.1059 48.1786 61.6545 47.6176 64.1901 43.2583C65.8283 40.3859 64.9952 36.523 62.3443 32.6014C64.5323 32.5173 67.0036 32.4668 69.8259 32.4163V32.4159ZM30.1073 32.1578C28.7721 29.0834 28.6711 26.0173 30.0708 23.5404C32.4552 19.4112 38.4722 18.1826 44.9497 19.9862C44.038 29.5438 41.1431 31.5689 30.099 32.1578L30.1073 32.1578ZM60.7644 41.2773C58.38 45.4065 52.363 46.6352 45.8856 44.8679C46.7804 35.2882 49.6753 33.2631 60.7189 32.6743C62.0542 35.7487 62.1776 38.8148 60.7554 41.2773H60.7644Z" fill="black"/>
<path d="M104.229 49L94.6636 16.7454H98.7762L103.351 32.8727L106.817 45.0722H107.048L110.514 32.8727L115.088 16.7454H119.062L109.497 49H104.229ZM117.658 49V45.9039H125.699V19.8415H117.658V16.7454H137.621V19.8415H129.58V45.9039H137.621V49H117.658ZM138.619 16.7454H149.571C152.344 16.7454 154.516 17.5002 156.087 19.0097C157.658 20.5192 158.443 22.5371 158.443 25.0632C158.443 27.004 157.966 28.529 157.011 29.638C156.087 30.747 154.885 31.5326 153.407 31.9947V32.1333C155.224 32.5646 156.718 33.381 157.889 34.5825C159.06 35.7531 159.645 37.4629 159.645 39.7118C159.645 41.0057 159.429 42.2225 158.998 43.3624C158.567 44.5022 157.951 45.488 157.15 46.3198C156.379 47.1516 155.455 47.8139 154.377 48.3068C153.33 48.7689 152.19 49 150.957 49H138.619V16.7454ZM149.802 45.6267C151.589 45.6267 152.991 45.2262 154.007 44.4252C155.024 43.6242 155.532 42.392 155.532 40.7284V38.8338C155.532 37.201 155.024 35.9842 154.007 35.1832C152.991 34.3514 151.589 33.9355 149.802 33.9355H142.501V45.6267H149.802ZM149.155 30.747C150.788 30.747 152.066 30.3928 152.991 29.6842C153.915 28.9449 154.377 27.8358 154.377 26.3571V24.5549C154.377 23.0762 153.915 21.9671 152.991 21.2278C152.066 20.4884 150.788 20.1188 149.155 20.1188H142.501V30.747H149.155ZM159.488 49V16.7454H179.359V20.1188H163.37V30.9781H178.804V34.3514H163.37V45.6267H179.359V49H159.488ZM188.86 14.8046H194.821L189.507 27.6048H186.411L188.86 14.8046ZM204.414 21.8285H204.091V49H200.579V16.7454H206.078L217.076 43.9169H217.399V16.7454H220.911V49H215.412L204.414 21.8285ZM230.413 14.8046H236.374L231.06 27.6048H227.964L230.413 14.8046ZM242.502 16.7454H253.453C256.226 16.7454 258.398 17.5002 259.969 19.0097C261.54 20.5192 262.326 22.5371 262.326 25.0632C262.326 27.004 261.848 28.529 260.893 29.638C259.969 30.747 258.768 31.5326 257.289 31.9947V32.1333C259.106 32.5646 260.601 33.381 261.771 34.5825C262.942 35.7531 263.527 37.4629 263.527 39.7118C263.527 41.0057 263.312 42.2225 262.88 43.3624C262.449 44.5022 261.833 45.488 261.032 46.3198C260.262 47.1516 259.337 47.8139 258.259 48.3068C257.212 48.7689 256.072 49 254.84 49H242.502V16.7454ZM253.684 45.6267C255.471 45.6267 256.873 45.2262 257.89 44.4252C258.906 43.6242 259.414 42.392 259.414 40.7284V38.8338C259.414 37.201 258.906 35.9842 257.89 35.1832C256.873 34.3514 255.471 33.9355 253.684 33.9355H246.383V45.6267H253.684ZM253.037 30.747C254.67 30.747 255.949 30.3928 256.873 29.6842C257.797 28.9449 258.259 27.8358 258.259 26.3571V24.5549C258.259 23.0762 257.797 21.9671 256.873 21.2278C255.949 20.4884 254.67 20.1188 253.037 20.1188H246.383V30.747H253.037ZM266.79 16.7454V36.1074C266.79 37.6785 266.836 39.0803 266.929 40.3125C267.021 41.5448 267.268 42.6076 267.668 43.501C268.069 44.3636 268.685 45.0259 269.516 45.488C270.379 45.9501 271.565 46.1812 273.075 46.1812C274.584 46.1812 275.755 45.9501 276.587 45.488C277.449 45.0259 278.081 44.3636 278.481 43.501C278.882 42.6076 279.128 41.5448 279.221 40.3125C279.313 39.0803 279.359 37.6785 279.359 36.1074V16.7454H283.241V35.1832C283.241 37.5861 283.118 39.681 282.871 41.4678C282.655 43.2546 282.178 44.7487 281.439 45.9501C280.73 47.1516 279.698 48.0604 278.343 48.6765C277.018 49.2619 275.262 49.5545 273.075 49.5545C270.887 49.5545 269.116 49.2619 267.76 48.6765C266.436 48.0604 265.404 47.1516 264.664 45.9501C263.956 44.7487 263.478 43.2546 263.232 41.4678C263.016 39.681 262.908 37.5861 262.908 35.1832V16.7454H266.79ZM283.87 49V45.9039H291.91V19.8415H283.87V16.7454H303.832V19.8415H295.792V45.9039H303.832V49H283.87ZM306.31 49V16.7454H310.191V45.6267H325.487V49H306.31ZM325.931 16.7454H334.942C338.885 16.7454 341.827 18.1009 343.768 20.8119C345.709 23.5229 346.679 27.5432 346.679 32.8727C346.679 38.2023 345.709 42.2225 343.768 44.9335C341.827 47.6445 338.885 49 334.942 49H325.931V16.7454ZM334.757 45.6267C337.345 45.6267 339.286 44.7333 340.579 42.9465C341.904 41.1597 342.566 38.6336 342.566 35.368V30.3774C342.566 27.1119 341.904 24.5857 340.579 22.7989C339.286 21.0121 337.345 20.1188 334.757 20.1188H329.813V45.6267H334.757Z" fill="white"/>
</svg>
