<svg width="717" height="338" viewBox="0 0 717 338" fill="none" xmlns="http://www.w3.org/2000/svg">
<path d="M12.683 105L11.3726 100.58H5.93117L4.62078 105H2.68851L7.44145 89.4974H9.90676L14.6597 105H12.683ZM8.75184 91.4741H8.55195L6.37537 98.9589H10.9284L8.75184 91.4741ZM21.314 105V89.4974H23.1797V103.379H30.5312V105H21.314ZM45.1589 102.934H45.0478C44.9146 103.231 44.7591 103.519 44.5814 103.801C44.4037 104.082 44.1742 104.334 43.8929 104.556C43.6264 104.763 43.3006 104.933 42.9157 105.067C42.5307 105.2 42.0717 105.267 41.5387 105.267C39.8507 105.267 38.5921 104.585 37.763 103.223C36.9486 101.861 36.5414 99.9065 36.5414 97.3598C36.5414 94.6946 36.993 92.6734 37.8962 91.2964C38.7994 89.9194 40.1912 89.2309 42.0717 89.2309C42.7972 89.2309 43.4265 89.3271 43.9595 89.5196C44.4926 89.7121 44.9442 89.9712 45.3144 90.297C45.6993 90.6227 46.0177 90.9929 46.2694 91.4075C46.5211 91.8073 46.7284 92.2144 46.8913 92.629L45.2921 93.362C45.1589 93.0214 45.0034 92.7031 44.8257 92.4069C44.6629 92.096 44.4556 91.8295 44.2039 91.6074C43.9669 91.3705 43.6782 91.1854 43.3377 91.0521C42.9971 90.9189 42.5973 90.8522 42.1383 90.8522C40.8946 90.8522 39.9766 91.3186 39.3843 92.2515C38.8068 93.1843 38.5181 94.428 38.5181 95.9827V98.3814C38.5181 99.1662 38.5773 99.8843 38.6958 100.536C38.8142 101.172 39.0067 101.728 39.2732 102.202C39.5546 102.675 39.9099 103.046 40.3393 103.312C40.7835 103.564 41.324 103.69 41.9606 103.69C42.9675 103.69 43.7523 103.386 44.3149 102.779C44.8776 102.172 45.1589 101.387 45.1589 100.425V98.8256H41.894V97.3375H46.8913V105H45.1589V102.934ZM58.6095 105.267C57.6618 105.267 56.8475 105.089 56.1664 104.733C55.4853 104.363 54.9226 103.838 54.4784 103.157C54.0342 102.475 53.7085 101.639 53.5012 100.647C53.2939 99.6548 53.1902 98.5221 53.1902 97.2487C53.1902 95.9901 53.2939 94.8648 53.5012 93.8728C53.7085 92.8659 54.0342 92.022 54.4784 91.3409C54.9226 90.6597 55.4853 90.1415 56.1664 89.7861C56.8475 89.416 57.6618 89.2309 58.6095 89.2309C59.5571 89.2309 60.3715 89.416 61.0526 89.7861C61.7337 90.1415 62.2963 90.6597 62.7405 91.3409C63.1847 92.022 63.5105 92.8659 63.7178 93.8728C63.9251 94.8648 64.0287 95.9901 64.0287 97.2487C64.0287 98.5221 63.9251 99.6548 63.7178 100.647C63.5105 101.639 63.1847 102.475 62.7405 103.157C62.2963 103.838 61.7337 104.363 61.0526 104.733C60.3715 105.089 59.5571 105.267 58.6095 105.267ZM58.6095 103.645C59.2314 103.645 59.757 103.527 60.1864 103.29C60.6158 103.038 60.9711 102.69 61.2525 102.246C61.5338 101.802 61.7337 101.269 61.8521 100.647C61.9854 100.01 62.052 99.2994 62.052 98.5147V95.9827C62.052 95.2128 61.9854 94.5095 61.8521 93.8728C61.7337 93.2361 61.5338 92.6957 61.2525 92.2515C60.9711 91.8073 60.6158 91.4667 60.1864 91.2298C59.757 90.9781 59.2314 90.8522 58.6095 90.8522C57.9876 90.8522 57.462 90.9781 57.0326 91.2298C56.6032 91.4667 56.2478 91.8073 55.9665 92.2515C55.6852 92.6957 55.4779 93.2361 55.3446 93.8728C55.2261 94.5095 55.1669 95.2128 55.1669 95.9827V98.5147C55.1669 99.2994 55.2261 100.01 55.3446 100.647C55.4779 101.269 55.6852 101.802 55.9665 102.246C56.2478 102.69 56.6032 103.038 57.0326 103.29C57.462 103.527 57.9876 103.645 58.6095 103.645ZM72.4598 105H70.5942V89.4974H76.2355C77.6718 89.4974 78.7675 89.8898 79.5226 90.6745C80.2778 91.4593 80.6553 92.555 80.6553 93.9616C80.6553 95.2202 80.3296 96.227 79.6781 96.9822C79.0266 97.7373 78.079 98.1741 76.8352 98.2926L80.7886 105H78.7008L74.9251 98.3814H72.4598V105ZM76.1911 96.8045C76.9759 96.8045 77.5829 96.612 78.0123 96.2271C78.4565 95.8273 78.6786 95.2646 78.6786 94.5391V93.3842C78.6786 92.6586 78.4565 92.1034 78.0123 91.7184C77.5829 91.3186 76.9759 91.1188 76.1911 91.1188H72.4598V96.8045H76.1911ZM87.1098 105V103.512H90.9743V90.9855H87.1098V89.4974H96.7045V90.9855H92.8399V103.512H96.7045V105H87.1098ZM109.489 91.1188V105H107.623V91.1188H102.448V89.4974H114.664V91.1188H109.489ZM128.225 97.9594H122.184V105H120.319V89.4974H122.184V96.3381H128.225V89.4974H130.091V105H128.225V97.9594ZM145.296 97.2265V92.3181H145.118L141.854 100.291L138.589 92.3181H138.411V97.2265V105H136.701V89.4974H139.1L141.831 96.3381H141.965L144.696 89.4974H147.006V105H145.296V97.2265ZM153.705 105V103.512H157.57V90.9855H153.705V89.4974H163.3V90.9855H159.435V103.512H163.3V105H153.705ZM175.662 105.267C173.767 105.267 172.353 104.578 171.42 103.201C170.502 101.824 170.043 99.8399 170.043 97.2487C170.043 94.6575 170.502 92.6734 171.42 91.2964C172.353 89.9194 173.767 89.2309 175.662 89.2309C176.373 89.2309 176.987 89.3271 177.505 89.5196C178.024 89.7121 178.468 89.9712 178.838 90.297C179.208 90.6227 179.519 90.9929 179.771 91.4075C180.023 91.8073 180.245 92.2144 180.437 92.629L178.838 93.362C178.705 93.0214 178.549 92.7031 178.372 92.4069C178.194 92.096 177.979 91.8295 177.728 91.6074C177.491 91.3705 177.202 91.1854 176.861 91.0521C176.536 90.9189 176.136 90.8522 175.662 90.8522C174.433 90.8522 173.515 91.3186 172.908 92.2515C172.316 93.1843 172.02 94.428 172.02 95.9827V98.5147C172.02 100.069 172.316 101.313 172.908 102.246C173.515 103.179 174.433 103.645 175.662 103.645C176.136 103.645 176.536 103.579 176.861 103.445C177.202 103.312 177.491 103.134 177.728 102.912C177.979 102.675 178.194 102.409 178.372 102.113C178.549 101.802 178.705 101.476 178.838 101.135L180.437 101.868C180.245 102.298 180.023 102.712 179.771 103.112C179.519 103.512 179.208 103.875 178.838 104.2C178.468 104.526 178.024 104.785 177.505 104.978C176.987 105.17 176.373 105.267 175.662 105.267ZM195.82 105L194.51 100.58H189.068L187.758 105H185.826L190.579 89.4974H193.044L197.797 105H195.82ZM191.889 91.4741H191.689L189.512 98.9589H194.065L191.889 91.4741ZM204.451 105V89.4974H206.317V103.379H213.668V105H204.451ZM221.1 105V89.4974H222.966V103.379H230.317V105H221.1ZM240.814 105V98.9145L235.461 89.4974H237.593L239.814 93.5396L241.702 97.071H241.791L243.723 93.5396L245.944 89.4974H248.032L242.679 98.9145V105H240.814ZM311.54 102.934H311.429C311.296 103.231 311.14 103.519 310.963 103.801C310.785 104.082 310.555 104.334 310.274 104.556C310.008 104.763 309.682 104.933 309.297 105.067C308.912 105.2 308.453 105.267 307.92 105.267C306.232 105.267 304.973 104.585 304.144 103.223C303.33 101.861 302.923 99.9065 302.923 97.3598C302.923 94.6946 303.374 92.6734 304.277 91.2964C305.181 89.9194 306.572 89.2309 308.453 89.2309C309.178 89.2309 309.808 89.3271 310.341 89.5196C310.874 89.7121 311.325 89.9712 311.696 90.297C312.081 90.6227 312.399 90.9929 312.651 91.4075C312.902 91.8073 313.11 92.2144 313.272 92.629L311.673 93.362C311.54 93.0214 311.385 92.7031 311.207 92.4069C311.044 92.096 310.837 91.8295 310.585 91.6074C310.348 91.3705 310.059 91.1854 309.719 91.0521C309.378 90.9189 308.979 90.8522 308.52 90.8522C307.276 90.8522 306.358 91.3186 305.765 92.2515C305.188 93.1843 304.899 94.428 304.899 95.9827V98.3814C304.899 99.1662 304.959 99.8843 305.077 100.536C305.195 101.172 305.388 101.728 305.654 102.202C305.936 102.675 306.291 103.046 306.721 103.312C307.165 103.564 307.705 103.69 308.342 103.69C309.349 103.69 310.133 103.386 310.696 102.779C311.259 102.172 311.54 101.387 311.54 100.425V98.8256H308.275V97.3375H313.272V105H311.54V102.934ZM320.327 105V89.4974H329.877V91.1188H322.192V96.3381H329.61V97.9594H322.192V103.379H329.877V105H320.327ZM338.597 91.9405H338.441V105H336.753V89.4974H339.396L344.682 102.557H344.838V89.4974H346.526V105H343.883L338.597 91.9405ZM353.624 105V89.4974H363.175V91.1188H355.49V96.3381H362.908V97.9594H355.49V103.379H363.175V105H353.624ZM372.139 105H370.273V89.4974H375.914C377.351 89.4974 378.446 89.8898 379.201 90.6745C379.957 91.4593 380.334 92.555 380.334 93.9616C380.334 95.2202 380.008 96.227 379.357 96.9822C378.705 97.7373 377.758 98.1741 376.514 98.2926L380.467 105H378.38L374.604 98.3814H372.139V105ZM375.87 96.8045C376.655 96.8045 377.262 96.612 377.691 96.2271C378.135 95.8273 378.357 95.2646 378.357 94.5391V93.3842C378.357 92.6586 378.135 92.1034 377.691 91.7184C377.262 91.3186 376.655 91.1188 375.87 91.1188H372.139V96.8045H375.87ZM395.606 105L394.296 100.58H388.854L387.544 105H385.611L390.364 89.4974H392.83L397.583 105H395.606ZM391.675 91.4741H391.475L389.298 98.9589H393.851L391.675 91.4741ZM409.168 91.1188V105H407.302V91.1188H402.127V89.4974H414.343V91.1188H409.168ZM420.219 105V89.4974H429.77V91.1188H422.085V96.3381H429.503V97.9594H422.085V103.379H429.77V105H420.219ZM436.979 89.4974H441.31C443.206 89.4974 444.62 90.1489 445.552 91.4519C446.485 92.7549 446.952 94.6872 446.952 97.2487C446.952 99.8103 446.485 101.743 445.552 103.046C444.62 104.349 443.206 105 441.31 105H436.979V89.4974ZM441.221 103.379C442.465 103.379 443.398 102.949 444.02 102.09C444.657 101.232 444.975 100.018 444.975 98.448V96.0494C444.975 94.4799 444.657 93.2657 444.02 92.4069C443.398 91.5481 442.465 91.1188 441.221 91.1188H438.845V103.379H441.221Z" fill="white"/>
<path d="M109.737 117.119V131H107.871V117.119H102.696V115.497H114.912V117.119H109.737ZM129.473 131L128.162 126.58H122.721L121.411 131H119.478L124.231 115.497H126.696L131.449 131H129.473ZM125.542 117.474H125.342L123.165 124.959H127.718L125.542 117.474ZM142.057 131.267C140.665 131.267 139.525 131.015 138.637 130.511C137.748 129.993 137.015 129.334 136.438 128.535L137.793 127.424C138.4 128.179 139.037 128.742 139.703 129.112C140.384 129.482 141.191 129.667 142.124 129.667C143.249 129.667 144.108 129.408 144.7 128.89C145.292 128.372 145.589 127.646 145.589 126.713C145.589 125.958 145.374 125.373 144.944 124.959C144.515 124.529 143.767 124.226 142.701 124.048L140.969 123.76C140.214 123.626 139.577 123.426 139.059 123.16C138.555 122.893 138.148 122.575 137.837 122.205C137.526 121.82 137.304 121.405 137.171 120.961C137.038 120.502 136.971 120.028 136.971 119.54C136.971 118.118 137.437 117.045 138.37 116.319C139.303 115.594 140.562 115.231 142.146 115.231C143.39 115.231 144.434 115.438 145.278 115.853C146.136 116.267 146.825 116.852 147.343 117.607L146.033 118.74C145.603 118.177 145.085 117.718 144.478 117.363C143.871 117.008 143.086 116.83 142.124 116.83C141.073 116.83 140.266 117.052 139.703 117.496C139.14 117.941 138.859 118.607 138.859 119.495C138.859 120.191 139.066 120.761 139.481 121.205C139.91 121.635 140.673 121.946 141.768 122.138L143.434 122.427C144.189 122.56 144.826 122.76 145.344 123.027C145.862 123.293 146.277 123.611 146.588 123.982C146.914 124.352 147.143 124.766 147.276 125.225C147.41 125.684 147.476 126.166 147.476 126.669C147.476 128.105 147.003 129.231 146.055 130.045C145.122 130.859 143.79 131.267 142.057 131.267ZM159.683 117.119V131H157.818V117.119H152.643V115.497H164.858V117.119H159.683ZM170.735 131V115.497H180.285V117.119H172.601V122.338H180.019V123.959H172.601V129.379H180.285V131H170.735ZM187.384 131V115.497H197.156V117.119H189.25V122.338H196.49V123.959H189.25V131H187.384ZM205.676 115.497V124.803C205.676 125.559 205.699 126.232 205.743 126.825C205.787 127.417 205.906 127.928 206.098 128.357C206.291 128.772 206.587 129.09 206.987 129.312C207.401 129.534 207.971 129.645 208.697 129.645C209.422 129.645 209.985 129.534 210.385 129.312C210.799 129.09 211.103 128.772 211.295 128.357C211.488 127.928 211.606 127.417 211.651 126.825C211.695 126.232 211.717 125.559 211.717 124.803V115.497H213.583V124.359C213.583 125.514 213.524 126.521 213.405 127.38C213.302 128.239 213.072 128.957 212.717 129.534C212.376 130.112 211.88 130.548 211.229 130.845C210.592 131.126 209.748 131.267 208.697 131.267C207.646 131.267 206.794 131.126 206.143 130.845C205.506 130.548 205.01 130.112 204.655 129.534C204.314 128.957 204.085 128.239 203.966 127.38C203.862 126.521 203.811 125.514 203.811 124.359V115.497H205.676ZM221.348 131V115.497H223.214V129.379H230.565V131H221.348ZM108.759 158.267C107.368 158.267 106.228 158.015 105.339 157.511C104.451 156.993 103.718 156.334 103.14 155.535L104.495 154.424C105.102 155.179 105.739 155.742 106.405 156.112C107.086 156.482 107.893 156.667 108.826 156.667C109.951 156.667 110.81 156.408 111.402 155.89C111.995 155.372 112.291 154.646 112.291 153.713C112.291 152.958 112.076 152.373 111.647 151.959C111.217 151.529 110.47 151.226 109.404 151.048L107.671 150.76C106.916 150.626 106.279 150.426 105.761 150.16C105.258 149.893 104.851 149.575 104.54 149.205C104.229 148.82 104.007 148.405 103.873 147.961C103.74 147.502 103.673 147.028 103.673 146.54C103.673 145.118 104.14 144.045 105.073 143.319C106.005 142.594 107.264 142.231 108.848 142.231C110.092 142.231 111.136 142.438 111.98 142.853C112.839 143.267 113.527 143.852 114.045 144.607L112.735 145.74C112.306 145.177 111.787 144.718 111.18 144.363C110.573 144.008 109.789 143.83 108.826 143.83C107.775 143.83 106.968 144.052 106.405 144.496C105.843 144.941 105.561 145.607 105.561 146.495C105.561 147.191 105.769 147.761 106.183 148.205C106.613 148.635 107.375 148.946 108.471 149.138L110.137 149.427C110.892 149.56 111.528 149.76 112.047 150.027C112.565 150.293 112.979 150.611 113.29 150.982C113.616 151.352 113.846 151.766 113.979 152.225C114.112 152.684 114.179 153.166 114.179 153.669C114.179 155.105 113.705 156.231 112.757 157.045C111.824 157.859 110.492 158.267 108.759 158.267ZM125.453 158.267C124.505 158.267 123.691 158.089 123.01 157.733C122.329 157.363 121.766 156.838 121.322 156.157C120.877 155.475 120.552 154.639 120.344 153.647C120.137 152.655 120.033 151.522 120.033 150.249C120.033 148.99 120.137 147.865 120.344 146.873C120.552 145.866 120.877 145.022 121.322 144.341C121.766 143.66 122.329 143.142 123.01 142.786C123.691 142.416 124.505 142.231 125.453 142.231C126.4 142.231 127.215 142.416 127.896 142.786C128.577 143.142 129.14 143.66 129.584 144.341C130.028 145.022 130.354 145.866 130.561 146.873C130.768 147.865 130.872 148.99 130.872 150.249C130.872 151.522 130.768 152.655 130.561 153.647C130.354 154.639 130.028 155.475 129.584 156.157C129.14 156.838 128.577 157.363 127.896 157.733C127.215 158.089 126.4 158.267 125.453 158.267ZM125.453 156.645C126.075 156.645 126.6 156.527 127.03 156.29C127.459 156.038 127.814 155.69 128.096 155.246C128.377 154.802 128.577 154.269 128.695 153.647C128.829 153.01 128.895 152.299 128.895 151.515V148.983C128.895 148.213 128.829 147.509 128.695 146.873C128.577 146.236 128.377 145.696 128.096 145.251C127.814 144.807 127.459 144.467 127.03 144.23C126.6 143.978 126.075 143.852 125.453 143.852C124.831 143.852 124.305 143.978 123.876 144.23C123.446 144.467 123.091 144.807 122.81 145.251C122.528 145.696 122.321 146.236 122.188 146.873C122.069 147.509 122.01 148.213 122.01 148.983V151.515C122.01 152.299 122.069 153.01 122.188 153.647C122.321 154.269 122.528 154.802 122.81 155.246C123.091 155.69 123.446 156.038 123.876 156.29C124.305 156.527 124.831 156.645 125.453 156.645ZM137.437 158V142.497H147.21V144.119H139.303V149.338H146.544V150.959H139.303V158H137.437ZM159.683 144.119V158H157.818V144.119H152.643V142.497H164.858V144.119H159.683ZM170.735 158L169.514 142.497H171.179L171.823 151.381L172.157 156.068H172.334L174.378 146.54H176.465L178.509 156.068H178.686L179.019 151.381L179.664 142.497H181.285L180.063 158H177.376L175.488 148.738H175.31L173.423 158H170.735ZM196.068 158L194.758 153.58H189.316L188.006 158H186.074L190.826 142.497H193.292L198.045 158H196.068ZM192.137 144.474H191.937L189.76 151.959H194.313L192.137 144.474ZM205.898 158H204.033V142.497H209.674C211.11 142.497 212.206 142.89 212.961 143.675C213.716 144.459 214.094 145.555 214.094 146.962C214.094 148.22 213.768 149.227 213.117 149.982C212.465 150.737 211.518 151.174 210.274 151.293L214.227 158H212.139L208.364 151.381H205.898V158ZM209.63 149.805C210.414 149.805 211.022 149.612 211.451 149.227C211.895 148.827 212.117 148.265 212.117 147.539V146.384C212.117 145.659 211.895 145.103 211.451 144.718C211.022 144.319 210.414 144.119 209.63 144.119H205.898V149.805H209.63ZM220.682 158V142.497H230.232V144.119H222.547V149.338H229.965V150.959H222.547V156.379H230.232V158H220.682Z" fill="white"/>
<path d="M544.937 145.119H538.007L537.563 151.049H537.718C538.103 150.531 538.533 150.123 539.007 149.827C539.48 149.516 540.132 149.361 540.961 149.361C541.642 149.361 542.264 149.472 542.827 149.694C543.404 149.901 543.9 150.212 544.315 150.627C544.729 151.041 545.055 151.545 545.292 152.137C545.529 152.715 545.647 153.381 545.647 154.136C545.647 154.891 545.529 155.587 545.292 156.224C545.055 156.846 544.707 157.386 544.248 157.845C543.789 158.289 543.234 158.637 542.582 158.889C541.931 159.141 541.191 159.267 540.361 159.267C539.71 159.267 539.125 159.192 538.607 159.044C538.103 158.896 537.652 158.696 537.252 158.445C536.867 158.193 536.526 157.912 536.23 157.601C535.934 157.29 535.668 156.964 535.431 156.624L536.83 155.557C537.037 155.868 537.245 156.15 537.452 156.401C537.674 156.653 537.926 156.875 538.207 157.068C538.488 157.245 538.807 157.386 539.162 157.49C539.517 157.593 539.932 157.645 540.406 157.645C541.472 157.645 542.286 157.356 542.849 156.779C543.426 156.202 543.715 155.402 543.715 154.38V154.203C543.715 153.181 543.426 152.381 542.849 151.804C542.271 151.227 541.442 150.938 540.361 150.938C539.621 150.938 539.044 151.064 538.629 151.315C538.229 151.567 537.859 151.878 537.518 152.248L535.942 152.026L536.497 143.497H544.937V145.119ZM562.385 159H552.035V157.09L557.21 152.426C557.965 151.745 558.587 151.049 559.076 150.338C559.564 149.613 559.809 148.85 559.809 148.05V147.784C559.809 146.851 559.564 146.133 559.076 145.63C558.587 145.111 557.862 144.852 556.899 144.852C555.952 144.852 555.219 145.097 554.7 145.585C554.197 146.059 553.819 146.696 553.568 147.495L551.902 146.873C552.05 146.414 552.25 145.97 552.502 145.541C552.768 145.097 553.101 144.704 553.501 144.364C553.901 144.023 554.382 143.749 554.945 143.542C555.522 143.335 556.188 143.231 556.944 143.231C557.714 143.231 558.395 143.342 558.987 143.564C559.594 143.786 560.097 144.097 560.497 144.497C560.912 144.897 561.223 145.37 561.43 145.918C561.652 146.466 561.763 147.066 561.763 147.717C561.763 148.31 561.674 148.865 561.497 149.383C561.334 149.901 561.097 150.397 560.786 150.871C560.49 151.345 560.127 151.811 559.698 152.27C559.283 152.715 558.817 153.159 558.298 153.603L553.967 157.379H562.385V159ZM596.527 159H594.417L592.573 155.913L590.53 152.537H590.441L588.331 155.913L586.377 159H584.333L589.397 151.093L584.622 143.497H586.732L588.531 146.496L590.463 149.627H590.552L592.462 146.496L594.328 143.497H596.371L591.574 151.071L596.527 159ZM618.941 159V157.379H623.383V144.874H623.228L619.319 148.517L618.231 147.34L622.34 143.497H625.249V157.379H629.336V159H618.941ZM663.122 159H661.012L659.169 155.913L657.125 152.537H657.036L654.926 155.913L652.972 159H650.929L655.993 151.093L651.217 143.497H653.327L655.126 146.496L657.059 149.627H657.147L659.058 146.496L660.923 143.497H662.966L658.169 151.071L663.122 159Z" fill="white"/>
<path d="M708.351 149.752C708.351 150.939 708.204 151.981 707.912 152.877C707.601 153.773 707.182 154.523 706.656 155.126C706.131 155.71 705.507 156.158 704.787 156.47C704.066 156.762 703.287 156.908 702.45 156.908C701.048 156.908 699.938 156.528 699.12 155.769C698.302 155.009 697.728 154.007 697.397 152.76L697.163 152.76C696.793 153.851 696.199 154.717 695.381 155.36C694.544 155.983 693.541 156.295 692.373 156.295C690.815 156.295 689.578 155.72 688.663 154.571C687.728 153.422 687.261 151.816 687.261 149.752C687.261 147.687 687.728 146.081 688.663 144.932C689.578 143.783 690.815 143.209 692.373 143.209C693.541 143.209 694.544 143.53 695.381 144.172C696.199 144.796 696.793 145.652 697.163 146.743L697.397 146.743C697.728 145.497 698.302 144.494 699.12 143.734C699.938 142.975 701.048 142.595 702.45 142.595C703.287 142.595 704.066 142.751 704.787 143.062C705.507 143.355 706.131 143.802 706.656 144.406C707.182 145.01 707.601 145.76 707.912 146.655C708.204 147.532 708.351 148.564 708.351 149.752ZM706.277 149.752C706.277 148.311 705.955 147.181 705.313 146.363C704.67 145.545 703.765 145.136 702.596 145.136L701.954 145.136C700.785 145.136 699.88 145.545 699.237 146.363C698.594 147.162 698.273 148.291 698.273 149.752C698.273 151.212 698.594 152.351 699.237 153.169C699.88 153.968 700.785 154.367 701.954 154.367L702.596 154.367C703.765 154.367 704.67 153.958 705.313 153.14C705.955 152.322 706.277 151.193 706.277 149.752ZM696.287 149.752C696.287 148.427 696.004 147.425 695.44 146.743C694.875 146.042 694.067 145.691 693.015 145.691L692.606 145.691C691.555 145.691 690.747 146.052 690.182 146.772C689.617 147.473 689.335 148.466 689.335 149.752C689.335 151.037 689.617 152.04 690.182 152.76C690.747 153.461 691.555 153.812 692.606 153.812L693.015 153.812C694.067 153.812 694.875 153.471 695.44 152.789C696.004 152.088 696.287 151.076 696.287 149.752Z" fill="white"/>
<path d="M304.11 131V115.497H309.751C311.187 115.497 312.283 115.89 313.038 116.675C313.793 117.459 314.171 118.555 314.171 119.962C314.171 121.368 313.793 122.464 313.038 123.249C312.283 124.033 311.187 124.426 309.751 124.426H305.975V131H304.11ZM305.975 122.805H309.707C310.491 122.805 311.099 122.612 311.528 122.227C311.972 121.827 312.194 121.265 312.194 120.539V119.384C312.194 118.659 311.972 118.103 311.528 117.718C311.099 117.319 310.491 117.119 309.707 117.119H305.975V122.805ZM322.624 131H320.759V115.497H326.4C327.836 115.497 328.932 115.89 329.687 116.675C330.442 117.459 330.82 118.555 330.82 119.962C330.82 121.22 330.494 122.227 329.843 122.982C329.191 123.737 328.243 124.174 327 124.293L330.953 131H328.865L325.09 124.381H322.624V131ZM326.356 122.805C327.14 122.805 327.747 122.612 328.177 122.227C328.621 121.827 328.843 121.265 328.843 120.539V119.384C328.843 118.659 328.621 118.103 328.177 117.718C327.747 117.319 327.14 117.119 326.356 117.119H322.624V122.805H326.356ZM342.072 131.267C341.124 131.267 340.31 131.089 339.628 130.733C338.947 130.363 338.385 129.838 337.94 129.157C337.496 128.475 337.171 127.639 336.963 126.647C336.756 125.655 336.652 124.522 336.652 123.249C336.652 121.99 336.756 120.865 336.963 119.873C337.171 118.866 337.496 118.022 337.94 117.341C338.385 116.66 338.947 116.142 339.628 115.786C340.31 115.416 341.124 115.231 342.072 115.231C343.019 115.231 343.834 115.416 344.515 115.786C345.196 116.142 345.758 116.66 346.203 117.341C346.647 118.022 346.973 118.866 347.18 119.873C347.387 120.865 347.491 121.99 347.491 123.249C347.491 124.522 347.387 125.655 347.18 126.647C346.973 127.639 346.647 128.475 346.203 129.157C345.758 129.838 345.196 130.363 344.515 130.733C343.834 131.089 343.019 131.267 342.072 131.267ZM342.072 129.645C342.693 129.645 343.219 129.527 343.648 129.29C344.078 129.038 344.433 128.69 344.715 128.246C344.996 127.802 345.196 127.269 345.314 126.647C345.447 126.01 345.514 125.299 345.514 124.515V121.983C345.514 121.213 345.447 120.509 345.314 119.873C345.196 119.236 344.996 118.696 344.715 118.251C344.433 117.807 344.078 117.467 343.648 117.23C343.219 116.978 342.693 116.852 342.072 116.852C341.45 116.852 340.924 116.978 340.495 117.23C340.065 117.467 339.71 117.807 339.429 118.251C339.147 118.696 338.94 119.236 338.807 119.873C338.688 120.509 338.629 121.213 338.629 121.983V124.515C338.629 125.299 338.688 126.01 338.807 126.647C338.94 127.269 339.147 127.802 339.429 128.246C339.71 128.69 340.065 129.038 340.495 129.29C340.924 129.527 341.45 129.645 342.072 129.645ZM362.718 115.497V126.98C362.718 127.631 362.607 128.224 362.385 128.757C362.163 129.29 361.845 129.741 361.43 130.112C361.03 130.482 360.549 130.77 359.986 130.978C359.424 131.17 358.809 131.267 358.143 131.267C356.958 131.267 355.981 130.963 355.211 130.356C354.441 129.734 353.938 128.868 353.701 127.757L355.478 127.38C355.552 127.691 355.648 127.987 355.766 128.268C355.9 128.535 356.07 128.772 356.277 128.979C356.499 129.171 356.766 129.327 357.077 129.445C357.388 129.564 357.758 129.623 358.187 129.623C359.031 129.623 359.683 129.386 360.142 128.912C360.616 128.424 360.853 127.669 360.853 126.647V117.119H355.256V115.497H362.718ZM370.705 131V115.497H380.255V117.119H372.571V122.338H379.989V123.959H372.571V129.379H380.255V131H370.705ZM392.529 131.267C390.634 131.267 389.22 130.578 388.287 129.201C387.369 127.824 386.91 125.84 386.91 123.249C386.91 120.658 387.369 118.673 388.287 117.296C389.22 115.919 390.634 115.231 392.529 115.231C393.24 115.231 393.854 115.327 394.372 115.52C394.891 115.712 395.335 115.971 395.705 116.297C396.075 116.623 396.386 116.993 396.638 117.407C396.889 117.807 397.112 118.214 397.304 118.629L395.705 119.362C395.572 119.021 395.416 118.703 395.238 118.407C395.061 118.096 394.846 117.829 394.594 117.607C394.357 117.37 394.069 117.185 393.728 117.052C393.402 116.919 393.003 116.852 392.529 116.852C391.3 116.852 390.382 117.319 389.775 118.251C389.183 119.184 388.886 120.428 388.886 121.983V124.515C388.886 126.069 389.183 127.313 389.775 128.246C390.382 129.179 391.3 129.645 392.529 129.645C393.003 129.645 393.402 129.579 393.728 129.445C394.069 129.312 394.357 129.134 394.594 128.912C394.846 128.675 395.061 128.409 395.238 128.113C395.416 127.802 395.572 127.476 395.705 127.135L397.304 127.868C397.112 128.298 396.889 128.712 396.638 129.112C396.386 129.512 396.075 129.875 395.705 130.2C395.335 130.526 394.891 130.785 394.372 130.978C393.854 131.17 393.24 131.267 392.529 131.267ZM409.6 117.119V131H407.734V117.119H402.559V115.497H414.775V117.119H409.6ZM437.256 115.497H442.52C443.852 115.497 444.896 115.86 445.651 116.586C446.406 117.311 446.784 118.281 446.784 119.495C446.784 120.428 446.555 121.161 446.096 121.694C445.651 122.227 445.074 122.605 444.363 122.827V122.893C445.237 123.101 445.955 123.493 446.518 124.07C447.08 124.633 447.362 125.455 447.362 126.536C447.362 127.158 447.258 127.743 447.051 128.29C446.843 128.838 446.547 129.312 446.162 129.712C445.792 130.112 445.348 130.43 444.83 130.667C444.326 130.889 443.778 131 443.186 131H437.256V115.497ZM442.631 129.379C443.49 129.379 444.163 129.186 444.652 128.801C445.141 128.416 445.385 127.824 445.385 127.024V126.114C445.385 125.329 445.141 124.744 444.652 124.359C444.163 123.959 443.49 123.76 442.631 123.76H439.122V129.379H442.631ZM442.32 122.227C443.105 122.227 443.719 122.057 444.163 121.716C444.607 121.361 444.83 120.828 444.83 120.117V119.251C444.83 118.54 444.607 118.007 444.163 117.652C443.719 117.296 443.105 117.119 442.32 117.119H439.122V122.227H442.32ZM457.68 131V124.914L452.328 115.497H454.46L456.681 119.54L458.569 123.071H458.658L460.59 119.54L462.811 115.497H464.899L459.546 124.914V131H457.68ZM490.245 134.065V114.12H496.464V115.497H491.778V132.688H496.464V134.065H490.245ZM507.294 131L502.696 115.497H504.673L506.872 123.249L508.538 129.112H508.649L510.314 123.249L512.513 115.497H514.423L509.826 131H507.294ZM529.229 131L527.918 126.58H522.477L521.166 131H519.234L523.987 115.497H526.452L531.205 131H529.229ZM525.297 117.474H525.098L522.921 124.959H527.474L525.297 117.474ZM545.3 123.226V118.318H545.122L541.857 126.291L538.593 118.318H538.415V123.226V131H536.705V115.497H539.103L541.835 122.338H541.968L544.7 115.497H547.01V131H545.3V123.226ZM558.462 131.267C557.07 131.267 555.93 131.015 555.041 130.511C554.153 129.993 553.42 129.334 552.843 128.535L554.198 127.424C554.805 128.179 555.441 128.742 556.108 129.112C556.789 129.482 557.596 129.667 558.528 129.667C559.654 129.667 560.513 129.408 561.105 128.89C561.697 128.372 561.993 127.646 561.993 126.713C561.993 125.958 561.779 125.373 561.349 124.959C560.92 124.529 560.172 124.226 559.106 124.048L557.374 123.76C556.618 123.626 555.982 123.426 555.463 123.16C554.96 122.893 554.553 122.575 554.242 122.205C553.931 121.82 553.709 121.405 553.576 120.961C553.442 120.502 553.376 120.028 553.376 119.54C553.376 118.118 553.842 117.045 554.775 116.319C555.708 115.594 556.966 115.231 558.551 115.231C559.794 115.231 560.838 115.438 561.682 115.853C562.541 116.267 563.23 116.852 563.748 117.607L562.437 118.74C562.008 118.177 561.49 117.718 560.883 117.363C560.276 117.008 559.491 116.83 558.528 116.83C557.477 116.83 556.67 117.052 556.108 117.496C555.545 117.941 555.264 118.607 555.264 119.495C555.264 120.191 555.471 120.761 555.885 121.205C556.315 121.635 557.077 121.946 558.173 122.138L559.839 122.427C560.594 122.56 561.231 122.76 561.749 123.027C562.267 123.293 562.682 123.611 562.993 123.982C563.318 124.352 563.548 124.766 563.681 125.225C563.814 125.684 563.881 126.166 563.881 126.669C563.881 128.105 563.407 129.231 562.46 130.045C561.527 130.859 560.194 131.267 558.462 131.267ZM570.358 131V129.512H574.222V116.985H570.358V115.497H579.952V116.985H576.088V129.512H579.952V131H570.358ZM603.744 115.497H609.008C610.341 115.497 611.384 115.86 612.14 116.586C612.895 117.311 613.272 118.281 613.272 119.495C613.272 120.428 613.043 121.161 612.584 121.694C612.14 122.227 611.562 122.605 610.851 122.827V122.893C611.725 123.101 612.443 123.493 613.006 124.07C613.568 124.633 613.85 125.455 613.85 126.536C613.85 127.158 613.746 127.743 613.539 128.29C613.332 128.838 613.035 129.312 612.65 129.712C612.28 130.112 611.836 130.43 611.318 130.667C610.814 130.889 610.267 131 609.674 131H603.744V115.497ZM609.119 129.379C609.978 129.379 610.652 129.186 611.14 128.801C611.629 128.416 611.873 127.824 611.873 127.024V126.114C611.873 125.329 611.629 124.744 611.14 124.359C610.652 123.959 609.978 123.76 609.119 123.76H605.61V129.379H609.119ZM608.808 122.227C609.593 122.227 610.207 122.057 610.652 121.716C611.096 121.361 611.318 120.828 611.318 120.117V119.251C611.318 118.54 611.096 118.007 610.652 117.652C610.207 117.296 609.593 117.119 608.808 117.119H605.61V122.227H608.808ZM629.122 131L627.811 126.58H622.37L621.059 131H619.127L623.88 115.497H626.345L631.098 131H629.122ZM625.19 117.474H624.99L622.814 124.959H627.367L625.19 117.474ZM642.683 117.119V131H640.818V117.119H635.643V115.497H647.858V117.119H642.683ZM658.91 131.267C657.015 131.267 655.601 130.578 654.668 129.201C653.75 127.824 653.291 125.84 653.291 123.249C653.291 120.658 653.75 118.673 654.668 117.296C655.601 115.919 657.015 115.231 658.91 115.231C659.621 115.231 660.235 115.327 660.753 115.52C661.272 115.712 661.716 115.971 662.086 116.297C662.456 116.623 662.767 116.993 663.019 117.407C663.271 117.807 663.493 118.214 663.685 118.629L662.086 119.362C661.953 119.021 661.797 118.703 661.62 118.407C661.442 118.096 661.227 117.829 660.976 117.607C660.739 117.37 660.45 117.185 660.109 117.052C659.784 116.919 659.384 116.852 658.91 116.852C657.681 116.852 656.763 117.319 656.156 118.251C655.564 119.184 655.268 120.428 655.268 121.983V124.515C655.268 126.069 655.564 127.313 656.156 128.246C656.763 129.179 657.681 129.645 658.91 129.645C659.384 129.645 659.784 129.579 660.109 129.445C660.45 129.312 660.739 129.134 660.976 128.912C661.227 128.675 661.442 128.409 661.62 128.113C661.797 127.802 661.953 127.476 662.086 127.135L663.685 127.868C663.493 128.298 663.271 128.712 663.019 129.112C662.767 129.512 662.456 129.875 662.086 130.2C661.716 130.526 661.272 130.785 660.753 130.978C660.235 131.17 659.621 131.267 658.91 131.267ZM678.069 123.959H672.027V131H670.162V115.497H672.027V122.338H678.069V115.497H679.934V131H678.069V123.959ZM688.676 115.497V124.803C688.676 125.559 688.698 126.232 688.743 126.825C688.787 127.417 688.906 127.928 689.098 128.357C689.291 128.772 689.587 129.09 689.987 129.312C690.401 129.534 690.971 129.645 691.697 129.645C692.422 129.645 692.985 129.534 693.385 129.312C693.799 129.09 694.103 128.772 694.295 128.357C694.488 127.928 694.606 127.417 694.651 126.825C694.695 126.232 694.717 125.559 694.717 124.803V115.497H696.583V124.359C696.583 125.514 696.524 126.521 696.405 127.38C696.302 128.239 696.072 128.957 695.717 129.534C695.376 130.112 694.88 130.548 694.229 130.845C693.592 131.126 692.748 131.267 691.697 131.267C690.646 131.267 689.794 131.126 689.143 130.845C688.506 130.548 688.01 130.112 687.655 129.534C687.314 128.957 687.085 128.239 686.966 127.38C686.862 126.521 686.811 125.514 686.811 124.359V115.497H688.676ZM710.011 114.12V134.065H703.793V132.688H708.479V115.497H703.793V114.12H710.011Z" fill="white"/>
<path d="M459.559 262.207C458.09 262.207 456.995 261.673 456.272 260.606C455.56 259.539 455.205 258.002 455.205 255.994C455.205 253.986 455.56 252.448 456.272 251.381C456.995 250.314 458.09 249.781 459.559 249.781C460.11 249.781 460.586 249.855 460.987 250.005C461.389 250.154 461.733 250.355 462.02 250.607C462.307 250.859 462.548 251.146 462.743 251.467C462.938 251.777 463.11 252.093 463.259 252.414L462.02 252.982C461.917 252.718 461.796 252.471 461.658 252.242C461.521 252.001 461.354 251.794 461.159 251.622C460.976 251.439 460.752 251.295 460.488 251.192C460.236 251.089 459.926 251.037 459.559 251.037C458.607 251.037 457.895 251.399 457.425 252.121C456.966 252.844 456.736 253.808 456.736 255.013V256.975C456.736 258.179 456.966 259.143 457.425 259.866C457.895 260.589 458.607 260.95 459.559 260.95C459.926 260.95 460.236 260.899 460.488 260.795C460.752 260.692 460.976 260.554 461.159 260.382C461.354 260.199 461.521 259.992 461.658 259.763C461.796 259.522 461.917 259.269 462.02 259.005L463.259 259.573C463.11 259.906 462.938 260.227 462.743 260.537C462.548 260.847 462.307 261.128 462.02 261.38C461.733 261.633 461.389 261.834 460.987 261.983C460.586 262.132 460.11 262.207 459.559 262.207ZM469.895 262H468.45V249.987H472.821C473.934 249.987 474.783 250.291 475.368 250.9C475.953 251.508 476.246 252.357 476.246 253.447C476.246 254.422 475.993 255.202 475.489 255.787C474.984 256.372 474.249 256.711 473.286 256.803L476.349 262H474.731L471.806 256.871H469.895V262ZM472.787 255.65C473.395 255.65 473.865 255.5 474.198 255.202C474.542 254.892 474.714 254.456 474.714 253.894V252.999C474.714 252.437 474.542 252.007 474.198 251.708C473.865 251.399 473.395 251.244 472.787 251.244H469.895V255.65H472.787ZM488.08 262L487.064 258.575H482.848L481.832 262H480.335L484.018 249.987H485.928L489.611 262H488.08ZM485.033 251.519H484.879L483.192 257.319H486.72L485.033 251.519ZM494.251 262V249.987H501.824V251.244H495.697V255.288H501.307V256.544H495.697V262H494.251ZM511.489 251.244V262H510.043V251.244H506.033V249.987H515.499V251.244H511.489ZM520.053 262V249.987H527.453V251.244H521.498V255.288H527.247V256.544H521.498V260.744H527.453V262H520.053ZM533.04 249.987H536.396C537.864 249.987 538.96 250.492 539.683 251.502C540.405 252.512 540.767 254.009 540.767 255.994C540.767 257.979 540.405 259.476 539.683 260.486C538.96 261.495 537.864 262 536.396 262H533.04V249.987ZM536.327 260.744C537.29 260.744 538.013 260.411 538.495 259.745C538.989 259.08 539.235 258.139 539.235 256.923V255.064C539.235 253.848 538.989 252.907 538.495 252.242C538.013 251.576 537.29 251.244 536.327 251.244H534.485V260.744H536.327ZM558.755 262L557.809 249.987H559.099L559.598 256.871L559.857 260.503H559.994L561.578 253.12H563.195L564.779 260.503H564.916L565.174 256.871L565.674 249.987H566.93L565.983 262H563.901L562.438 254.823H562.3L560.838 262H558.755ZM571.656 262V249.987H579.056V251.244H573.102V255.288H578.85V256.544H573.102V260.744H579.056V262H571.656ZM584.557 262V249.987H591.957V251.244H586.002V255.288H591.75V256.544H586.002V260.744H591.957V262H584.557ZM600.538 256.114L598.817 258.145V262H597.371V249.987H598.817V256.252H598.869L600.452 254.256L603.997 249.987H605.735L601.519 255.047L605.856 262H604.169L600.538 256.114ZM610.875 262V249.987H612.32V260.744H618.017V262H610.875ZM626.15 262V257.284L622.003 249.987H623.655L625.376 253.12L626.839 255.856H626.908L628.405 253.12L630.126 249.987H631.744L627.596 257.284V262H626.15Z" fill="#8C8C8C"/>
<path d="M459.129 285.207C458.05 285.207 457.167 285.011 456.478 284.621C455.79 284.22 455.222 283.709 454.774 283.09L455.824 282.229C456.295 282.814 456.788 283.25 457.304 283.537C457.832 283.824 458.457 283.967 459.18 283.967C460.052 283.967 460.718 283.767 461.177 283.365C461.636 282.963 461.865 282.401 461.865 281.678C461.865 281.093 461.699 280.64 461.366 280.319C461.033 279.986 460.454 279.751 459.628 279.613L458.285 279.39C457.7 279.286 457.207 279.131 456.805 278.925C456.415 278.718 456.1 278.472 455.859 278.185C455.618 277.887 455.446 277.565 455.342 277.221C455.239 276.865 455.187 276.498 455.187 276.12C455.187 275.018 455.549 274.186 456.272 273.624C456.995 273.062 457.97 272.781 459.197 272.781C460.161 272.781 460.97 272.942 461.624 273.263C462.289 273.584 462.823 274.037 463.225 274.622L462.209 275.5C461.876 275.064 461.475 274.708 461.004 274.433C460.534 274.158 459.926 274.02 459.18 274.02C458.366 274.02 457.74 274.192 457.304 274.536C456.868 274.881 456.65 275.397 456.65 276.085C456.65 276.624 456.811 277.066 457.132 277.41C457.465 277.743 458.056 277.984 458.905 278.133L460.196 278.357C460.781 278.46 461.274 278.615 461.676 278.822C462.077 279.028 462.398 279.275 462.639 279.562C462.892 279.848 463.07 280.17 463.173 280.525C463.276 280.881 463.328 281.254 463.328 281.644C463.328 282.757 462.961 283.629 462.226 284.26C461.504 284.891 460.471 285.207 459.129 285.207ZM474.404 279.544H469.723V285H468.278V272.987H469.723V278.288H474.404V272.987H475.85V285H474.404V279.544ZM481.247 285V283.847H484.242V274.14H481.247V272.987H488.682V274.14H485.687V283.847H488.682V285H481.247ZM494.251 285V272.987H498.623C499.735 272.987 500.585 273.291 501.17 273.9C501.755 274.508 502.047 275.357 502.047 276.447C502.047 277.537 501.755 278.386 501.17 278.994C500.585 279.602 499.735 279.906 498.623 279.906H495.697V285H494.251ZM495.697 278.65H498.588C499.196 278.65 499.667 278.5 499.999 278.202C500.344 277.892 500.516 277.456 500.516 276.894V275.999C500.516 275.437 500.344 275.007 499.999 274.708C499.667 274.399 499.196 274.244 498.588 274.244H495.697V278.65ZM507.152 285V272.987H511.523C512.636 272.987 513.485 273.291 514.07 273.9C514.656 274.508 514.948 275.357 514.948 276.447C514.948 277.537 514.656 278.386 514.07 278.994C513.485 279.602 512.636 279.906 511.523 279.906H508.598V285H507.152ZM508.598 278.65H511.489C512.097 278.65 512.567 278.5 512.9 278.202C513.244 277.892 513.416 277.456 513.416 276.894V275.999C513.416 275.437 513.244 275.007 512.9 274.708C512.567 274.399 512.097 274.244 511.489 274.244H508.598V278.65ZM520.053 285V272.987H527.453V274.244H521.498V278.288H527.247V279.544H521.498V283.744H527.453V285H520.053ZM533.04 272.987H536.396C537.864 272.987 538.96 273.492 539.683 274.502C540.405 275.512 540.767 277.009 540.767 278.994C540.767 280.979 540.405 282.476 539.683 283.486C538.96 284.495 537.864 285 536.396 285H533.04V272.987ZM536.327 283.744C537.29 283.744 538.013 283.411 538.495 282.745C538.989 282.08 539.235 281.139 539.235 279.923V278.064C539.235 276.848 538.989 275.907 538.495 275.242C538.013 274.576 537.29 274.244 536.327 274.244H534.485V283.744H536.327ZM558.755 285V272.987H563.126C564.239 272.987 565.088 273.291 565.674 273.9C566.259 274.508 566.551 275.357 566.551 276.447C566.551 277.537 566.259 278.386 565.674 278.994C565.088 279.602 564.239 279.906 563.126 279.906H560.201V285H558.755ZM560.201 278.65H563.092C563.7 278.65 564.171 278.5 564.503 278.202C564.847 277.892 565.02 277.456 565.02 276.894V275.999C565.02 275.437 564.847 275.007 564.503 274.708C564.171 274.399 563.7 274.244 563.092 274.244H560.201V278.65ZM572.929 272.987V280.198C572.929 280.784 572.947 281.306 572.981 281.765C573.015 282.223 573.107 282.619 573.256 282.952C573.406 283.273 573.635 283.52 573.945 283.692C574.266 283.864 574.708 283.95 575.27 283.95C575.832 283.95 576.268 283.864 576.578 283.692C576.899 283.52 577.134 283.273 577.284 282.952C577.433 282.619 577.524 282.223 577.559 281.765C577.593 281.306 577.611 280.784 577.611 280.198V272.987H579.056V279.854C579.056 280.749 579.01 281.529 578.919 282.195C578.838 282.86 578.66 283.417 578.385 283.864C578.121 284.312 577.737 284.65 577.232 284.88C576.739 285.098 576.085 285.207 575.27 285.207C574.455 285.207 573.796 285.098 573.291 284.88C572.797 284.65 572.413 284.312 572.138 283.864C571.874 283.417 571.696 282.86 571.604 282.195C571.524 281.529 571.484 280.749 571.484 279.854V272.987H572.929ZM584.522 272.987H588.601C589.634 272.987 590.442 273.269 591.028 273.831C591.613 274.393 591.905 275.144 591.905 276.085C591.905 276.808 591.727 277.376 591.372 277.789C591.028 278.202 590.58 278.495 590.029 278.667V278.718C590.706 278.879 591.263 279.183 591.699 279.63C592.135 280.066 592.353 280.703 592.353 281.541C592.353 282.023 592.272 282.476 592.112 282.9C591.951 283.325 591.722 283.692 591.423 284.002C591.137 284.312 590.792 284.558 590.391 284.742C590.001 284.914 589.576 285 589.117 285H584.522V272.987ZM588.687 283.744C589.353 283.744 589.875 283.595 590.253 283.296C590.632 282.998 590.821 282.539 590.821 281.919V281.214C590.821 280.606 590.632 280.153 590.253 279.854C589.875 279.544 589.353 279.39 588.687 279.39H585.968V283.744H588.687ZM588.446 278.202C589.054 278.202 589.53 278.07 589.875 277.806C590.219 277.531 590.391 277.118 590.391 276.567V275.896C590.391 275.345 590.219 274.932 589.875 274.657C589.53 274.381 589.054 274.244 588.446 274.244H585.968V278.202H588.446ZM597.974 285V272.987H599.419V283.744H605.116V285H597.974ZM610.255 285V283.847H613.25V274.14H610.255V272.987H617.69V274.14H614.695V283.847H617.69V285H610.255ZM627.269 285.207C625.8 285.207 624.705 284.673 623.982 283.606C623.27 282.539 622.915 281.002 622.915 278.994C622.915 276.986 623.27 275.448 623.982 274.381C624.705 273.314 625.8 272.781 627.269 272.781C627.82 272.781 628.296 272.855 628.697 273.005C629.099 273.154 629.443 273.355 629.73 273.607C630.017 273.859 630.258 274.146 630.453 274.467C630.648 274.777 630.82 275.093 630.969 275.414L629.73 275.982C629.627 275.718 629.506 275.471 629.369 275.242C629.231 275.001 629.065 274.794 628.869 274.622C628.686 274.439 628.462 274.295 628.198 274.192C627.946 274.089 627.636 274.037 627.269 274.037C626.317 274.037 625.605 274.399 625.135 275.121C624.676 275.844 624.446 276.808 624.446 278.013V279.975C624.446 281.179 624.676 282.143 625.135 282.866C625.605 283.589 626.317 283.95 627.269 283.95C627.636 283.95 627.946 283.899 628.198 283.795C628.462 283.692 628.686 283.554 628.869 283.382C629.065 283.199 629.231 282.992 629.369 282.763C629.506 282.522 629.627 282.269 629.73 282.005L630.969 282.573C630.82 282.906 630.648 283.227 630.453 283.537C630.258 283.847 630.017 284.128 629.73 284.38C629.443 284.633 629.099 284.834 628.697 284.983C628.296 285.132 627.82 285.207 627.269 285.207ZM636.676 285V272.987H638.122V283.744H643.818V285H636.676ZM651.952 285V280.284L647.804 272.987H649.456L651.177 276.12L652.64 278.856H652.709L654.206 276.12L655.927 272.987H657.545L653.397 280.284V285H651.952Z" fill="#8C8C8C"/>
<path d="M455.514 295.987H459.593C460.626 295.987 461.435 296.269 462.02 296.831C462.605 297.393 462.898 298.144 462.898 299.085C462.898 299.808 462.72 300.376 462.364 300.789C462.02 301.202 461.572 301.495 461.022 301.667V301.718C461.699 301.879 462.255 302.183 462.691 302.63C463.127 303.066 463.345 303.703 463.345 304.541C463.345 305.023 463.265 305.476 463.104 305.9C462.943 306.325 462.714 306.692 462.416 307.002C462.129 307.312 461.785 307.558 461.383 307.742C460.993 307.914 460.568 308 460.11 308H455.514V295.987ZM459.679 306.744C460.345 306.744 460.867 306.595 461.245 306.296C461.624 305.998 461.813 305.539 461.813 304.919V304.214C461.813 303.606 461.624 303.153 461.245 302.854C460.867 302.544 460.345 302.39 459.679 302.39H456.96V306.744H459.679ZM459.438 301.202C460.046 301.202 460.523 301.07 460.867 300.806C461.211 300.531 461.383 300.118 461.383 299.567V298.896C461.383 298.345 461.211 297.932 460.867 297.657C460.523 297.381 460.046 297.244 459.438 297.244H456.96V301.202H459.438ZM469.723 295.987V303.198C469.723 303.784 469.74 304.306 469.775 304.765C469.809 305.223 469.901 305.619 470.05 305.952C470.199 306.273 470.429 306.52 470.739 306.692C471.06 306.864 471.502 306.95 472.064 306.95C472.626 306.95 473.062 306.864 473.372 306.692C473.693 306.52 473.928 306.273 474.077 305.952C474.227 305.619 474.318 305.223 474.353 304.765C474.387 304.306 474.404 303.784 474.404 303.198V295.987H475.85V302.854C475.85 303.749 475.804 304.529 475.712 305.195C475.632 305.86 475.454 306.417 475.179 306.864C474.915 307.312 474.531 307.65 474.026 307.88C473.532 308.098 472.878 308.207 472.064 308.207C471.249 308.207 470.589 308.098 470.085 307.88C469.591 307.65 469.207 307.312 468.932 306.864C468.668 306.417 468.49 305.86 468.398 305.195C468.318 304.529 468.278 303.749 468.278 302.854V295.987H469.723ZM481.247 308V306.847H484.242V297.14H481.247V295.987H488.682V297.14H485.687V306.847H488.682V308H481.247ZM494.768 308V295.987H496.213V306.744H501.91V308H494.768ZM511.489 297.244V308H510.043V297.244H506.033V295.987H515.499V297.244H511.489ZM532.954 308L532.007 295.987H533.298L533.797 302.871L534.055 306.503H534.193L535.776 299.12H537.394L538.977 306.503H539.115L539.373 302.871L539.872 295.987H541.128L540.182 308H538.099L536.637 300.823H536.499L535.036 308H532.954ZM545.751 308V306.847H548.746V297.14H545.751V295.987H553.186V297.14H550.191V306.847H553.186V308H545.751ZM563.092 297.244V308H561.646V297.244H557.636V295.987H567.102V297.244H563.092ZM577.611 302.544H572.929V308H571.484V295.987H572.929V301.288H577.611V295.987H579.056V308H577.611V302.544ZM597.354 308V306.847H600.349V297.14H597.354V295.987H604.789V297.14H601.794V306.847H604.789V308H597.354ZM611.615 297.881H611.494V308H610.186V295.987H612.234L616.33 306.107H616.451V295.987H617.759V308H615.711L611.615 297.881ZM627.596 297.244V308H626.15V297.244H622.14V295.987H631.606V297.244H627.596ZM636.16 308V295.987H643.56V297.244H637.605V301.288H643.354V302.544H637.605V306.744H643.56V308H636.16ZM650.317 297.881H650.196V308H648.888V295.987H650.936L655.032 306.107H655.153V295.987H656.461V308H654.413L650.317 297.881ZM666.298 297.244V308H664.853V297.244H660.843V295.987H670.308V297.244H666.298ZM674.759 308V306.847H677.753V297.14H674.759V295.987H682.194V297.14H679.199V306.847H682.194V308H674.759ZM691.377 308.207C690.643 308.207 690.012 308.069 689.484 307.793C688.956 307.507 688.52 307.099 688.176 306.572C687.832 306.044 687.579 305.396 687.419 304.627C687.258 303.858 687.178 302.98 687.178 301.994C687.178 301.018 687.258 300.147 687.419 299.378C687.579 298.598 687.832 297.944 688.176 297.416C688.52 296.888 688.956 296.487 689.484 296.211C690.012 295.924 690.643 295.781 691.377 295.781C692.111 295.781 692.742 295.924 693.27 296.211C693.798 296.487 694.234 296.888 694.578 297.416C694.922 297.944 695.175 298.598 695.335 299.378C695.496 300.147 695.576 301.018 695.576 301.994C695.576 302.98 695.496 303.858 695.335 304.627C695.175 305.396 694.922 306.044 694.578 306.572C694.234 307.099 693.798 307.507 693.27 307.793C692.742 308.069 692.111 308.207 691.377 308.207ZM691.377 306.95C691.859 306.95 692.266 306.858 692.599 306.675C692.932 306.48 693.207 306.21 693.425 305.866C693.643 305.522 693.798 305.109 693.89 304.627C693.993 304.133 694.045 303.583 694.045 302.975V301.013C694.045 300.416 693.993 299.871 693.89 299.378C693.798 298.884 693.643 298.466 693.425 298.121C693.207 297.777 692.932 297.513 692.599 297.33C692.266 297.135 691.859 297.037 691.377 297.037C690.895 297.037 690.488 297.135 690.155 297.33C689.822 297.513 689.547 297.777 689.329 298.121C689.111 298.466 688.95 298.884 688.847 299.378C688.755 299.871 688.709 300.416 688.709 301.013V302.975C688.709 303.583 688.755 304.133 688.847 304.627C688.95 305.109 689.111 305.522 689.329 305.866C689.547 306.21 689.822 306.48 690.155 306.675C690.488 306.858 690.895 306.95 691.377 306.95ZM701.92 297.881H701.8V308H700.492V295.987H702.54L706.636 306.107H706.756V295.987H708.064V308H706.016L701.92 297.881Z" fill="#8C8C8C"/>
<path d="M27.1646 321.192C27.1646 322.243 26.7268 323.018 25.851 323.517C24.9752 324.029 23.6616 324.285 21.91 324.285C20.2259 324.285 19.0133 324.062 18.2722 323.618C17.5447 323.173 17.1809 322.533 17.1809 321.698C17.1809 321.132 17.3291 320.694 17.6255 320.384C17.9219 320.074 18.3396 319.845 18.8785 319.697V319.454C18.5821 319.306 18.3531 319.117 18.1914 318.888C18.0297 318.659 17.9489 318.37 17.9489 318.019C17.9489 317.48 18.124 317.076 18.4743 316.807C18.8381 316.537 19.2895 316.335 19.8284 316.201V316.12C19.1817 315.837 18.6764 315.419 18.3127 314.867C17.9624 314.314 17.7872 313.668 17.7872 312.926C17.7872 312.401 17.8815 311.916 18.0701 311.471C18.2588 311.027 18.5282 310.65 18.8785 310.34C19.2423 310.016 19.6735 309.767 20.172 309.592C20.6705 309.417 21.2229 309.329 21.8292 309.329C22.6107 309.329 23.2978 309.471 23.8906 309.754V309.572C23.8906 309.167 23.9849 308.831 24.1736 308.561C24.3622 308.292 24.6855 308.157 25.1436 308.157H27.0636V309.572H24.7192V310.279C25.0965 310.602 25.3862 310.986 25.5883 311.431C25.7904 311.876 25.8914 312.374 25.8914 312.926C25.8914 313.452 25.7904 313.937 25.5883 314.382C25.3996 314.826 25.1302 315.21 24.7799 315.534C24.4296 315.843 23.9984 316.086 23.4864 316.261C22.9879 316.436 22.4355 316.524 21.8292 316.524C21.654 316.524 21.4856 316.517 21.3239 316.504C21.1623 316.49 21.0006 316.47 20.8389 316.443C20.6772 316.47 20.5088 316.517 20.3337 316.585C20.1585 316.638 19.9968 316.719 19.8486 316.827C19.7004 316.921 19.5792 317.036 19.4848 317.171C19.3905 317.305 19.3434 317.46 19.3434 317.635C19.3434 317.945 19.4983 318.154 19.8082 318.262C20.1181 318.356 20.5223 318.403 21.0208 318.403H23.3247C24.6721 318.403 25.6489 318.659 26.2552 319.171C26.8615 319.67 27.1646 320.344 27.1646 321.192ZM25.6489 321.273C25.6489 320.856 25.4805 320.519 25.1436 320.263C24.8068 320.02 24.2207 319.899 23.3854 319.899H19.7678C19.0672 320.182 18.7169 320.653 18.7169 321.314C18.7169 321.772 18.8987 322.162 19.2625 322.486C19.6263 322.823 20.2326 322.991 21.0814 322.991H22.6578C23.6009 322.991 24.3352 322.843 24.8607 322.546C25.3862 322.264 25.6489 321.839 25.6489 321.273ZM21.8292 315.271C22.6376 315.271 23.2304 315.082 23.6077 314.705C23.9984 314.328 24.1938 313.829 24.1938 313.209V312.623C24.1938 312.004 23.9984 311.512 23.6077 311.148C23.2304 310.771 22.6376 310.582 21.8292 310.582C21.0208 310.582 20.428 310.771 20.0507 311.148C19.6735 311.512 19.4848 312.004 19.4848 312.623V313.209C19.4848 313.829 19.6735 314.328 20.0507 314.705C20.428 315.082 21.0208 315.271 21.8292 315.271ZM35.8268 320.243C35.0993 320.243 34.4391 320.115 33.8463 319.859C33.2669 319.603 32.7684 319.239 32.3507 318.767C31.9465 318.282 31.6366 317.71 31.4211 317.049C31.2055 316.376 31.0977 315.621 31.0977 314.786C31.0977 313.964 31.2055 313.216 31.4211 312.543C31.6366 311.869 31.9465 311.296 32.3507 310.825C32.7684 310.34 33.2669 309.969 33.8463 309.713C34.4391 309.457 35.0993 309.329 35.8268 309.329C36.5544 309.329 37.2078 309.457 37.7872 309.713C38.38 309.969 38.8785 310.34 39.2827 310.825C39.7004 311.296 40.017 311.869 40.2326 312.543C40.4482 313.216 40.556 313.964 40.556 314.786C40.556 315.621 40.4482 316.376 40.2326 317.049C40.017 317.71 39.7004 318.282 39.2827 318.767C38.8785 319.239 38.38 319.603 37.7872 319.859C37.2078 320.115 36.5544 320.243 35.8268 320.243ZM35.8268 318.848C36.7295 318.848 37.4571 318.579 38.0095 318.04C38.5619 317.501 38.8381 316.665 38.8381 315.534V314.038C38.8381 312.906 38.5619 312.071 38.0095 311.532C37.4571 310.993 36.7295 310.724 35.8268 310.724C34.9241 310.724 34.1966 310.993 33.6442 311.532C33.0917 312.071 32.8155 312.906 32.8155 314.038V315.534C32.8155 316.665 33.0917 317.501 33.6442 318.04C34.1966 318.579 34.9241 318.848 35.8268 318.848ZM49.7638 320.243C49.0363 320.243 48.3761 320.115 47.7833 319.859C47.2039 319.603 46.7054 319.239 46.2877 318.767C45.8835 318.282 45.5736 317.71 45.3581 317.049C45.1425 316.376 45.0347 315.621 45.0347 314.786C45.0347 313.964 45.1425 313.216 45.3581 312.543C45.5736 311.869 45.8835 311.296 46.2877 310.825C46.7054 310.34 47.2039 309.969 47.7833 309.713C48.3761 309.457 49.0363 309.329 49.7638 309.329C50.4914 309.329 51.1449 309.457 51.7242 309.713C52.317 309.969 52.8155 310.34 53.2197 310.825C53.6374 311.296 53.954 311.869 54.1696 312.543C54.3852 313.216 54.493 313.964 54.493 314.786C54.493 315.621 54.3852 316.376 54.1696 317.049C53.954 317.71 53.6374 318.282 53.2197 318.767C52.8155 319.239 52.317 319.603 51.7242 319.859C51.1449 320.115 50.4914 320.243 49.7638 320.243ZM49.7638 318.848C50.6666 318.848 51.3941 318.579 51.9465 318.04C52.4989 317.501 52.7751 316.665 52.7751 315.534V314.038C52.7751 312.906 52.4989 312.071 51.9465 311.532C51.3941 310.993 50.6666 310.724 49.7638 310.724C48.8611 310.724 48.1336 310.993 47.5812 311.532C47.0288 312.071 46.7525 312.906 46.7525 314.038V315.534C46.7525 316.665 47.0288 317.501 47.5812 318.04C48.1336 318.579 48.8611 318.848 49.7638 318.848ZM68.9757 321.192C68.9757 322.243 68.5378 323.018 67.662 323.517C66.7862 324.029 65.4726 324.285 63.7211 324.285C62.0369 324.285 60.8243 324.062 60.0833 323.618C59.3557 323.173 58.9919 322.533 58.9919 321.698C58.9919 321.132 59.1401 320.694 59.4365 320.384C59.7329 320.074 60.1506 319.845 60.6896 319.697V319.454C60.3931 319.306 60.1641 319.117 60.0024 318.888C59.8407 318.659 59.7599 318.37 59.7599 318.019C59.7599 317.48 59.935 317.076 60.2854 316.807C60.6491 316.537 61.1005 316.335 61.6394 316.201V316.12C60.9927 315.837 60.4875 315.419 60.1237 314.867C59.7734 314.314 59.5982 313.668 59.5982 312.926C59.5982 312.401 59.6925 311.916 59.8812 311.471C60.0698 311.027 60.3392 310.65 60.6896 310.34C61.0533 310.016 61.4845 309.767 61.983 309.592C62.4815 309.417 63.0339 309.329 63.6402 309.329C64.4217 309.329 65.1088 309.471 65.7016 309.754V309.572C65.7016 309.167 65.7959 308.831 65.9846 308.561C66.1732 308.292 66.4966 308.157 66.9547 308.157H68.8746V309.572H66.5302V310.279C66.9075 310.602 67.1972 310.986 67.3993 311.431C67.6014 311.876 67.7024 312.374 67.7024 312.926C67.7024 313.452 67.6014 313.937 67.3993 314.382C67.2106 314.826 66.9412 315.21 66.5909 315.534C66.2406 315.843 65.8094 316.086 65.2974 316.261C64.7989 316.436 64.2465 316.524 63.6402 316.524C63.4651 316.524 63.2966 316.517 63.135 316.504C62.9733 316.49 62.8116 316.47 62.6499 316.443C62.4882 316.47 62.3198 316.517 62.1447 316.585C61.9695 316.638 61.8078 316.719 61.6596 316.827C61.5114 316.921 61.3902 317.036 61.2959 317.171C61.2015 317.305 61.1544 317.46 61.1544 317.635C61.1544 317.945 61.3093 318.154 61.6192 318.262C61.9291 318.356 62.3333 318.403 62.8318 318.403H65.1358C66.4831 318.403 67.4599 318.659 68.0662 319.171C68.6725 319.67 68.9757 320.344 68.9757 321.192ZM67.4599 321.273C67.4599 320.856 67.2915 320.519 66.9547 320.263C66.6178 320.02 66.0317 319.899 65.1964 319.899H61.5788C60.8782 320.182 60.5279 320.653 60.5279 321.314C60.5279 321.772 60.7098 322.162 61.0735 322.486C61.4373 322.823 62.0436 322.991 62.8924 322.991H64.4688C65.412 322.991 66.1463 322.843 66.6717 322.546C67.1972 322.264 67.4599 321.839 67.4599 321.273ZM63.6402 315.271C64.4486 315.271 65.0414 315.082 65.4187 314.705C65.8094 314.328 66.0048 313.829 66.0048 313.209V312.623C66.0048 312.004 65.8094 311.512 65.4187 311.148C65.0414 310.771 64.4486 310.582 63.6402 310.582C62.8318 310.582 62.239 310.771 61.8617 311.148C61.4845 311.512 61.2959 312.004 61.2959 312.623V313.209C61.2959 313.829 61.4845 314.328 61.8617 314.705C62.239 315.082 62.8318 315.271 63.6402 315.271ZM73.1916 318.626H76.8294V306.419H73.1916V305.045H78.4462V318.626H82.084V320H73.1916V318.626ZM91.7567 320.243C91.0022 320.243 90.3218 320.115 89.7155 319.859C89.1227 319.603 88.6107 319.239 88.1796 318.767C87.7619 318.282 87.4385 317.71 87.2095 317.049C86.9804 316.376 86.8659 315.628 86.8659 314.806C86.8659 313.971 86.9804 313.216 87.2095 312.543C87.452 311.869 87.7821 311.296 88.1998 310.825C88.6175 310.34 89.116 309.969 89.6953 309.713C90.2881 309.457 90.9416 309.329 91.6557 309.329C92.3563 309.329 92.9895 309.457 93.5554 309.713C94.1348 309.969 94.6266 310.326 95.0308 310.784C95.435 311.229 95.7448 311.761 95.9604 312.381C96.176 313.001 96.2838 313.681 96.2838 314.422V315.19H88.5636V315.675C88.5636 316.133 88.6377 316.558 88.7859 316.948C88.9341 317.339 89.1429 317.676 89.4124 317.959C89.6953 318.242 90.0322 318.464 90.4229 318.626C90.8271 318.774 91.2717 318.848 91.7567 318.848C92.4574 318.848 93.0637 318.686 93.5756 318.363C94.0876 318.04 94.4784 317.595 94.7478 317.029L95.9402 317.838C95.6303 318.538 95.1116 319.117 94.384 319.576C93.67 320.02 92.7942 320.243 91.7567 320.243ZM91.6557 310.663C91.2111 310.663 90.8001 310.744 90.4229 310.906C90.0456 311.067 89.7155 311.289 89.4326 311.572C89.1631 311.855 88.9475 312.192 88.7859 312.583C88.6377 312.96 88.5636 313.378 88.5636 313.836V313.977H94.5457V313.755C94.5457 313.297 94.4716 312.879 94.3234 312.502C94.1887 312.125 93.9933 311.801 93.7373 311.532C93.4948 311.249 93.1916 311.033 92.8279 310.885C92.4776 310.737 92.0868 310.663 91.6557 310.663ZM123.39 320C122.757 320 122.305 319.838 122.036 319.515C121.766 319.192 121.598 318.787 121.53 318.302H121.429C121.2 318.909 120.83 319.387 120.318 319.737C119.819 320.074 119.146 320.243 118.297 320.243C117.206 320.243 116.337 319.96 115.69 319.394C115.043 318.828 114.72 318.053 114.72 317.07C114.72 316.099 115.07 315.352 115.771 314.826C116.485 314.301 117.63 314.038 119.206 314.038H121.429V313.007C121.429 312.239 121.214 311.667 120.783 311.289C120.352 310.899 119.739 310.703 118.944 310.703C118.243 310.703 117.67 310.845 117.226 311.128C116.781 311.397 116.424 311.768 116.155 312.239L115.063 311.431C115.198 311.161 115.38 310.899 115.609 310.643C115.838 310.387 116.121 310.164 116.458 309.976C116.795 309.774 117.179 309.619 117.61 309.511C118.041 309.39 118.519 309.329 119.045 309.329C120.271 309.329 121.241 309.639 121.955 310.259C122.682 310.879 123.046 311.741 123.046 312.846V318.585H124.501V320H123.39ZM118.58 318.888C118.998 318.888 119.375 318.841 119.712 318.747C120.062 318.639 120.365 318.504 120.621 318.343C120.877 318.168 121.072 317.966 121.207 317.736C121.355 317.494 121.429 317.238 121.429 316.969V315.251H119.206C118.236 315.251 117.529 315.385 117.084 315.655C116.64 315.924 116.417 316.315 116.417 316.827V317.251C116.417 317.79 116.606 318.201 116.983 318.484C117.374 318.754 117.906 318.888 118.58 318.888ZM134.033 307.268C133.561 307.268 133.231 307.173 133.042 306.985C132.854 306.783 132.759 306.533 132.759 306.237V305.914C132.759 305.617 132.854 305.375 133.042 305.186C133.231 304.984 133.561 304.883 134.033 304.883C134.504 304.883 134.834 304.984 135.023 305.186C135.212 305.375 135.306 305.617 135.306 305.914V306.237C135.306 306.533 135.212 306.783 135.023 306.985C134.834 307.173 134.504 307.268 134.033 307.268ZM129.465 318.626H133.224V310.946H129.465V309.572H134.841V318.626H138.358V320H129.465V318.626ZM161.381 320.243C160.29 320.243 159.347 320.061 158.552 319.697C157.77 319.32 157.103 318.821 156.551 318.201L157.642 317.251C158.141 317.777 158.686 318.181 159.279 318.464C159.872 318.747 160.586 318.888 161.422 318.888C162.23 318.888 162.89 318.747 163.402 318.464C163.928 318.168 164.19 317.71 164.19 317.09C164.19 316.82 164.136 316.598 164.029 316.423C163.934 316.234 163.8 316.086 163.624 315.978C163.449 315.87 163.254 315.79 163.038 315.736C162.823 315.668 162.594 315.614 162.351 315.574L160.714 315.331C160.35 315.278 159.953 315.203 159.522 315.109C159.104 315.015 158.72 314.867 158.37 314.665C158.02 314.449 157.723 314.166 157.481 313.816C157.252 313.465 157.137 313.007 157.137 312.441C157.137 311.916 157.238 311.465 157.44 311.087C157.656 310.697 157.952 310.373 158.329 310.117C158.707 309.848 159.151 309.652 159.663 309.531C160.175 309.396 160.734 309.329 161.341 309.329C162.284 309.329 163.099 309.477 163.786 309.774C164.487 310.07 165.086 310.481 165.585 311.007L164.534 311.997C164.413 311.849 164.258 311.7 164.069 311.552C163.894 311.391 163.672 311.249 163.402 311.128C163.146 310.993 162.843 310.885 162.493 310.804C162.142 310.724 161.738 310.683 161.28 310.683C160.458 310.683 159.825 310.825 159.38 311.108C158.949 311.391 158.734 311.801 158.734 312.34C158.734 312.61 158.781 312.839 158.875 313.028C158.983 313.203 159.124 313.344 159.299 313.452C159.475 313.56 159.67 313.647 159.886 313.715C160.115 313.769 160.344 313.816 160.573 313.856L162.21 314.099C162.587 314.153 162.984 314.227 163.402 314.321C163.82 314.415 164.204 314.57 164.554 314.786C164.904 314.988 165.194 315.264 165.423 315.614C165.666 315.965 165.787 316.423 165.787 316.989C165.787 318.026 165.383 318.828 164.574 319.394C163.779 319.96 162.715 320.243 161.381 320.243ZM175.702 320C174.907 320 174.321 319.778 173.944 319.333C173.58 318.888 173.398 318.316 173.398 317.615V310.946H169.922V309.572H172.509C172.859 309.572 173.102 309.504 173.237 309.37C173.385 309.221 173.459 308.972 173.459 308.622V305.893H175.015V309.572H179.764V310.946H175.015V318.626H179.764V320H175.702ZM191.6 318.302H191.519C191.411 318.558 191.276 318.808 191.114 319.05C190.953 319.279 190.751 319.481 190.508 319.656C190.279 319.832 190.003 319.973 189.68 320.081C189.356 320.189 188.979 320.243 188.548 320.243C187.456 320.243 186.581 319.899 185.921 319.212C185.26 318.511 184.93 317.528 184.93 316.261V309.572H186.547V315.978C186.547 316.935 186.756 317.649 187.174 318.12C187.591 318.579 188.204 318.808 189.013 318.808C189.336 318.808 189.653 318.767 189.963 318.686C190.272 318.606 190.549 318.484 190.791 318.323C191.034 318.161 191.229 317.959 191.377 317.716C191.525 317.46 191.6 317.157 191.6 316.807V309.572H193.216V320H191.6V318.302ZM205.597 318.302H205.516C204.843 319.596 203.772 320.243 202.303 320.243C201.023 320.243 200.019 319.764 199.292 318.808C198.578 317.851 198.22 316.51 198.22 314.786C198.22 313.061 198.578 311.721 199.292 310.764C200.019 309.807 201.023 309.329 202.303 309.329C203.772 309.329 204.843 309.976 205.516 311.269H205.597V305.045H207.214V320H205.597V318.302ZM202.929 318.808C203.293 318.808 203.637 318.76 203.96 318.666C204.283 318.572 204.566 318.437 204.809 318.262C205.051 318.073 205.24 317.851 205.375 317.595C205.523 317.326 205.597 317.016 205.597 316.665V312.906C205.597 312.556 205.523 312.253 205.375 311.997C205.24 311.727 205.051 311.505 204.809 311.33C204.566 311.141 204.283 311 203.96 310.906C203.637 310.811 203.293 310.764 202.929 310.764C201.986 310.764 201.252 311.054 200.727 311.633C200.215 312.199 199.959 312.953 199.959 313.897V315.675C199.959 316.618 200.215 317.379 200.727 317.959C201.252 318.525 201.986 318.808 202.929 318.808ZM217.655 307.268C217.183 307.268 216.853 307.173 216.664 306.985C216.476 306.783 216.381 306.533 216.381 306.237V305.914C216.381 305.617 216.476 305.375 216.664 305.186C216.853 304.984 217.183 304.883 217.655 304.883C218.126 304.883 218.456 304.984 218.645 305.186C218.834 305.375 218.928 305.617 218.928 305.914V306.237C218.928 306.533 218.834 306.783 218.645 306.985C218.456 307.173 218.126 307.268 217.655 307.268ZM213.087 318.626H216.846V310.946H213.087V309.572H218.463V318.626H221.98V320H213.087V318.626ZM230.945 320.243C230.217 320.243 229.557 320.115 228.964 319.859C228.385 319.603 227.886 319.239 227.469 318.767C227.065 318.282 226.755 317.71 226.539 317.049C226.324 316.376 226.216 315.621 226.216 314.786C226.216 313.964 226.324 313.216 226.539 312.543C226.755 311.869 227.065 311.296 227.469 310.825C227.886 310.34 228.385 309.969 228.964 309.713C229.557 309.457 230.217 309.329 230.945 309.329C231.672 309.329 232.326 309.457 232.905 309.713C233.498 309.969 233.997 310.34 234.401 310.825C234.818 311.296 235.135 311.869 235.351 312.543C235.566 313.216 235.674 313.964 235.674 314.786C235.674 315.621 235.566 316.376 235.351 317.049C235.135 317.71 234.818 318.282 234.401 318.767C233.997 319.239 233.498 319.603 232.905 319.859C232.326 320.115 231.672 320.243 230.945 320.243ZM230.945 318.848C231.848 318.848 232.575 318.579 233.128 318.04C233.68 317.501 233.956 316.665 233.956 315.534V314.038C233.956 312.906 233.68 312.071 233.128 311.532C232.575 310.993 231.848 310.724 230.945 310.724C230.042 310.724 229.315 310.993 228.762 311.532C228.21 312.071 227.934 312.906 227.934 314.038V315.534C227.934 316.665 228.21 317.501 228.762 318.04C229.315 318.579 230.042 318.848 230.945 318.848Z" fill="white"/>
<rect x="2" width="596" height="64" fill="white"/>
<rect x="8" y="6" width="78" height="52" fill="black"/>
<rect x="361" y="6" width="231" height="52" fill="black"/>
<path d="M382.656 20.5927C382.656 20.255 382.755 19.9877 382.952 19.7907C383.177 19.5656 383.458 19.453 383.796 19.453H392.913C393.251 19.453 393.518 19.5656 393.715 19.7907C393.94 19.9877 394.053 20.255 394.053 20.5927V21.7323H382.656V20.5927ZM382.656 22.872C382.656 23.2097 382.544 23.4911 382.318 23.7162C382.121 23.9132 381.854 24.0117 381.516 24.0117H380.377V22.872C380.377 22.5343 380.475 22.267 380.672 22.07C380.897 21.8449 381.179 21.7323 381.516 21.7323H382.656V22.872ZM395.193 24.0117C394.855 24.0117 394.573 23.9132 394.348 23.7162C394.151 23.4911 394.053 23.2097 394.053 22.872V21.7323H395.15C395.488 21.7323 395.755 21.8449 395.952 22.07C396.177 22.267 396.29 22.5343 396.29 22.872V24.0117H395.193ZM378.14 25.1514C378.14 24.8137 378.238 24.5463 378.435 24.3494C378.66 24.1242 378.942 24.0117 379.279 24.0117H380.377V30.8075H378.14V25.1514ZM397.43 24.0117C397.767 24.0117 398.035 24.1242 398.232 24.3494C398.457 24.5463 398.569 24.8137 398.569 25.1514V29.6678C398.569 30.0055 398.457 30.2869 398.232 30.512C398.035 30.709 397.767 30.8075 397.43 30.8075H396.29V24.0117H397.43ZM396.29 31.9472C396.29 32.2848 396.177 32.5662 395.952 32.7914C395.755 32.9883 395.488 33.0868 395.15 33.0868H394.053V31.9472C394.053 31.6095 394.151 31.3422 394.348 31.1452C394.573 30.92 394.855 30.8075 395.193 30.8075H396.29V31.9472ZM394.053 34.2265C394.053 34.5642 393.94 34.8456 393.715 35.0707C393.518 35.2677 393.251 35.3662 392.913 35.3662H391.774V34.2265C391.774 33.8888 391.872 33.6215 392.069 33.4245C392.294 33.1994 392.575 33.0868 392.913 33.0868H394.053V34.2265ZM391.774 36.5058C391.774 36.8435 391.661 37.1249 391.436 37.35C391.239 37.547 390.972 37.6455 390.634 37.6455H389.494V36.5058C389.494 36.1682 389.593 35.9008 389.79 35.7038C390.015 35.4787 390.296 35.3662 390.634 35.3662H391.774V36.5058ZM389.494 38.7852C389.494 39.1229 389.382 39.4043 389.156 39.6294C388.96 39.8264 388.692 39.9249 388.354 39.9249H387.215V38.7852C387.215 38.4475 387.313 38.1802 387.51 37.9832C387.735 37.7581 388.017 37.6455 388.354 37.6455H389.494V38.7852ZM387.215 41.0223C387.215 41.36 387.102 41.6414 386.877 41.8665C386.68 42.0635 386.413 42.162 386.075 42.162H384.935V41.0645C384.935 40.7268 385.034 40.4595 385.231 40.2625C385.456 40.0374 385.737 39.9249 386.075 39.9249H387.215V41.0223ZM384.935 43.3016C384.935 43.6393 384.823 43.9207 384.598 44.1459C384.401 44.3428 384.133 44.4413 383.796 44.4413H382.656V43.3016C382.656 42.964 382.755 42.6966 382.952 42.4997C383.177 42.2745 383.458 42.162 383.796 42.162H384.935V43.3016ZM380.377 45.581C380.377 45.2433 380.475 44.976 380.672 44.779C380.897 44.5539 381.179 44.4413 381.516 44.4413H382.656V46.7207H380.377V45.581ZM380.377 47.8603C380.377 48.198 380.264 48.4794 380.039 48.7045C379.842 48.9015 379.575 49 379.237 49H378.14V46.7207H380.377V47.8603ZM383.796 49C383.458 49 383.177 48.9015 382.952 48.7045C382.755 48.4794 382.656 48.198 382.656 47.8603V46.7207H398.569V49H383.796ZM441.289 21.7323V20.5927C441.289 20.255 441.388 19.9877 441.585 19.7907C441.81 19.5656 442.091 19.453 442.429 19.453H451.504C451.842 19.453 452.109 19.5656 452.306 19.7907C452.531 19.9877 452.644 20.255 452.644 20.5927V21.7323H441.289ZM439.01 24.0117V22.872C439.01 22.5343 439.109 22.267 439.306 22.07C439.531 21.8449 439.812 21.7323 440.15 21.7323H441.289V22.872C441.289 23.2097 441.177 23.4911 440.952 23.7162C440.755 23.9132 440.487 24.0117 440.15 24.0117H439.01ZM452.644 21.7323H453.784C454.121 21.7323 454.389 21.8449 454.586 22.07C454.811 22.267 454.923 22.5343 454.923 22.872V24.0117H453.784C453.446 24.0117 453.165 23.9132 452.939 23.7162C452.742 23.4911 452.644 23.2097 452.644 22.872V21.7323ZM439.01 39.9249H437.87C437.533 39.9249 437.251 39.8264 437.026 39.6294C436.829 39.4043 436.731 39.1229 436.731 38.7852V25.1514C436.731 24.8137 436.829 24.5463 437.026 24.3494C437.251 24.1242 437.533 24.0117 437.87 24.0117H439.01V39.9249ZM454.923 26.291V24.0117H456.063C456.401 24.0117 456.668 24.1102 456.865 24.3071C457.09 24.5041 457.203 24.7855 457.203 25.1514C457.203 25.489 457.09 25.7704 456.865 25.9955C456.668 26.1925 456.401 26.291 456.063 26.291H454.923ZM452.644 28.5281V27.4307C452.644 27.093 452.742 26.8257 452.939 26.6287C453.165 26.4036 453.446 26.291 453.784 26.291H454.923V28.5281H452.644ZM450.365 30.8075V29.6678C450.365 29.3301 450.463 29.0628 450.66 28.8658C450.885 28.6407 451.167 28.5281 451.504 28.5281H452.644V29.6678C452.644 30.0055 452.531 30.2869 452.306 30.512C452.109 30.709 451.842 30.8075 451.504 30.8075H450.365ZM454.923 44.4413V28.5281H456.063C456.401 28.5281 456.668 28.6407 456.865 28.8658C457.09 29.0628 457.203 29.3301 457.203 29.6678V43.3016C457.203 43.6393 457.09 43.9207 456.865 44.1459C456.668 44.3428 456.401 44.4413 456.063 44.4413H454.923ZM448.085 33.0868V31.9472C448.085 31.6095 448.184 31.3422 448.381 31.1452C448.606 30.92 448.887 30.8075 449.225 30.8075H450.365V31.9472C450.365 32.2848 450.252 32.5662 450.027 32.7914C449.83 32.9883 449.563 33.0868 449.225 33.0868H448.085ZM445.806 35.3662V34.2265C445.806 33.8888 445.904 33.6215 446.101 33.4245C446.327 33.1994 446.608 33.0868 446.946 33.0868H448.085V34.2265C448.085 34.5642 447.973 34.8456 447.748 35.0707C447.551 35.2677 447.283 35.3662 446.946 35.3662H445.806ZM443.569 37.6455V36.5058C443.569 36.1682 443.667 35.9008 443.864 35.7038C444.089 35.4787 444.371 35.3662 444.708 35.3662H445.806V36.5058C445.806 36.8435 445.693 37.1249 445.468 37.35C445.271 37.547 445.004 37.6455 444.666 37.6455H443.569ZM441.289 39.9249V38.7852C441.289 38.4475 441.388 38.1802 441.585 37.9832C441.81 37.7581 442.091 37.6455 442.429 37.6455H443.569V38.7852C443.569 39.1229 443.456 39.4043 443.231 39.6294C443.034 39.8264 442.767 39.9249 442.429 39.9249H441.289ZM439.01 42.162V39.9249H441.289V41.0223C441.289 41.36 441.177 41.6414 440.952 41.8665C440.755 42.0635 440.487 42.162 440.15 42.162H439.01ZM436.731 43.3016C436.731 42.964 436.829 42.6966 437.026 42.4997C437.251 42.2745 437.533 42.162 437.87 42.162H439.01V44.4413H437.87C437.533 44.4413 437.251 44.3428 437.026 44.1459C436.829 43.9207 436.731 43.6393 436.731 43.3016ZM441.289 46.7207H440.15C439.812 46.7207 439.531 46.6222 439.306 46.4252C439.109 46.2001 439.01 45.9187 439.01 45.581V44.4413H440.15C440.487 44.4413 440.755 44.5539 440.952 44.779C441.177 44.976 441.289 45.2433 441.289 45.581V46.7207ZM454.923 44.4413V45.581C454.923 45.9187 454.811 46.2001 454.586 46.4252C454.389 46.6222 454.121 46.7207 453.784 46.7207H452.644V45.581C452.644 45.2433 452.742 44.976 452.939 44.779C453.165 44.5539 453.446 44.4413 453.784 44.4413H454.923ZM441.289 46.7207H452.644V47.8603C452.644 48.198 452.531 48.4794 452.306 48.7045C452.109 48.9015 451.842 49 451.504 49H442.429C442.091 49 441.81 48.9015 441.585 48.7045C441.388 48.4794 441.289 48.198 441.289 47.8603V46.7207ZM499.88 20.5927C499.88 20.255 499.978 19.9877 500.175 19.7907C500.4 19.5656 500.682 19.453 501.019 19.453H510.137C510.474 19.453 510.742 19.5656 510.939 19.7907C511.164 19.9877 511.276 20.255 511.276 20.5927V21.7323H499.88V20.5927ZM499.88 22.872C499.88 23.2097 499.767 23.4911 499.542 23.7162C499.345 23.9132 499.078 24.0117 498.74 24.0117H497.6V22.872C497.6 22.5343 497.699 22.267 497.896 22.07C498.121 21.8449 498.402 21.7323 498.74 21.7323H499.88V22.872ZM512.416 24.0117C512.078 24.0117 511.797 23.9132 511.572 23.7162C511.375 23.4911 511.276 23.2097 511.276 22.872V21.7323H512.374C512.711 21.7323 512.979 21.8449 513.176 22.07C513.401 22.267 513.513 22.5343 513.513 22.872V24.0117H512.416ZM495.363 25.1514C495.363 24.8137 495.462 24.5463 495.659 24.3494C495.884 24.1242 496.165 24.0117 496.503 24.0117H497.6V30.8075H495.363V25.1514ZM514.653 24.0117C514.991 24.0117 515.258 24.1242 515.455 24.3494C515.68 24.5463 515.793 24.8137 515.793 25.1514V29.6678C515.793 30.0055 515.68 30.2869 515.455 30.512C515.258 30.709 514.991 30.8075 514.653 30.8075H513.513V24.0117H514.653ZM513.513 31.9472C513.513 32.2848 513.401 32.5662 513.176 32.7914C512.979 32.9883 512.711 33.0868 512.374 33.0868H511.276V31.9472C511.276 31.6095 511.375 31.3422 511.572 31.1452C511.797 30.92 512.078 30.8075 512.416 30.8075H513.513V31.9472ZM511.276 34.2265C511.276 34.5642 511.164 34.8456 510.939 35.0707C510.742 35.2677 510.474 35.3662 510.137 35.3662H508.997V34.2265C508.997 33.8888 509.095 33.6215 509.292 33.4245C509.518 33.1994 509.799 33.0868 510.137 33.0868H511.276V34.2265ZM508.997 36.5058C508.997 36.8435 508.884 37.1249 508.659 37.35C508.462 37.547 508.195 37.6455 507.857 37.6455H506.718V36.5058C506.718 36.1682 506.816 35.9008 507.013 35.7038C507.238 35.4787 507.52 35.3662 507.857 35.3662H508.997V36.5058ZM506.718 38.7852C506.718 39.1229 506.605 39.4043 506.38 39.6294C506.183 39.8264 505.916 39.9249 505.578 39.9249H504.438V38.7852C504.438 38.4475 504.537 38.1802 504.734 37.9832C504.959 37.7581 505.24 37.6455 505.578 37.6455H506.718V38.7852ZM504.438 41.0223C504.438 41.36 504.326 41.6414 504.101 41.8665C503.904 42.0635 503.636 42.162 503.299 42.162H502.159V41.0645C502.159 40.7268 502.257 40.4595 502.454 40.2625C502.68 40.0374 502.961 39.9249 503.299 39.9249H504.438V41.0223ZM502.159 43.3016C502.159 43.6393 502.046 43.9207 501.821 44.1459C501.624 44.3428 501.357 44.4413 501.019 44.4413H499.88V43.3016C499.88 42.964 499.978 42.6966 500.175 42.4997C500.4 42.2745 500.682 42.162 501.019 42.162H502.159V43.3016ZM497.6 45.581C497.6 45.2433 497.699 44.976 497.896 44.779C498.121 44.5539 498.402 44.4413 498.74 44.4413H499.88V46.7207H497.6V45.581ZM497.6 47.8603C497.6 48.198 497.488 48.4794 497.263 48.7045C497.066 48.9015 496.798 49 496.461 49H495.363V46.7207H497.6V47.8603ZM501.019 49C500.682 49 500.4 48.9015 500.175 48.7045C499.978 48.4794 499.88 48.198 499.88 47.8603V46.7207H515.793V49H501.019ZM558.513 20.5927C558.513 20.255 558.611 19.9877 558.808 19.7907C559.033 19.5656 559.315 19.453 559.653 19.453H568.728C569.065 19.453 569.333 19.5656 569.53 19.7907C569.755 19.9877 569.867 20.255 569.867 20.5927V21.7323H558.513V20.5927ZM571.007 24.0117C570.669 24.0117 570.388 23.9132 570.163 23.7162C569.966 23.4911 569.867 23.2097 569.867 22.872V21.7323H571.007C571.345 21.7323 571.612 21.8449 571.809 22.07C572.034 22.267 572.147 22.5343 572.147 22.872V24.0117H571.007ZM558.513 22.872C558.513 23.2097 558.4 23.4911 558.175 23.7162C557.978 23.9132 557.711 24.0117 557.373 24.0117H556.234V22.872C556.234 22.5343 556.332 22.267 556.529 22.07C556.754 21.8449 557.036 21.7323 557.373 21.7323H558.513V22.872ZM553.954 25.1514C553.954 24.8137 554.053 24.5463 554.25 24.3494C554.475 24.1242 554.756 24.0117 555.094 24.0117H556.234V35.3662H555.094C554.756 35.3662 554.475 35.2677 554.25 35.0707C554.053 34.8456 553.954 34.5642 553.954 34.2265V25.1514ZM573.286 24.0117C573.624 24.0117 573.891 24.1242 574.088 24.3494C574.313 24.5463 574.426 24.8137 574.426 25.1514V26.291H572.147V24.0117H573.286ZM560.792 31.9472C560.792 31.6095 560.891 31.3422 561.088 31.1452C561.313 30.92 561.594 30.8075 561.932 30.8075H568.728C569.065 30.8075 569.333 30.92 569.53 31.1452C569.755 31.3422 569.867 31.6095 569.867 31.9472V33.0868H560.792V31.9472ZM560.792 34.2265C560.792 34.5642 560.68 34.8456 560.455 35.0707C560.258 35.2677 559.99 35.3662 559.653 35.3662H558.513V34.2265C558.513 33.8888 558.611 33.6215 558.808 33.4245C559.033 33.1994 559.315 33.0868 559.653 33.0868H560.792V34.2265ZM571.007 35.3662C570.669 35.3662 570.388 35.2677 570.163 35.0707C569.966 34.8456 569.867 34.5642 569.867 34.2265V33.0868H571.007C571.345 33.0868 571.612 33.1994 571.809 33.4245C572.034 33.6215 572.147 33.8888 572.147 34.2265V35.3662H571.007ZM558.513 36.5058C558.513 36.8435 558.4 37.1249 558.175 37.35C557.978 37.547 557.711 37.6455 557.373 37.6455H556.234V35.3662H558.513V36.5058ZM573.286 35.3662C573.624 35.3662 573.891 35.4787 574.088 35.7038C574.313 35.9008 574.426 36.1682 574.426 36.5058V43.3016C574.426 43.6393 574.313 43.9207 574.088 44.1459C573.891 44.3428 573.624 44.4413 573.286 44.4413H572.147V35.3662H573.286ZM553.954 38.7852C553.954 38.4475 554.053 38.1802 554.25 37.9832C554.475 37.7581 554.756 37.6455 555.094 37.6455H556.234V44.4413H555.094C554.756 44.4413 554.475 44.3428 554.25 44.1459C554.053 43.9207 553.954 43.6393 553.954 43.3016V38.7852ZM557.373 46.7207C557.036 46.7207 556.754 46.6222 556.529 46.4252C556.332 46.2001 556.234 45.9187 556.234 45.581V44.4413H557.373C557.711 44.4413 557.978 44.5539 558.175 44.779C558.4 44.976 558.513 45.2433 558.513 45.581V46.7207H557.373ZM572.147 45.581C572.147 45.9187 572.034 46.2001 571.809 46.4252C571.612 46.6222 571.345 46.7207 571.007 46.7207H569.867V45.581C569.867 45.2433 569.966 44.976 570.163 44.779C570.388 44.5539 570.669 44.4413 571.007 44.4413H572.147V45.581ZM559.653 49C559.315 49 559.033 48.9015 558.808 48.7045C558.611 48.4794 558.513 48.198 558.513 47.8603V46.7207H569.867V47.8603C569.867 48.198 569.755 48.4794 569.53 48.7045C569.333 48.9015 569.065 49 568.728 49H559.653Z" fill="white"/>
<path d="M379.515 233.162C376.139 228.977 371.953 225.527 367.201 223.012C357.391 217.841 345.706 217.66 335.737 222.52C330.798 224.915 326.414 228.32 322.862 232.511C319.322 236.697 316.575 241.489 314.757 246.659C311.081 257.064 311.081 268.415 314.757 278.82C316.575 283.992 319.322 288.789 322.862 292.975C326.414 297.161 330.798 300.565 335.737 302.966C345.706 307.82 357.392 307.639 367.201 302.473C371.953 299.959 376.139 296.504 379.515 292.323C386.131 283.89 389.727 273.486 389.727 262.768C389.727 252.051 386.131 241.647 379.515 233.218V233.162ZM388.215 258.118V258.112C387.779 259.358 387.122 260.508 386.272 261.511C384.562 263.572 382.019 264.756 379.339 264.739C376.689 264.649 374.219 263.374 372.61 261.262C369.263 257.008 369.263 251.015 372.61 246.762C373.551 245.572 374.774 244.632 376.162 244.02C375.522 244.451 374.95 244.966 374.451 245.561C371.223 249.435 371.223 255.065 374.451 258.939C375.958 260.922 378.309 262.077 380.795 262.066C383.282 262.055 385.621 260.877 387.111 258.883C387.53 258.373 387.887 257.818 388.181 257.229C388.153 257.535 388.198 257.824 388.226 258.112L388.215 258.118ZM388.011 256.538V256.532C387.677 257.285 387.241 257.988 386.72 258.622C385.292 260.355 383.162 261.358 380.92 261.364C378.699 261.284 376.632 260.219 375.278 258.464C372.491 254.884 372.491 249.877 375.278 246.297C376.043 245.306 377.04 244.513 378.178 243.992C377.646 244.36 377.159 244.785 376.728 245.266C374.026 248.557 374.026 253.303 376.728 256.594C378.065 258.191 380.042 259.109 382.12 259.103C384.165 259.03 386.074 258.061 387.326 256.447C387.512 256.203 387.682 255.954 387.835 255.694C387.92 255.971 387.983 256.243 388.022 256.532L388.011 256.538ZM371.8 246.15C367.988 250.755 367.988 257.416 371.8 262.014C373.613 264.285 376.371 265.588 379.277 265.548C382.182 265.509 384.907 264.132 386.663 261.81C387.354 260.96 387.92 260.015 388.345 259.001C388.35 259.108 388.35 259.222 388.345 259.335C387.841 261.244 386.923 263.028 385.66 264.551C383.638 267.072 380.568 268.522 377.334 268.471C374.105 268.426 371.075 266.885 369.132 264.308C365.117 259.148 365.117 251.92 369.132 246.761C371.086 244.229 374.066 242.699 377.266 242.586C377.679 242.558 378.098 242.558 378.512 242.586C375.889 242.835 373.471 244.115 371.8 246.149L371.8 246.15ZM384.329 270.408H384.324C381.531 273.948 377.243 275.982 372.735 275.914C368.226 275.846 364.007 273.682 361.316 270.063C355.748 262.903 355.748 252.878 361.316 245.718C364.035 242.207 368.17 240.077 372.61 239.918C373.46 239.901 374.31 239.964 375.148 240.105C371.002 240.105 367.071 241.946 364.42 245.135C358.966 251.694 358.966 261.21 364.42 267.768C367.009 271.025 370.957 272.894 375.114 272.832C379.271 272.775 383.163 270.793 385.66 267.468C386.652 266.239 387.462 264.88 388.068 263.418C387.331 265.99 386.057 268.374 384.324 270.408L384.329 270.408ZM387.75 266.307C386.872 269.23 385.388 271.938 383.4 274.254C380.087 278.395 375.046 280.774 369.739 280.694C364.437 280.615 359.47 278.089 356.28 273.846C353.097 269.74 351.37 264.693 351.37 259.5C351.37 254.306 353.097 249.259 356.28 245.153C359.503 240.968 364.431 238.453 369.71 238.294C370.786 238.271 371.857 238.362 372.916 238.555H372.61C367.682 238.538 363.009 240.724 359.866 244.513C356.745 248.28 355.034 253.015 355.034 257.903C355.034 262.796 356.745 267.532 359.866 271.298C363.015 275.071 367.693 277.24 372.61 277.212C377.458 277.047 381.978 274.736 384.952 270.902C386.096 269.514 387.036 267.962 387.75 266.308L387.75 266.307ZM369.711 236.696C363.888 236.656 358.349 239.234 354.634 243.714C350.958 248.154 348.947 253.739 348.947 259.499C348.947 265.26 350.958 270.845 354.634 275.285C358.36 279.754 363.889 282.326 369.711 282.303C375.409 282.093 380.722 279.369 384.211 274.86C385.452 273.325 386.488 271.632 387.298 269.831C386.267 273.02 384.613 275.976 382.444 278.531C378.405 283.396 372.407 286.2 366.087 286.171C359.89 285.945 354.119 282.966 350.341 278.049C346.563 273.195 344.513 267.219 344.513 261.062C344.513 254.911 346.563 248.936 350.341 244.076C354.124 239.17 359.896 236.203 366.087 235.97C368.454 235.908 370.816 236.293 373.048 237.103C371.949 236.854 370.833 236.718 369.712 236.695L369.711 236.696ZM380.932 243.555C378.643 244.756 377.233 247.163 377.307 249.746C377.108 253.235 379.753 256.231 383.237 256.464C384.947 256.424 386.55 255.614 387.587 254.26C387.66 254.595 387.734 254.912 387.791 255.246C387.598 255.58 387.372 255.897 387.128 256.203C385.905 257.67 384.092 258.52 382.183 258.52C380.303 258.446 378.553 257.546 377.408 256.056C375.052 253.037 375.052 248.795 377.408 245.776C378.252 244.688 379.425 243.901 380.745 243.527L380.932 243.555ZM377.307 241.629C373.755 241.635 370.385 243.227 368.131 245.979C363.492 251.559 363.492 259.653 368.131 265.231C370.391 267.966 373.761 269.535 377.307 269.513C380.79 269.399 384.036 267.74 386.171 264.987C386.816 264.194 387.372 263.328 387.819 262.404C387.179 264.103 386.25 265.678 385.066 267.06C382.699 270.034 379.085 271.739 375.279 271.682C371.478 271.625 367.916 269.813 365.639 266.771C360.937 260.716 360.937 252.248 365.639 246.195C367.933 243.227 371.427 241.425 375.177 241.278C376.525 241.255 377.873 241.465 379.153 241.89C378.53 241.748 377.901 241.663 377.267 241.629L377.307 241.629ZM375.726 236.611C372.758 235.031 369.45 234.17 366.086 234.102C359.216 234.079 352.691 237.126 348.295 242.411C343.939 247.662 341.554 254.272 341.554 261.097C341.554 267.916 343.939 274.526 348.295 279.778C352.69 285.057 359.215 288.092 366.086 288.058C369.451 287.99 372.753 287.135 375.726 285.566C378.649 283.997 381.226 281.856 383.299 279.273C383.877 278.548 384.415 277.823 384.925 277.014L384.919 277.008C383.9 278.985 382.653 280.842 381.209 282.536C376.451 288.274 369.371 291.587 361.911 291.553C358.28 291.468 354.723 290.528 351.529 288.812C348.351 287.107 345.553 284.773 343.304 281.953C338.841 276.215 336.417 269.151 336.417 261.885C336.417 254.618 338.841 247.555 343.304 241.817C345.553 238.996 348.351 236.662 351.529 234.957C354.729 233.264 358.286 232.341 361.911 232.261C367.479 232.205 372.899 234.057 377.266 237.512C376.757 237.178 376.252 236.86 375.726 236.611L375.726 236.611ZM373.291 233.003C366.143 229.203 357.608 229.05 350.323 232.578C346.709 234.312 343.498 236.781 340.898 239.828C335.755 246.036 332.94 253.841 332.94 261.902C332.94 269.963 335.755 277.766 340.898 283.97C343.498 287.023 346.709 289.492 350.323 291.22C357.607 294.749 366.142 294.596 373.291 290.801C376.746 288.954 379.788 286.428 382.24 283.375C382.75 282.735 383.214 282.084 383.69 281.415C382.591 283.375 381.311 285.227 379.861 286.944C374.259 293.684 365.933 297.564 357.171 297.513C352.912 297.411 348.737 296.318 344.976 294.324C341.244 292.313 337.959 289.572 335.319 286.258C330.074 279.524 327.225 271.231 327.225 262.696C327.225 254.16 330.074 245.868 335.319 239.133C337.959 235.825 341.244 233.084 344.976 231.073C348.737 229.085 352.912 228.003 357.171 227.913C363.809 227.833 370.267 230.082 375.426 234.262C374.735 233.798 374.027 233.367 373.291 232.971L373.291 233.003ZM378.309 291.292C374.99 295.194 370.889 298.366 366.273 300.598C357.052 305.101 346.228 304.92 337.159 300.122C332.736 297.755 328.833 294.521 325.69 290.607C319.471 282.649 316.089 272.838 316.089 262.739C316.089 252.64 319.471 242.83 325.69 234.871C328.833 230.957 332.736 227.723 337.159 225.355C346.228 220.558 357.052 220.382 366.273 224.88C370.889 227.111 374.99 230.283 378.309 234.186C378.819 234.78 379.295 235.404 379.759 236.015C377.131 233.07 374.004 230.617 370.521 228.765C366.403 226.585 361.832 225.395 357.171 225.299C352.482 225.214 347.843 226.222 343.611 228.244C339.369 230.289 335.597 233.206 332.55 236.797C329.502 240.377 327.14 244.489 325.571 248.918C322.411 257.833 322.411 267.557 325.571 276.468C327.14 280.903 329.502 285.009 332.55 288.594C335.597 292.197 339.363 295.119 343.611 297.176C347.859 299.192 352.527 300.183 357.228 300.076C361.89 299.979 366.461 298.795 370.584 296.609C374.067 294.757 377.194 292.304 379.816 289.359C379.295 290.044 378.819 290.667 378.31 291.262L378.309 291.292Z" fill="white"/>
<path d="M71.8259 32.4159C68.9029 32.3654 66.339 32.3149 64.084 32.2223C61.1385 28.2699 57.3911 24.9879 53.0824 22.5924C57.464 25.1338 60.774 28.6234 62.4909 32.1439C51.7191 31.5464 48.8467 29.5436 47.9065 20.295C49.7075 20.8756 51.4438 21.6443 53.082 22.5924C51.4129 21.6274 49.6738 20.7831 47.8841 20.065C47.5811 16.9345 47.497 13.0268 47.41 8C47.3231 12.8052 47.2389 16.6174 46.964 19.7059C38.714 16.6455 31.1654 17.2065 28.6298 21.5658C26.9916 24.4382 27.8247 28.3011 30.4756 32.2226C28.2848 32.3096 25.8163 32.3601 23 32.4106C25.923 32.4611 28.4869 32.5116 30.7419 32.6041C33.6845 36.5566 37.4324 39.8416 41.7375 42.2401C37.3559 39.6986 34.0459 36.2091 32.329 32.6885C43.1008 33.286 45.9732 35.2889 46.9134 44.5375C45.1124 43.9568 43.3761 43.1882 41.7379 42.24C43.407 43.205 45.1461 44.0493 46.9358 44.7675C47.2388 47.898 47.3229 51.8421 47.4099 56.8241C47.4968 52.0189 47.581 48.2067 47.8559 45.1181C56.1059 48.1786 63.6545 47.6176 66.1901 43.2583C67.8283 40.3859 66.9952 36.523 64.3443 32.6014C66.5323 32.5173 69.0036 32.4668 71.8259 32.4163V32.4159ZM32.1073 32.1578C30.7721 29.0834 30.6711 26.0173 32.0708 23.5404C34.4552 19.4112 40.4722 18.1826 46.9497 19.9862C46.038 29.5438 43.1431 31.5689 32.099 32.1578L32.1073 32.1578ZM62.7644 41.2773C60.38 45.4065 54.363 46.6352 47.8856 44.8679C48.7804 35.2882 51.6753 33.2631 62.7189 32.6743C64.0542 35.7487 64.1776 38.8148 62.7554 41.2773H62.7644Z" fill="white"/>
<path d="M106.229 49L96.6636 16.7454H100.776L105.351 32.8727L108.817 45.0722H109.048L112.514 32.8727L117.088 16.7454H121.062L111.497 49H106.229ZM119.658 49V45.9039H127.699V19.8415H119.658V16.7454H139.621V19.8415H131.58V45.9039H139.621V49H119.658ZM140.619 16.7454H151.571C154.344 16.7454 156.516 17.5002 158.087 19.0097C159.658 20.5192 160.443 22.5371 160.443 25.0632C160.443 27.004 159.966 28.529 159.011 29.638C158.087 30.747 156.885 31.5326 155.407 31.9947V32.1333C157.224 32.5646 158.718 33.381 159.889 34.5825C161.06 35.7531 161.645 37.4629 161.645 39.7118C161.645 41.0057 161.429 42.2225 160.998 43.3624C160.567 44.5022 159.951 45.488 159.15 46.3198C158.379 47.1516 157.455 47.8139 156.377 48.3068C155.33 48.7689 154.19 49 152.957 49H140.619V16.7454ZM151.802 45.6267C153.589 45.6267 154.991 45.2262 156.007 44.4252C157.024 43.6242 157.532 42.392 157.532 40.7284V38.8338C157.532 37.201 157.024 35.9842 156.007 35.1832C154.991 34.3514 153.589 33.9355 151.802 33.9355H144.501V45.6267H151.802ZM151.155 30.747C152.788 30.747 154.066 30.3928 154.991 29.6842C155.915 28.9449 156.377 27.8358 156.377 26.3571V24.5549C156.377 23.0762 155.915 21.9671 154.991 21.2278C154.066 20.4884 152.788 20.1188 151.155 20.1188H144.501V30.747H151.155ZM161.488 49V16.7454H181.359V20.1188H165.37V30.9781H180.804V34.3514H165.37V45.6267H181.359V49H161.488ZM190.86 14.8046H196.821L191.507 27.6048H188.411L190.86 14.8046ZM206.414 21.8285H206.091V49H202.579V16.7454H208.078L219.076 43.9169H219.399V16.7454H222.911V49H217.412L206.414 21.8285ZM232.413 14.8046H238.374L233.06 27.6048H229.964L232.413 14.8046ZM244.502 16.7454H255.453C258.226 16.7454 260.398 17.5002 261.969 19.0097C263.54 20.5192 264.326 22.5371 264.326 25.0632C264.326 27.004 263.848 28.529 262.893 29.638C261.969 30.747 260.768 31.5326 259.289 31.9947V32.1333C261.106 32.5646 262.601 33.381 263.771 34.5825C264.942 35.7531 265.527 37.4629 265.527 39.7118C265.527 41.0057 265.312 42.2225 264.88 43.3624C264.449 44.5022 263.833 45.488 263.032 46.3198C262.262 47.1516 261.337 47.8139 260.259 48.3068C259.212 48.7689 258.072 49 256.84 49H244.502V16.7454ZM255.684 45.6267C257.471 45.6267 258.873 45.2262 259.89 44.4252C260.906 43.6242 261.414 42.392 261.414 40.7284V38.8338C261.414 37.201 260.906 35.9842 259.89 35.1832C258.873 34.3514 257.471 33.9355 255.684 33.9355H248.383V45.6267H255.684ZM255.037 30.747C256.67 30.747 257.949 30.3928 258.873 29.6842C259.797 28.9449 260.259 27.8358 260.259 26.3571V24.5549C260.259 23.0762 259.797 21.9671 258.873 21.2278C257.949 20.4884 256.67 20.1188 255.037 20.1188H248.383V30.747H255.037ZM268.79 16.7454V36.1074C268.79 37.6785 268.836 39.0803 268.929 40.3125C269.021 41.5448 269.268 42.6076 269.668 43.501C270.069 44.3636 270.685 45.0259 271.516 45.488C272.379 45.9501 273.565 46.1812 275.075 46.1812C276.584 46.1812 277.755 45.9501 278.587 45.488C279.449 45.0259 280.081 44.3636 280.481 43.501C280.882 42.6076 281.128 41.5448 281.221 40.3125C281.313 39.0803 281.359 37.6785 281.359 36.1074V16.7454H285.241V35.1832C285.241 37.5861 285.118 39.681 284.871 41.4678C284.655 43.2546 284.178 44.7487 283.439 45.9501C282.73 47.1516 281.698 48.0604 280.343 48.6765C279.018 49.2619 277.262 49.5545 275.075 49.5545C272.887 49.5545 271.116 49.2619 269.76 48.6765C268.436 48.0604 267.404 47.1516 266.664 45.9501C265.956 44.7487 265.478 43.2546 265.232 41.4678C265.016 39.681 264.908 37.5861 264.908 35.1832V16.7454H268.79ZM285.87 49V45.9039H293.91V19.8415H285.87V16.7454H305.832V19.8415H297.792V45.9039H305.832V49H285.87ZM308.31 49V16.7454H312.191V45.6267H327.487V49H308.31ZM327.931 16.7454H336.942C340.885 16.7454 343.827 18.1009 345.768 20.8119C347.709 23.5229 348.679 27.5432 348.679 32.8727C348.679 38.2023 347.709 42.2225 345.768 44.9335C343.827 47.6445 340.885 49 336.942 49H327.931V16.7454ZM336.757 45.6267C339.345 45.6267 341.286 44.7333 342.579 42.9465C343.904 41.1597 344.566 38.6336 344.566 35.368V30.3774C344.566 27.1119 343.904 24.5857 342.579 22.7989C341.286 21.0121 339.345 20.1188 336.757 20.1188H331.813V45.6267H336.757Z" fill="black"/>
<path d="M4 189H311" stroke="white" stroke-width="4" stroke-linecap="square"/>
<path d="M2 199L2 260" stroke="white" stroke-width="4" stroke-linecap="square"/>
<path d="M270 199L270 260" stroke="white" stroke-width="4" stroke-linecap="square"/>
<path d="M270 289L270 336" stroke="white" stroke-width="4" stroke-linecap="square"/>
<path d="M432 289L432 336" stroke="white" stroke-width="4" stroke-linecap="square"/>
<path d="M715 336L372 336" stroke="white" stroke-width="4" stroke-linecap="square"/>
<path d="M432 199L432 260" stroke="white" stroke-width="4" stroke-linecap="square"/>
<path d="M343 189L421 189" stroke="white" stroke-width="4" stroke-linecap="square"/>
<path d="M95 289H23" stroke="white" stroke-width="4" stroke-linecap="square"/>
<path d="M95 289H12" stroke="white" stroke-width="4" stroke-linecap="square"/>
<path d="M72 336H12" stroke="white" stroke-width="4" stroke-linecap="square"/>
<path d="M126 336H86" stroke="white" stroke-width="4" stroke-linecap="square"/>
<path d="M163 336H139" stroke="white" stroke-width="4" stroke-linecap="square"/>
<path d="M189 336H177" stroke="white" stroke-width="4" stroke-linecap="square"/>
<path d="M254 336H201" stroke="white" stroke-width="4" stroke-linecap="square"/>
<path d="M2 329L2 299" stroke="white" stroke-width="4" stroke-linecap="square"/>
<path d="M139 289H112" stroke="white" stroke-width="4" stroke-linecap="square"/>
<path d="M173 289H153" stroke="white" stroke-width="4" stroke-linecap="square"/>
<path d="M204 289H189" stroke="white" stroke-width="4" stroke-linecap="square"/>
<path d="M254 289H217" stroke="white" stroke-width="4" stroke-linecap="square"/>
<path d="M324 336H287" stroke="white" stroke-width="4" stroke-linecap="square"/>
<line x1="260" y1="97.5" x2="292" y2="97.5" stroke="white"/>
</svg>
