<svg width="400" height="198" viewBox="0 0 400 198" fill="none" xmlns="http://www.w3.org/2000/svg">
<rect x="1" y="1" width="398" height="195.584" stroke="black" stroke-width="2"/>
<path d="M15.6884 64.1963L14.9907 61.8429H12.0933L11.3955 64.1963H10.3666L12.8974 55.9415H14.2102L16.741 64.1963H15.6884ZM13.5952 56.9941H13.4888L12.3298 60.9795H14.7542L13.5952 56.9941ZM20.2842 64.1963V55.9415H21.2777V63.333H25.1922V64.1963H20.2842ZM32.9811 63.0964H32.9219C32.851 63.2541 32.7682 63.4079 32.6736 63.5577C32.579 63.7075 32.4568 63.8415 32.307 63.9598C32.165 64.0701 31.9916 64.1608 31.7866 64.2318C31.5816 64.3027 31.3372 64.3382 31.0534 64.3382C30.1546 64.3382 29.4844 63.9755 29.0429 63.2502C28.6093 62.5248 28.3925 61.4841 28.3925 60.128C28.3925 58.7089 28.6329 57.6327 29.1139 56.8995C29.5948 56.1662 30.3359 55.7996 31.3372 55.7996C31.7235 55.7996 32.0586 55.8509 32.3424 55.9534C32.6263 56.0559 32.8667 56.1938 33.0638 56.3673C33.2688 56.5407 33.4383 56.7378 33.5724 56.9586C33.7064 57.1715 33.8168 57.3883 33.9035 57.609L33.052 57.9993C32.9811 57.818 32.8983 57.6485 32.8037 57.4908C32.7169 57.3252 32.6066 57.1833 32.4725 57.065C32.3464 56.9389 32.1926 56.8403 32.0113 56.7694C31.83 56.6984 31.6171 56.6629 31.3727 56.6629C30.7104 56.6629 30.2216 56.9113 29.9062 57.408C29.5987 57.9047 29.445 58.567 29.445 59.3948V60.6721C29.445 61.0899 29.4765 61.4723 29.5396 61.8192C29.6027 62.1582 29.7052 62.4539 29.8471 62.7062C29.9969 62.9585 30.1861 63.1556 30.4148 63.2975C30.6513 63.4315 30.9391 63.4985 31.2781 63.4985C31.8142 63.4985 32.2321 63.3369 32.5317 63.0137C32.8313 62.6904 32.9811 62.2725 32.9811 61.7601V60.9086H31.2426V60.1162H33.9035V64.1963H32.9811V63.0964ZM40.1432 64.3382C39.6386 64.3382 39.205 64.2436 38.8423 64.0544C38.4796 63.8573 38.18 63.5774 37.9435 63.2147C37.707 62.852 37.5335 62.4066 37.4231 61.8783C37.3127 61.3501 37.2576 60.747 37.2576 60.0689C37.2576 59.3988 37.3127 58.7996 37.4231 58.2713C37.5335 57.7352 37.707 57.2858 37.9435 56.9231C38.18 56.5605 38.4796 56.2845 38.8423 56.0953C39.205 55.8982 39.6386 55.7996 40.1432 55.7996C40.6478 55.7996 41.0814 55.8982 41.4441 56.0953C41.8067 56.2845 42.1063 56.5605 42.3429 56.9231C42.5794 57.2858 42.7528 57.7352 42.8632 58.2713C42.9736 58.7996 43.0288 59.3988 43.0288 60.0689C43.0288 60.747 42.9736 61.3501 42.8632 61.8783C42.7528 62.4066 42.5794 62.852 42.3429 63.2147C42.1063 63.5774 41.8067 63.8573 41.4441 64.0544C41.0814 64.2436 40.6478 64.3382 40.1432 64.3382ZM40.1432 63.4749C40.4743 63.4749 40.7542 63.4118 40.9828 63.2857C41.2115 63.1516 41.4007 62.9664 41.5505 62.7298C41.7003 62.4933 41.8067 62.2095 41.8698 61.8783C41.9408 61.5393 41.9762 61.1609 41.9762 60.743V59.3948C41.9762 58.9848 41.9408 58.6103 41.8698 58.2713C41.8067 57.9323 41.7003 57.6445 41.5505 57.408C41.4007 57.1715 41.2115 56.9901 40.9828 56.864C40.7542 56.73 40.4743 56.6629 40.1432 56.6629C39.812 56.6629 39.5321 56.73 39.3035 56.864C39.0749 56.9901 38.8856 57.1715 38.7358 57.408C38.586 57.6445 38.4757 57.9323 38.4047 58.2713C38.3416 58.6103 38.3101 58.9848 38.3101 59.3948V60.743C38.3101 61.1609 38.3416 61.5393 38.4047 61.8783C38.4757 62.2095 38.586 62.4933 38.7358 62.7298C38.8856 62.9664 39.0749 63.1516 39.3035 63.2857C39.5321 63.4118 39.812 63.4749 40.1432 63.4749ZM47.5182 64.1963H46.5247V55.9415H49.5286C50.2934 55.9415 50.8768 56.1505 51.2789 56.5683C51.681 56.9862 51.8821 57.5696 51.8821 58.3186C51.8821 58.9888 51.7086 59.5249 51.3617 59.927C51.0148 60.3291 50.5102 60.5617 49.8479 60.6248L51.953 64.1963H50.8413L48.8309 60.6721H47.5182V64.1963ZM49.505 59.8324C49.9228 59.8324 50.2461 59.7299 50.4747 59.5249C50.7112 59.312 50.8295 59.0124 50.8295 58.6261V58.0111C50.8295 57.6248 50.7112 57.3292 50.4747 57.1242C50.2461 56.9113 49.9228 56.8049 49.505 56.8049H47.5182V59.8324H49.505ZM55.3189 64.1963V63.4039H57.3767V56.7339H55.3189V55.9415H60.4278V56.7339H58.3701V63.4039H60.4278V64.1963H55.3189ZM67.2352 56.8049V64.1963H66.2417V56.8049H63.4862V55.9415H69.9907V56.8049H67.2352ZM77.2119 60.4474H73.9952V64.1963H73.0018V55.9415H73.9952V59.584H77.2119V55.9415H78.2053V64.1963H77.2119V60.4474ZM86.3017 60.0571V57.4435H86.2071L84.4686 61.6891L82.7302 57.4435H82.6356V60.0571V64.1963H81.7249V55.9415H83.0022L84.4568 59.584H84.5278L85.9824 55.9415H87.2123V64.1963H86.3017V60.0571ZM90.7793 64.1963V63.4039H92.837V56.7339H90.7793V55.9415H95.8882V56.7339H93.8304V63.4039H95.8882V64.1963H90.7793ZM102.471 64.3382C101.462 64.3382 100.709 63.9716 100.212 63.2384C99.7232 62.5051 99.4788 61.4486 99.4788 60.0689C99.4788 58.6892 99.7232 57.6327 100.212 56.8995C100.709 56.1662 101.462 55.7996 102.471 55.7996C102.849 55.7996 103.176 55.8509 103.452 55.9534C103.728 56.0559 103.965 56.1938 104.162 56.3673C104.359 56.5407 104.525 56.7378 104.659 56.9586C104.793 57.1715 104.911 57.3883 105.013 57.609L104.162 57.9993C104.091 57.818 104.008 57.6485 103.914 57.4908C103.819 57.3252 103.705 57.1833 103.571 57.065C103.445 56.9389 103.291 56.8403 103.109 56.7694C102.936 56.6984 102.723 56.6629 102.471 56.6629C101.816 56.6629 101.328 56.9113 101.004 57.408C100.689 57.9047 100.531 58.567 100.531 59.3948V60.743C100.531 61.5709 100.689 62.2331 101.004 62.7298C101.328 63.2265 101.816 63.4749 102.471 63.4749C102.723 63.4749 102.936 63.4394 103.109 63.3684C103.291 63.2975 103.445 63.2029 103.571 63.0846C103.705 62.9585 103.819 62.8166 103.914 62.6589C104.008 62.4933 104.091 62.3199 104.162 62.1385L105.013 62.5288C104.911 62.7574 104.793 62.9782 104.659 63.1911C104.525 63.4039 104.359 63.5971 104.162 63.7705C103.965 63.944 103.728 64.082 103.452 64.1845C103.176 64.287 102.849 64.3382 102.471 64.3382ZM113.204 64.1963L112.507 61.8429H109.609L108.912 64.1963H107.883L110.413 55.9415H111.726L114.257 64.1963H113.204ZM111.111 56.9941H111.005L109.846 60.9795H112.27L111.111 56.9941ZM117.8 64.1963V55.9415H118.794V63.333H122.708V64.1963H117.8ZM126.665 64.1963V55.9415H127.659V63.333H131.573V64.1963H126.665ZM137.163 64.1963V60.9559L134.312 55.9415H135.448L136.63 58.0939L137.636 59.9743H137.683L138.712 58.0939L139.894 55.9415H141.006L138.156 60.9559V64.1963H137.163ZM174.823 63.0964H174.763C174.692 63.2541 174.61 63.4079 174.515 63.5577C174.42 63.7075 174.298 63.8415 174.148 63.9598C174.007 64.0701 173.833 64.1608 173.628 64.2318C173.423 64.3027 173.179 64.3382 172.895 64.3382C171.996 64.3382 171.326 63.9755 170.884 63.2502C170.451 62.5248 170.234 61.4841 170.234 60.128C170.234 58.7089 170.474 57.6327 170.955 56.8995C171.436 56.1662 172.177 55.7996 173.179 55.7996C173.565 55.7996 173.9 55.8509 174.184 55.9534C174.468 56.0559 174.708 56.1938 174.905 56.3673C175.11 56.5407 175.28 56.7378 175.414 56.9586C175.548 57.1715 175.658 57.3883 175.745 57.609L174.894 57.9993C174.823 57.818 174.74 57.6485 174.645 57.4908C174.558 57.3252 174.448 57.1833 174.314 57.065C174.188 56.9389 174.034 56.8403 173.853 56.7694C173.671 56.6984 173.459 56.6629 173.214 56.6629C172.552 56.6629 172.063 56.9113 171.748 57.408C171.44 57.9047 171.287 58.567 171.287 59.3948V60.6721C171.287 61.0899 171.318 61.4723 171.381 61.8192C171.444 62.1582 171.547 62.4539 171.689 62.7062C171.838 62.9585 172.028 63.1556 172.256 63.2975C172.493 63.4315 172.781 63.4985 173.12 63.4985C173.656 63.4985 174.074 63.3369 174.373 63.0137C174.673 62.6904 174.823 62.2725 174.823 61.7601V60.9086H173.084V60.1162H175.745V64.1963H174.823V63.0964ZM179.501 64.1963V55.9415H184.586V56.8049H180.495V59.584H184.445V60.4474H180.495V63.333H184.586V64.1963H179.501ZM189.23 57.2424H189.147V64.1963H188.248V55.9415H189.655L192.47 62.8954H192.553V55.9415H193.452V64.1963H192.044L189.23 57.2424ZM197.231 64.1963V55.9415H202.317V56.8049H198.225V59.584H202.175V60.4474H198.225V63.333H202.317V64.1963H197.231ZM207.09 64.1963H206.096V55.9415H209.1C209.865 55.9415 210.449 56.1505 210.851 56.5683C211.253 56.9862 211.454 57.5696 211.454 58.3186C211.454 58.9888 211.28 59.5249 210.933 59.927C210.586 60.3291 210.082 60.5617 209.42 60.6248L211.525 64.1963H210.413L208.403 60.6721H207.09V64.1963ZM209.077 59.8324C209.495 59.8324 209.818 59.7299 210.046 59.5249C210.283 59.312 210.401 59.0124 210.401 58.6261V58.0111C210.401 57.6248 210.283 57.3292 210.046 57.1242C209.818 56.9113 209.495 56.8049 209.077 56.8049H207.09V59.8324H209.077ZM219.586 64.1963L218.888 61.8429H215.99L215.293 64.1963H214.264L216.795 55.9415H218.107L220.638 64.1963H219.586ZM217.492 56.9941H217.386L216.227 60.9795H218.651L217.492 56.9941ZM226.807 56.8049V64.1963H225.813V56.8049H223.058V55.9415H229.562V56.8049H226.807ZM232.692 64.1963V55.9415H237.777V56.8049H233.685V59.584H237.635V60.4474H233.685V63.333H237.777V64.1963H232.692ZM241.616 55.9415H243.922C244.931 55.9415 245.684 56.2884 246.181 56.9823C246.678 57.6761 246.926 58.705 246.926 60.0689C246.926 61.4329 246.678 62.4618 246.181 63.1556C245.684 63.8494 244.931 64.1963 243.922 64.1963H241.616V55.9415ZM243.875 63.333C244.537 63.333 245.034 63.1043 245.365 62.647C245.704 62.1898 245.873 61.5433 245.873 60.7075V59.4303C245.873 58.5946 245.704 57.9481 245.365 57.4908C245.034 57.0335 244.537 56.8049 243.875 56.8049H242.609V63.333H243.875Z" fill="black"/>
<path d="M67.8978 70.6486V78.04H66.9044V70.6486H64.1488V69.7853H70.6533V70.6486H67.8978ZM78.4067 78.04L77.709 75.6866H74.8115L74.1138 78.04H73.0849L75.6157 69.7853H76.9284L79.4593 78.04H78.4067ZM76.3135 70.8378H76.207L75.0481 74.8233H77.4724L76.3135 70.8378ZM85.1076 78.182C84.3665 78.182 83.7594 78.0479 83.2864 77.7799C82.8133 77.5039 82.423 77.1531 82.1156 76.7273L82.837 76.136C83.1602 76.5381 83.4992 76.8377 83.854 77.0348C84.2167 77.2319 84.6464 77.3305 85.1431 77.3305C85.7423 77.3305 86.1996 77.1925 86.5149 76.9165C86.8303 76.6406 86.988 76.2543 86.988 75.7576C86.988 75.3555 86.8737 75.044 86.645 74.8233C86.4164 74.5946 86.0182 74.433 85.4506 74.3384L84.5281 74.1847C84.126 74.1137 83.787 74.0073 83.5111 73.8654C83.243 73.7234 83.0262 73.5539 82.8606 73.3568C82.695 73.1518 82.5768 72.9311 82.5058 72.6946C82.4349 72.4501 82.3994 72.1979 82.3994 71.9377C82.3994 71.1808 82.6477 70.6092 83.1444 70.2229C83.6411 69.8365 84.3113 69.6434 85.1549 69.6434C85.8172 69.6434 86.373 69.7538 86.8224 69.9745C87.2797 70.1953 87.6463 70.5067 87.9223 70.9088L87.2245 71.5119C86.9959 71.2123 86.7199 70.9679 86.3967 70.7787C86.0734 70.5895 85.6556 70.4949 85.1431 70.4949C84.5833 70.4949 84.1536 70.6131 83.854 70.8497C83.5544 71.0862 83.4046 71.441 83.4046 71.914C83.4046 72.2846 83.515 72.5881 83.7358 72.8246C83.9644 73.0533 84.3704 73.2189 84.9539 73.3214L85.8408 73.4751C86.2429 73.5461 86.582 73.6525 86.8579 73.7944C87.1338 73.9363 87.3546 74.1058 87.5202 74.3029C87.6936 74.5 87.8158 74.7208 87.8868 74.9652C87.9577 75.2096 87.9932 75.4659 87.9932 75.7339C87.9932 76.4987 87.7409 77.0979 87.2363 77.5315C86.7396 77.9651 86.0301 78.182 85.1076 78.182ZM94.4931 70.6486V78.04H93.4997V70.6486H90.7441V69.7853H97.2486V70.6486H94.4931ZM100.378 78.04V69.7853H105.463V70.6486H101.371V73.4278H105.321V74.2911H101.371V77.1767H105.463V78.04H100.378ZM109.243 78.04V69.7853H114.447V70.6486H110.236V73.4278H114.092V74.2911H110.236V78.04H109.243ZM118.983 69.7853V74.7405C118.983 75.1426 118.995 75.5013 119.019 75.8167C119.042 76.1321 119.105 76.4041 119.208 76.6327C119.31 76.8535 119.468 77.023 119.681 77.1412C119.902 77.2595 120.205 77.3186 120.592 77.3186C120.978 77.3186 121.278 77.2595 121.49 77.1412C121.711 77.023 121.873 76.8535 121.975 76.6327C122.078 76.4041 122.141 76.1321 122.165 75.8167C122.188 75.5013 122.2 75.1426 122.2 74.7405V69.7853H123.193V74.504C123.193 75.1189 123.162 75.6551 123.099 76.1124C123.044 76.5696 122.921 76.952 122.732 77.2595C122.551 77.567 122.287 77.7996 121.94 77.9573C121.601 78.1071 121.151 78.182 120.592 78.182C120.032 78.182 119.579 78.1071 119.232 77.9573C118.893 77.7996 118.628 77.567 118.439 77.2595C118.258 76.952 118.136 76.5696 118.073 76.1124C118.017 75.6551 117.99 75.1189 117.99 74.504V69.7853H118.983ZM127.328 78.04V69.7853H128.321V77.1767H132.236V78.04H127.328ZM67.3774 92.182C66.6363 92.182 66.0292 92.0479 65.5562 91.7799C65.0831 91.5039 64.6929 91.1531 64.3854 90.7273L65.1068 90.136C65.43 90.5381 65.769 90.8377 66.1238 91.0348C66.4865 91.2319 66.9162 91.3305 67.4129 91.3305C68.0121 91.3305 68.4694 91.1925 68.7847 90.9165C69.1001 90.6406 69.2578 90.2543 69.2578 89.7576C69.2578 89.3555 69.1435 89.044 68.9148 88.8233C68.6862 88.5946 68.288 88.433 67.7204 88.3384L66.7979 88.1847C66.3958 88.1137 66.0568 88.0073 65.7809 87.8654C65.5128 87.7234 65.296 87.5539 65.1304 87.3568C64.9649 87.1518 64.8466 86.9311 64.7756 86.6946C64.7047 86.4501 64.6692 86.1979 64.6692 85.9377C64.6692 85.1808 64.9176 84.6092 65.4143 84.2229C65.911 83.8365 66.5811 83.6434 67.4247 83.6434C68.087 83.6434 68.6428 83.7538 69.0922 83.9745C69.5495 84.1953 69.9161 84.5067 70.1921 84.9088L69.4943 85.5119C69.2657 85.2123 68.9897 84.9679 68.6665 84.7787C68.3432 84.5895 67.9254 84.4949 67.4129 84.4949C66.8531 84.4949 66.4234 84.6131 66.1238 84.8497C65.8242 85.0862 65.6744 85.441 65.6744 85.914C65.6744 86.2846 65.7848 86.5881 66.0056 86.8246C66.2342 87.0533 66.6402 87.2189 67.2237 87.3214L68.1107 87.4751C68.5127 87.5461 68.8518 87.6525 69.1277 87.7944C69.4037 87.9363 69.6244 88.1058 69.79 88.3029C69.9634 88.5 70.0856 88.7208 70.1566 88.9652C70.2276 89.2096 70.263 89.4659 70.263 89.7339C70.263 90.4987 70.0107 91.0979 69.5062 91.5315C69.0094 91.9651 68.2999 92.182 67.3774 92.182ZM76.2662 92.182C75.7616 92.182 75.3279 92.0873 74.9653 91.8981C74.6026 91.701 74.303 91.4211 74.0665 91.0585C73.83 90.6958 73.6565 90.2503 73.5461 89.7221C73.4357 89.1938 73.3806 88.5907 73.3806 87.9127C73.3806 87.2425 73.4357 86.6433 73.5461 86.1151C73.6565 85.5789 73.83 85.1295 74.0665 84.7669C74.303 84.4042 74.6026 84.1283 74.9653 83.939C75.3279 83.7419 75.7616 83.6434 76.2662 83.6434C76.7708 83.6434 77.2044 83.7419 77.5671 83.939C77.9297 84.1283 78.2293 84.4042 78.4659 84.7669C78.7024 85.1295 78.8758 85.5789 78.9862 86.1151C79.0966 86.6433 79.1518 87.2425 79.1518 87.9127C79.1518 88.5907 79.0966 89.1938 78.9862 89.7221C78.8758 90.2503 78.7024 90.6958 78.4659 91.0585C78.2293 91.4211 77.9297 91.701 77.5671 91.8981C77.2044 92.0873 76.7708 92.182 76.2662 92.182ZM76.2662 91.3186C76.5973 91.3186 76.8772 91.2556 77.1058 91.1294C77.3345 90.9954 77.5237 90.8101 77.6735 90.5736C77.8233 90.3371 77.9297 90.0532 77.9928 89.7221C78.0638 89.3831 78.0992 89.0046 78.0992 88.5868V87.2386C78.0992 86.8286 78.0638 86.4541 77.9928 86.1151C77.9297 85.776 77.8233 85.4883 77.6735 85.2518C77.5237 85.0152 77.3345 84.8339 77.1058 84.7077C76.8772 84.5737 76.5973 84.5067 76.2662 84.5067C75.935 84.5067 75.6551 84.5737 75.4265 84.7077C75.1979 84.8339 75.0086 85.0152 74.8588 85.2518C74.709 85.4883 74.5987 85.776 74.5277 86.1151C74.4646 86.4541 74.4331 86.8286 74.4331 87.2386V88.5868C74.4331 89.0046 74.4646 89.3831 74.5277 89.7221C74.5987 90.0532 74.709 90.3371 74.8588 90.5736C75.0086 90.8101 75.1979 90.9954 75.4265 91.1294C75.6551 91.2556 75.935 91.3186 76.2662 91.3186ZM82.6477 92.04V83.7853H87.8513V84.6486H83.6411V87.4278H87.4965V88.2911H83.6411V92.04H82.6477ZM94.4931 84.6486V92.04H93.4997V84.6486H90.7441V83.7853H97.2486V84.6486H94.4931ZM100.378 92.04L99.7275 83.7853H100.614L100.957 88.5158L101.135 91.0112H101.229L102.317 85.9377H103.429L104.517 91.0112H104.612L104.789 88.5158L105.132 83.7853H105.995L105.345 92.04H103.914L102.909 87.1085H102.814L101.809 92.04H100.378ZM113.867 92.04L113.169 89.6866H110.272L109.574 92.04H108.545L111.076 83.7853H112.389L114.92 92.04H113.867ZM111.774 84.8378H111.667L110.508 88.8233H112.933L111.774 84.8378ZM119.102 92.04H118.108V83.7853H121.112C121.877 83.7853 122.46 83.9942 122.862 84.4121C123.264 84.8299 123.465 85.4134 123.465 86.1624C123.465 86.8325 123.292 87.3687 122.945 87.7707C122.598 88.1728 122.094 88.4054 121.431 88.4685L123.536 92.04H122.425L120.414 88.5158H119.102V92.04ZM121.088 87.6761C121.506 87.6761 121.829 87.5736 122.058 87.3687C122.295 87.1558 122.413 86.8562 122.413 86.4699V85.8549C122.413 85.4686 122.295 85.1729 122.058 84.9679C121.829 84.755 121.506 84.6486 121.088 84.6486H119.102V87.6761H121.088ZM126.973 92.04V83.7853H132.059V84.6486H127.967V87.4278H131.917V88.2911H127.967V91.1767H132.059V92.04H126.973Z" fill="black"/>
<path d="M298.75 85.5578H295.061L294.824 88.7154H294.907C295.112 88.4395 295.34 88.2226 295.593 88.065C295.845 87.8994 296.192 87.8166 296.633 87.8166C296.996 87.8166 297.327 87.8757 297.627 87.994C297.934 88.1044 298.198 88.27 298.419 88.4907C298.64 88.7115 298.813 88.9795 298.94 89.2949C299.066 89.6024 299.129 89.9572 299.129 90.3593C299.129 90.7614 299.066 91.1319 298.94 91.4709C298.813 91.8021 298.628 92.0898 298.384 92.3343C298.139 92.5708 297.844 92.7561 297.497 92.8901C297.15 93.0241 296.756 93.0911 296.314 93.0911C295.967 93.0911 295.656 93.0517 295.38 92.9729C295.112 92.894 294.871 92.7876 294.658 92.6536C294.453 92.5195 294.272 92.3697 294.114 92.2042C293.957 92.0386 293.815 91.8651 293.689 91.6838L294.434 91.1161C294.544 91.2817 294.654 91.4315 294.765 91.5655C294.883 91.6996 295.017 91.8178 295.167 91.9203C295.317 92.0149 295.486 92.0898 295.675 92.145C295.865 92.2002 296.085 92.2278 296.338 92.2278C296.905 92.2278 297.339 92.0741 297.639 91.7666C297.946 91.4591 298.1 91.0334 298.1 90.4894V90.3947C298.1 89.8507 297.946 89.425 297.639 89.1175C297.331 88.81 296.89 88.6563 296.314 88.6563C295.92 88.6563 295.612 88.7233 295.392 88.8573C295.179 88.9914 294.982 89.1569 294.8 89.354L293.961 89.2358L294.256 84.6945H298.75V85.5578ZM308.041 92.9492H302.53V91.9322L305.286 89.4486C305.688 89.086 306.019 88.7154 306.279 88.337C306.539 87.9506 306.669 87.5446 306.669 87.1189V86.9769C306.669 86.4802 306.539 86.0979 306.279 85.8298C306.019 85.5538 305.633 85.4159 305.12 85.4159C304.615 85.4159 304.225 85.546 303.949 85.8061C303.681 86.0584 303.48 86.3975 303.346 86.8232L302.459 86.4921C302.538 86.2477 302.644 86.0111 302.778 85.7825C302.92 85.546 303.098 85.337 303.311 85.1557C303.524 84.9744 303.78 84.8285 304.079 84.7181C304.387 84.6077 304.742 84.5526 305.144 84.5526C305.554 84.5526 305.916 84.6117 306.232 84.7299C306.555 84.8482 306.823 85.0138 307.036 85.2267C307.257 85.4395 307.422 85.6918 307.533 85.9835C307.651 86.2753 307.71 86.5946 307.71 86.9415C307.71 87.2568 307.663 87.5525 307.568 87.8284C307.481 88.1044 307.355 88.3685 307.19 88.6208C307.032 88.8731 306.839 89.1214 306.61 89.3659C306.389 89.6024 306.141 89.8389 305.865 90.0754L303.559 92.0859H308.041V92.9492ZM326.221 92.9492H325.097L324.116 91.3054L323.028 89.5078H322.98L321.857 91.3054L320.816 92.9492H319.728L322.425 88.7391L319.882 84.6945H321.005L321.963 86.291L322.992 87.9585H323.039L324.057 86.291L325.05 84.6945H326.138L323.583 88.7272L326.221 92.9492ZM338.156 92.9492V92.0859H340.521V85.4277H340.439L338.357 87.3672L337.778 86.7404L339.965 84.6945H341.515V92.0859H343.691V92.9492H338.156ZM361.681 92.9492H360.558L359.576 91.3054L358.488 89.5078H358.441L357.317 91.3054L356.277 92.9492H355.188L357.885 88.7391L355.342 84.6945H356.466L357.424 86.291L358.453 87.9585H358.5L359.517 86.291L360.51 84.6945H361.598L359.044 88.7272L361.681 92.9492Z" fill="black"/>
<path d="M386.206 88.3241C386.206 88.9566 386.128 89.5113 385.973 89.9883C385.807 90.4653 385.584 90.8645 385.304 91.1859C385.024 91.497 384.692 91.7355 384.309 91.9014C383.925 92.0569 383.51 92.1347 383.064 92.1347C382.318 92.1347 381.727 91.9325 381.291 91.5281C380.856 91.1237 380.55 90.5897 380.374 89.9261L380.249 89.9261C380.052 90.5068 379.736 90.9682 379.3 91.3104C378.854 91.6422 378.32 91.8081 377.698 91.8081C376.869 91.8081 376.21 91.5022 375.723 90.8904C375.225 90.2786 374.976 89.4232 374.976 88.3241C374.976 87.2249 375.225 86.3695 375.723 85.7577C376.21 85.1459 376.869 84.8401 377.698 84.8401C378.32 84.8401 378.854 85.0112 379.3 85.3533C379.736 85.6851 380.052 86.1414 380.249 86.722L380.374 86.722C380.55 86.0584 380.856 85.5244 381.291 85.12C381.727 84.7156 382.318 84.5134 383.064 84.5134C383.51 84.5134 383.925 84.5964 384.309 84.7623C384.692 84.9178 385.024 85.1563 385.304 85.4778C385.584 85.7992 385.807 86.1984 385.973 86.6754C386.128 87.142 386.206 87.6916 386.206 88.3241ZM385.102 88.3241C385.102 87.5568 384.931 86.9554 384.589 86.5199C384.246 86.0843 383.764 85.8666 383.142 85.8666L382.8 85.8666C382.178 85.8666 381.696 86.0843 381.353 86.5199C381.011 86.945 380.84 87.5464 380.84 88.3241C380.84 89.1018 381.011 89.7083 381.353 90.1438C381.696 90.569 382.178 90.7815 382.8 90.7815L383.142 90.7815C383.764 90.7815 384.246 90.5638 384.589 90.1283C384.931 89.6928 385.102 89.0914 385.102 88.3241ZM379.783 88.3241C379.783 87.619 379.632 87.085 379.331 86.722C379.031 86.3488 378.6 86.1621 378.041 86.1621L377.823 86.1621C377.263 86.1621 376.833 86.3539 376.532 86.7376C376.231 87.1109 376.081 87.6397 376.081 88.3241C376.081 89.0084 376.231 89.5424 376.532 89.9261C376.833 90.2994 377.263 90.486 377.823 90.486L378.041 90.486C378.6 90.486 379.031 90.3046 379.331 89.9416C379.632 89.5684 379.783 89.0292 379.783 88.3241Z" fill="black"/>
<path d="M170.957 78.04V69.7853H173.961C174.726 69.7853 175.309 69.9942 175.711 70.4121C176.113 70.8299 176.314 71.4134 176.314 72.1624C176.314 72.9114 176.113 73.4948 175.711 73.9127C175.309 74.3305 174.726 74.5395 173.961 74.5395H171.95V78.04H170.957ZM171.95 73.6761H173.937C174.355 73.6761 174.678 73.5736 174.907 73.3687C175.144 73.1558 175.262 72.8562 175.262 72.4699V71.8549C175.262 71.4686 175.144 71.1729 174.907 70.9679C174.678 70.755 174.355 70.6486 173.937 70.6486H171.95V73.6761ZM180.816 78.04H179.822V69.7853H182.826C183.591 69.7853 184.174 69.9942 184.576 70.4121C184.978 70.8299 185.179 71.4134 185.179 72.1624C185.179 72.8325 185.006 73.3687 184.659 73.7707C184.312 74.1728 183.808 74.4054 183.145 74.4685L185.25 78.04H184.139L182.128 74.5158H180.816V78.04ZM182.802 73.6761C183.22 73.6761 183.543 73.5736 183.772 73.3687C184.009 73.1558 184.127 72.8562 184.127 72.4699V71.8549C184.127 71.4686 184.009 71.1729 183.772 70.9679C183.543 70.755 183.22 70.6486 182.802 70.6486H180.816V73.6761H182.802ZM191.171 78.182C190.666 78.182 190.233 78.0873 189.87 77.8981C189.507 77.701 189.208 77.4211 188.971 77.0585C188.735 76.6958 188.561 76.2503 188.451 75.7221C188.34 75.1938 188.285 74.5907 188.285 73.9127C188.285 73.2425 188.34 72.6433 188.451 72.1151C188.561 71.5789 188.735 71.1295 188.971 70.7669C189.208 70.4042 189.507 70.1283 189.87 69.939C190.233 69.7419 190.666 69.6434 191.171 69.6434C191.675 69.6434 192.109 69.7419 192.472 69.939C192.834 70.1283 193.134 70.4042 193.37 70.7669C193.607 71.1295 193.78 71.5789 193.891 72.1151C194.001 72.6433 194.056 73.2425 194.056 73.9127C194.056 74.5907 194.001 75.1938 193.891 75.7221C193.78 76.2503 193.607 76.6958 193.37 77.0585C193.134 77.4211 192.834 77.701 192.472 77.8981C192.109 78.0873 191.675 78.182 191.171 78.182ZM191.171 77.3186C191.502 77.3186 191.782 77.2556 192.01 77.1294C192.239 76.9954 192.428 76.8101 192.578 76.5736C192.728 76.3371 192.834 76.0532 192.897 75.7221C192.968 75.3831 193.004 75.0046 193.004 74.5868V73.2386C193.004 72.8286 192.968 72.4541 192.897 72.1151C192.834 71.776 192.728 71.4883 192.578 71.2518C192.428 71.0152 192.239 70.8339 192.01 70.7077C191.782 70.5737 191.502 70.5067 191.171 70.5067C190.84 70.5067 190.56 70.5737 190.331 70.7077C190.102 70.8339 189.913 71.0152 189.763 71.2518C189.614 71.4883 189.503 71.776 189.432 72.1151C189.369 72.4541 189.338 72.8286 189.338 73.2386V74.5868C189.338 75.0046 189.369 75.3831 189.432 75.7221C189.503 76.0532 189.614 76.3371 189.763 76.5736C189.913 76.8101 190.102 76.9954 190.331 77.1294C190.56 77.2556 190.84 77.3186 191.171 77.3186ZM202.165 69.7853V75.8995C202.165 76.2464 202.105 76.5618 201.987 76.8456C201.869 77.1294 201.699 77.3699 201.479 77.567C201.266 77.7641 201.01 77.9178 200.71 78.0282C200.41 78.1307 200.083 78.182 199.728 78.182C199.098 78.182 198.577 78.0203 198.167 77.6971C197.757 77.3659 197.489 76.9047 197.363 76.3134L198.309 76.1124C198.349 76.2779 198.4 76.4356 198.463 76.5854C198.534 76.7273 198.625 76.8535 198.735 76.9638C198.853 77.0663 198.995 77.1491 199.161 77.2122C199.326 77.2753 199.523 77.3068 199.752 77.3068C200.201 77.3068 200.548 77.1807 200.793 76.9284C201.045 76.6682 201.171 76.2661 201.171 75.7221V70.6486H198.191V69.7853H202.165ZM206.417 78.04V69.7853H211.503V70.6486H207.411V73.4278H211.361V74.2911H207.411V77.1767H211.503V78.04H206.417ZM218.038 78.182C217.029 78.182 216.276 77.8153 215.779 77.0821C215.29 76.3489 215.046 75.2924 215.046 73.9127C215.046 72.5329 215.29 71.4765 215.779 70.7432C216.276 70.01 217.029 69.6434 218.038 69.6434C218.416 69.6434 218.744 69.6946 219.02 69.7971C219.296 69.8996 219.532 70.0376 219.729 70.211C219.926 70.3845 220.092 70.5816 220.226 70.8024C220.36 71.0152 220.478 71.232 220.581 71.4528L219.729 71.8431C219.658 71.6617 219.575 71.4922 219.481 71.3345C219.386 71.169 219.272 71.0271 219.138 70.9088C219.012 70.7826 218.858 70.6841 218.677 70.6131C218.503 70.5422 218.29 70.5067 218.038 70.5067C217.384 70.5067 216.895 70.755 216.572 71.2518C216.256 71.7485 216.099 72.4107 216.099 73.2386V74.5868C216.099 75.4146 216.256 76.0769 216.572 76.5736C216.895 77.0703 217.384 77.3186 218.038 77.3186C218.29 77.3186 218.503 77.2832 218.677 77.2122C218.858 77.1412 219.012 77.0466 219.138 76.9284C219.272 76.8022 219.386 76.6603 219.481 76.5026C219.575 76.3371 219.658 76.1636 219.729 75.9823L220.581 76.3725C220.478 76.6012 220.36 76.8219 220.226 77.0348C220.092 77.2477 219.926 77.4408 219.729 77.6143C219.532 77.7877 219.296 77.9257 219.02 78.0282C218.744 78.1307 218.416 78.182 218.038 78.182ZM227.128 70.6486V78.04H226.134V70.6486H223.379V69.7853H229.883V70.6486H227.128ZM241.854 69.7853H244.657C245.367 69.7853 245.922 69.9785 246.324 70.3648C246.727 70.7511 246.928 71.2675 246.928 71.914C246.928 72.4107 246.805 72.801 246.561 73.0848C246.324 73.3687 246.017 73.5697 245.639 73.688V73.7234C246.104 73.8338 246.486 74.0428 246.786 74.3502C247.085 74.6498 247.235 75.0874 247.235 75.663C247.235 75.9941 247.18 76.3055 247.07 76.5972C246.959 76.8889 246.801 77.1412 246.596 77.3541C246.399 77.567 246.163 77.7365 245.887 77.8626C245.619 77.9809 245.327 78.04 245.012 78.04H241.854V69.7853ZM244.716 77.1767C245.173 77.1767 245.532 77.0742 245.792 76.8692C246.052 76.6642 246.183 76.3489 246.183 75.9231V75.4383C246.183 75.0204 246.052 74.709 245.792 74.504C245.532 74.2911 245.173 74.1847 244.716 74.1847H242.848V77.1767H244.716ZM244.551 73.3687C244.968 73.3687 245.296 73.278 245.532 73.0967C245.769 72.9074 245.887 72.6236 245.887 72.2452V71.7839C245.887 71.4055 245.769 71.1217 245.532 70.9324C245.296 70.7432 244.968 70.6486 244.551 70.6486H242.848V73.3687H244.551ZM252.73 78.04V74.7996L249.88 69.7853H251.015L252.198 71.9377L253.203 73.8181H253.25L254.279 71.9377L255.462 69.7853H256.573L253.723 74.7996V78.04H252.73ZM270.07 79.6721V69.0521H273.381V69.7853H270.886V78.9388H273.381V79.6721H270.07ZM279.148 78.04L276.7 69.7853H277.752L278.923 73.9127L279.81 77.0348H279.869L280.756 73.9127L281.927 69.7853H282.944L280.496 78.04H279.148ZM290.827 78.04L290.13 75.6866H287.232L286.534 78.04H285.506L288.036 69.7853H289.349L291.88 78.04H290.827ZM288.734 70.8378H288.628L287.469 74.8233H289.893L288.734 70.8378ZM299.385 73.9008V71.2872H299.29L297.552 75.5329L295.813 71.2872H295.719V73.9008V78.04H294.808V69.7853H296.085L297.54 73.4278H297.611L299.066 69.7853H300.296V78.04H299.385V73.9008ZM306.393 78.182C305.652 78.182 305.045 78.0479 304.572 77.7799C304.099 77.5039 303.709 77.1531 303.401 76.7273L304.123 76.136C304.446 76.5381 304.785 76.8377 305.14 77.0348C305.502 77.2319 305.932 77.3305 306.429 77.3305C307.028 77.3305 307.485 77.1925 307.801 76.9165C308.116 76.6406 308.274 76.2543 308.274 75.7576C308.274 75.3555 308.159 75.044 307.931 74.8233C307.702 74.5946 307.304 74.433 306.736 74.3384L305.814 74.1847C305.412 74.1137 305.073 74.0073 304.797 73.8654C304.529 73.7234 304.312 73.5539 304.146 73.3568C303.981 73.1518 303.863 72.9311 303.792 72.6946C303.721 72.4501 303.685 72.1979 303.685 71.9377C303.685 71.1808 303.933 70.6092 304.43 70.2229C304.927 69.8365 305.597 69.6434 306.441 69.6434C307.103 69.6434 307.659 69.7538 308.108 69.9745C308.565 70.1953 308.932 70.5067 309.208 70.9088L308.51 71.5119C308.282 71.2123 308.006 70.9679 307.682 70.7787C307.359 70.5895 306.941 70.4949 306.429 70.4949C305.869 70.4949 305.439 70.6131 305.14 70.8497C304.84 71.0862 304.69 71.441 304.69 71.914C304.69 72.2846 304.801 72.5881 305.021 72.8246C305.25 73.0533 305.656 73.2189 306.24 73.3214L307.127 73.4751C307.529 73.5461 307.868 73.6525 308.144 73.7944C308.42 73.9363 308.64 74.1058 308.806 74.3029C308.979 74.5 309.102 74.7208 309.173 74.9652C309.243 75.2096 309.279 75.4659 309.279 75.7339C309.279 76.4987 309.027 77.0979 308.522 77.5315C308.025 77.9651 307.316 78.182 306.393 78.182ZM312.728 78.04V77.2477H314.785V70.5777H312.728V69.7853H317.837V70.5777H315.779V77.2477H317.837V78.04H312.728ZM330.505 69.7853H333.308C334.017 69.7853 334.573 69.9785 334.975 70.3648C335.378 70.7511 335.579 71.2675 335.579 71.914C335.579 72.4107 335.456 72.801 335.212 73.0848C334.975 73.3687 334.668 73.5697 334.289 73.688V73.7234C334.755 73.8338 335.137 74.0428 335.437 74.3502C335.736 74.6498 335.886 75.0874 335.886 75.663C335.886 75.9941 335.831 76.3055 335.72 76.5972C335.61 76.8889 335.452 77.1412 335.247 77.3541C335.05 77.567 334.814 77.7365 334.538 77.8626C334.27 77.9809 333.978 78.04 333.663 78.04H330.505V69.7853ZM333.367 77.1767C333.824 77.1767 334.183 77.0742 334.443 76.8692C334.703 76.6642 334.834 76.3489 334.834 75.9231V75.4383C334.834 75.0204 334.703 74.709 334.443 74.504C334.183 74.2911 333.824 74.1847 333.367 74.1847H331.498V77.1767H333.367ZM333.201 73.3687C333.619 73.3687 333.947 73.278 334.183 73.0967C334.42 72.9074 334.538 72.6236 334.538 72.2452V71.7839C334.538 71.4055 334.42 71.1217 334.183 70.9324C333.947 70.7432 333.619 70.6486 333.201 70.6486H331.498V73.3687H333.201ZM344.018 78.04L343.32 75.6866H340.423L339.725 78.04H338.696L341.227 69.7853H342.54L345.07 78.04H344.018ZM341.925 70.8378H341.818L340.659 74.8233H343.084L341.925 70.8378ZM351.239 70.6486V78.04H350.246V70.6486H347.49V69.7853H353.995V70.6486H351.239ZM359.88 78.182C358.87 78.182 358.117 77.8153 357.621 77.0821C357.132 76.3489 356.888 75.2924 356.888 73.9127C356.888 72.5329 357.132 71.4765 357.621 70.7432C358.117 70.01 358.87 69.6434 359.88 69.6434C360.258 69.6434 360.585 69.6946 360.861 69.7971C361.137 69.8996 361.374 70.0376 361.571 70.211C361.768 70.3845 361.933 70.5816 362.067 70.8024C362.201 71.0152 362.32 71.232 362.422 71.4528L361.571 71.8431C361.5 71.6617 361.417 71.4922 361.322 71.3345C361.228 71.169 361.113 71.0271 360.979 70.9088C360.853 70.7826 360.7 70.6841 360.518 70.6131C360.345 70.5422 360.132 70.5067 359.88 70.5067C359.225 70.5067 358.736 70.755 358.413 71.2518C358.098 71.7485 357.94 72.4107 357.94 73.2386V74.5868C357.94 75.4146 358.098 76.0769 358.413 76.5736C358.736 77.0703 359.225 77.3186 359.88 77.3186C360.132 77.3186 360.345 77.2832 360.518 77.2122C360.7 77.1412 360.853 77.0466 360.979 76.9284C361.113 76.8022 361.228 76.6603 361.322 76.5026C361.417 76.3371 361.5 76.1636 361.571 75.9823L362.422 76.3725C362.32 76.6012 362.201 76.8219 362.067 77.0348C361.933 77.2477 361.768 77.4408 361.571 77.6143C361.374 77.7877 361.137 77.9257 360.861 78.0282C360.585 78.1307 360.258 78.182 359.88 78.182ZM370.081 74.2911H366.864V78.04H365.871V69.7853H366.864V73.4278H370.081V69.7853H371.074V78.04H370.081V74.2911ZM375.729 69.7853V74.7405C375.729 75.1426 375.741 75.5013 375.765 75.8167C375.788 76.1321 375.852 76.4041 375.954 76.6327C376.057 76.8535 376.214 77.023 376.427 77.1412C376.648 77.2595 376.951 77.3186 377.338 77.3186C377.724 77.3186 378.024 77.2595 378.237 77.1412C378.457 77.023 378.619 76.8535 378.721 76.6327C378.824 76.4041 378.887 76.1321 378.911 75.8167C378.934 75.5013 378.946 75.1426 378.946 74.7405V69.7853H379.94V74.504C379.94 75.1189 379.908 75.6551 379.845 76.1124C379.79 76.5696 379.668 76.952 379.478 77.2595C379.297 77.567 379.033 77.7996 378.686 77.9573C378.347 78.1071 377.898 78.182 377.338 78.182C376.778 78.182 376.325 78.1071 375.978 77.9573C375.639 77.7996 375.375 77.567 375.185 77.2595C375.004 76.952 374.882 76.5696 374.819 76.1124C374.764 75.6551 374.736 75.1189 374.736 74.504V69.7853H375.729ZM387.09 69.0521V79.6721H383.778V78.9388H386.274V69.7853H383.778V69.0521H387.09Z" fill="black"/>
<path d="M253.644 148.566C252.862 148.566 252.278 148.282 251.893 147.714C251.514 147.146 251.325 146.327 251.325 145.258C251.325 144.189 251.514 143.37 251.893 142.802C252.278 142.234 252.862 141.95 253.644 141.95C253.937 141.95 254.19 141.989 254.404 142.069C254.618 142.148 254.801 142.255 254.954 142.39C255.107 142.524 255.235 142.677 255.339 142.848C255.443 143.013 255.534 143.181 255.614 143.352L254.954 143.654C254.899 143.514 254.835 143.382 254.762 143.26C254.688 143.132 254.6 143.022 254.496 142.93C254.398 142.832 254.279 142.756 254.138 142.701C254.004 142.646 253.839 142.619 253.644 142.619C253.136 142.619 252.758 142.811 252.507 143.196C252.263 143.581 252.141 144.094 252.141 144.736V145.78C252.141 146.422 252.263 146.935 252.507 147.32C252.758 147.705 253.136 147.897 253.644 147.897C253.839 147.897 254.004 147.87 254.138 147.815C254.279 147.76 254.398 147.686 254.496 147.595C254.6 147.497 254.688 147.387 254.762 147.265C254.835 147.136 254.899 147.002 254.954 146.862L255.614 147.164C255.534 147.341 255.443 147.512 255.339 147.677C255.235 147.842 255.107 147.992 254.954 148.126C254.801 148.261 254.618 148.367 254.404 148.447C254.19 148.526 253.937 148.566 253.644 148.566ZM259.147 148.456H258.378V142.06H260.705C261.298 142.06 261.75 142.222 262.062 142.545C262.373 142.869 262.529 143.321 262.529 143.902C262.529 144.421 262.395 144.836 262.126 145.148C261.857 145.459 261.466 145.64 260.953 145.689L262.584 148.456H261.723L260.165 145.725H259.147V148.456ZM260.687 145.075C261.011 145.075 261.261 144.995 261.438 144.836C261.622 144.671 261.713 144.439 261.713 144.14V143.663C261.713 143.364 261.622 143.135 261.438 142.976C261.261 142.811 261.011 142.729 260.687 142.729H259.147V145.075H260.687ZM268.83 148.456L268.289 146.632H266.044L265.504 148.456H264.706L266.667 142.06H267.685L269.646 148.456H268.83ZM267.208 142.875H267.126L266.228 145.963H268.106L267.208 142.875ZM272.116 148.456V142.06H276.149V142.729H272.886V144.882H275.874V145.551H272.886V148.456H272.116ZM281.295 142.729V148.456H280.525V142.729H278.39V142.06H283.43V142.729H281.295ZM285.855 148.456V142.06H289.796V142.729H286.625V144.882H289.686V145.551H286.625V147.787H289.796V148.456H285.855ZM292.77 142.06H294.557C295.339 142.06 295.923 142.328 296.308 142.866C296.692 143.404 296.885 144.201 296.885 145.258C296.885 146.315 296.692 147.112 296.308 147.65C295.923 148.187 295.339 148.456 294.557 148.456H292.77V142.06ZM294.521 147.787C295.034 147.787 295.419 147.61 295.675 147.256C295.938 146.901 296.069 146.4 296.069 145.753V144.763C296.069 144.115 295.938 143.614 295.675 143.26C295.419 142.906 295.034 142.729 294.521 142.729H293.54V147.787H294.521ZM306.463 148.456L305.959 142.06H306.646L306.912 145.725L307.05 147.659H307.123L307.966 143.727H308.827L309.671 147.659H309.744L309.881 145.725L310.147 142.06H310.816L310.312 148.456H309.203L308.424 144.635H308.351L307.572 148.456H306.463ZM313.333 148.456V142.06H317.273V142.729H314.102V144.882H317.163V145.551H314.102V147.787H317.273V148.456H313.333ZM320.202 148.456V142.06H324.142V142.729H320.972V144.882H324.032V145.551H320.972V147.787H324.142V148.456H320.202ZM328.712 145.322L327.795 146.403V148.456H327.025V142.06H327.795V145.395H327.823L328.666 144.332L330.553 142.06H331.479L329.234 144.754L331.543 148.456H330.645L328.712 145.322ZM334.215 148.456V142.06H334.985V147.787H338.018V148.456H334.215ZM342.349 148.456V145.945L340.141 142.06H341.021L341.937 143.727L342.716 145.185H342.753L343.55 143.727L344.466 142.06H345.328L343.119 145.945V148.456H342.349Z" fill="black"/>
<path d="M253.414 160.813C252.84 160.813 252.37 160.709 252.003 160.502C251.637 160.288 251.334 160.016 251.096 159.686L251.655 159.228C251.905 159.539 252.168 159.771 252.443 159.924C252.724 160.077 253.057 160.153 253.442 160.153C253.906 160.153 254.261 160.046 254.505 159.833C254.749 159.619 254.871 159.319 254.871 158.934C254.871 158.623 254.783 158.382 254.606 158.211C254.429 158.033 254.12 157.908 253.68 157.835L252.965 157.716C252.654 157.661 252.391 157.578 252.177 157.468C251.97 157.358 251.802 157.227 251.673 157.074C251.545 156.915 251.453 156.744 251.398 156.561C251.343 156.372 251.316 156.176 251.316 155.975C251.316 155.388 251.508 154.945 251.893 154.646C252.278 154.346 252.797 154.197 253.451 154.197C253.964 154.197 254.395 154.282 254.743 154.453C255.098 154.624 255.382 154.866 255.595 155.177L255.055 155.645C254.878 155.412 254.664 155.223 254.413 155.076C254.163 154.93 253.839 154.857 253.442 154.857C253.008 154.857 252.675 154.948 252.443 155.131C252.211 155.315 252.095 155.59 252.095 155.956C252.095 156.243 252.18 156.479 252.351 156.662C252.529 156.839 252.843 156.967 253.295 157.047L253.983 157.166C254.294 157.221 254.557 157.303 254.771 157.413C254.985 157.523 255.156 157.655 255.284 157.807C255.418 157.96 255.513 158.131 255.568 158.321C255.623 158.51 255.65 158.708 255.65 158.916C255.65 159.509 255.455 159.973 255.064 160.309C254.679 160.645 254.129 160.813 253.414 160.813ZM261.548 157.798H259.056V160.703H258.286V154.307H259.056V157.129H261.548V154.307H262.318V160.703H261.548V157.798ZM265.192 160.703V160.089H266.787V154.921H265.192V154.307H269.151V154.921H267.556V160.089H269.151V160.703H265.192ZM272.116 160.703V154.307H274.444C275.037 154.307 275.489 154.469 275.8 154.792C276.112 155.116 276.268 155.568 276.268 156.149C276.268 156.729 276.112 157.181 275.8 157.505C275.489 157.829 275.037 157.991 274.444 157.991H272.886V160.703H272.116ZM272.886 157.322H274.426C274.749 157.322 275 157.242 275.177 157.083C275.36 156.918 275.452 156.686 275.452 156.387V155.91C275.452 155.611 275.36 155.382 275.177 155.223C275 155.058 274.749 154.976 274.426 154.976H272.886V157.322ZM278.986 160.703V154.307H281.313C281.906 154.307 282.358 154.469 282.67 154.792C282.981 155.116 283.137 155.568 283.137 156.149C283.137 156.729 282.981 157.181 282.67 157.505C282.358 157.829 281.906 157.991 281.313 157.991H279.756V160.703H278.986ZM279.756 157.322H281.295C281.619 157.322 281.869 157.242 282.046 157.083C282.23 156.918 282.321 156.686 282.321 156.387V155.91C282.321 155.611 282.23 155.382 282.046 155.223C281.869 155.058 281.619 154.976 281.295 154.976H279.756V157.322ZM285.855 160.703V154.307H289.796V154.976H286.625V157.129H289.686V157.798H286.625V160.034H289.796V160.703H285.855ZM292.77 154.307H294.557C295.339 154.307 295.923 154.576 296.308 155.113C296.692 155.651 296.885 156.448 296.885 157.505C296.885 158.562 296.692 159.359 296.308 159.897C295.923 160.434 295.339 160.703 294.557 160.703H292.77V154.307ZM294.521 160.034C295.034 160.034 295.419 159.857 295.675 159.503C295.938 159.148 296.069 158.647 296.069 158V157.01C296.069 156.362 295.938 155.862 295.675 155.507C295.419 155.153 295.034 154.976 294.521 154.976H293.54V160.034H294.521ZM306.463 160.703V154.307H308.791C309.383 154.307 309.835 154.469 310.147 154.792C310.459 155.116 310.614 155.568 310.614 156.149C310.614 156.729 310.459 157.181 310.147 157.505C309.835 157.829 309.383 157.991 308.791 157.991H307.233V160.703H306.463ZM307.233 157.322H308.772C309.096 157.322 309.347 157.242 309.524 157.083C309.707 156.918 309.799 156.686 309.799 156.387V155.91C309.799 155.611 309.707 155.382 309.524 155.223C309.347 155.058 309.096 154.976 308.772 154.976H307.233V157.322ZM314.011 154.307V158.146C314.011 158.458 314.02 158.736 314.038 158.98C314.056 159.225 314.105 159.435 314.185 159.613C314.264 159.784 314.386 159.915 314.551 160.007C314.722 160.098 314.958 160.144 315.257 160.144C315.556 160.144 315.788 160.098 315.953 160.007C316.124 159.915 316.25 159.784 316.329 159.613C316.409 159.435 316.457 159.225 316.476 158.98C316.494 158.736 316.503 158.458 316.503 158.146V154.307H317.273V157.963C317.273 158.44 317.249 158.855 317.2 159.209C317.157 159.564 317.062 159.86 316.916 160.098C316.775 160.337 316.57 160.517 316.302 160.639C316.039 160.755 315.691 160.813 315.257 160.813C314.823 160.813 314.472 160.755 314.203 160.639C313.94 160.517 313.736 160.337 313.589 160.098C313.449 159.86 313.354 159.564 313.305 159.209C313.262 158.855 313.241 158.44 313.241 157.963V154.307H314.011ZM320.184 154.307H322.355C322.905 154.307 323.336 154.456 323.647 154.756C323.959 155.055 324.115 155.455 324.115 155.956C324.115 156.341 324.02 156.644 323.831 156.863C323.647 157.083 323.409 157.239 323.116 157.331V157.358C323.476 157.444 323.773 157.606 324.005 157.844C324.237 158.076 324.353 158.415 324.353 158.861C324.353 159.118 324.31 159.359 324.225 159.585C324.139 159.811 324.017 160.007 323.858 160.172C323.706 160.337 323.522 160.468 323.308 160.566C323.101 160.657 322.875 160.703 322.63 160.703H320.184V154.307ZM322.401 160.034C322.756 160.034 323.034 159.955 323.235 159.796C323.437 159.637 323.538 159.393 323.538 159.063V158.687C323.538 158.363 323.437 158.122 323.235 157.963C323.034 157.798 322.756 157.716 322.401 157.716H320.953V160.034H322.401ZM322.273 157.083C322.597 157.083 322.85 157.013 323.034 156.873C323.217 156.726 323.308 156.506 323.308 156.213V155.855C323.308 155.562 323.217 155.342 323.034 155.196C322.85 155.049 322.597 154.976 322.273 154.976H320.953V157.083H322.273ZM327.346 160.703V154.307H328.116V160.034H331.149V160.703H327.346ZM333.886 160.703V160.089H335.48V154.921H333.886V154.307H337.844V154.921H336.25V160.089H337.844V160.703H333.886ZM342.945 160.813C342.163 160.813 341.58 160.529 341.195 159.961C340.816 159.393 340.627 158.574 340.627 157.505C340.627 156.436 340.816 155.617 341.195 155.049C341.58 154.481 342.163 154.197 342.945 154.197C343.238 154.197 343.492 154.236 343.706 154.316C343.92 154.395 344.103 154.502 344.256 154.637C344.408 154.771 344.537 154.924 344.64 155.095C344.744 155.26 344.836 155.428 344.915 155.599L344.256 155.901C344.201 155.761 344.136 155.629 344.063 155.507C343.99 155.379 343.901 155.269 343.797 155.177C343.7 155.08 343.58 155.003 343.44 154.948C343.306 154.893 343.141 154.866 342.945 154.866C342.438 154.866 342.059 155.058 341.809 155.443C341.564 155.828 341.442 156.341 341.442 156.983V158.027C341.442 158.669 341.564 159.182 341.809 159.567C342.059 159.952 342.438 160.144 342.945 160.144C343.141 160.144 343.306 160.117 343.44 160.062C343.58 160.007 343.7 159.933 343.797 159.842C343.901 159.744 343.99 159.634 344.063 159.512C344.136 159.384 344.201 159.249 344.256 159.109L344.915 159.411C344.836 159.588 344.744 159.759 344.64 159.924C344.537 160.089 344.408 160.239 344.256 160.373C344.103 160.508 343.92 160.615 343.706 160.694C343.492 160.773 343.238 160.813 342.945 160.813ZM347.954 160.703V154.307H348.724V160.034H351.757V160.703H347.954ZM356.088 160.703V158.192L353.88 154.307H354.759L355.676 155.975L356.455 157.432H356.491L357.289 155.975L358.205 154.307H359.066L356.858 158.192V160.703H356.088Z" fill="black"/>
<path d="M251.49 166.554H253.662C254.212 166.554 254.642 166.703 254.954 167.003C255.266 167.302 255.421 167.702 255.421 168.203C255.421 168.588 255.327 168.891 255.137 169.111C254.954 169.33 254.716 169.486 254.422 169.578V169.605C254.783 169.691 255.079 169.853 255.311 170.091C255.544 170.323 255.66 170.662 255.66 171.108C255.66 171.365 255.617 171.606 255.531 171.832C255.446 172.058 255.324 172.254 255.165 172.419C255.012 172.584 254.829 172.715 254.615 172.813C254.407 172.904 254.181 172.95 253.937 172.95H251.49V166.554ZM253.708 172.281C254.062 172.281 254.34 172.202 254.542 172.043C254.743 171.884 254.844 171.64 254.844 171.31V170.934C254.844 170.61 254.743 170.369 254.542 170.21C254.34 170.045 254.062 169.963 253.708 169.963H252.26V172.281H253.708ZM253.579 169.33C253.903 169.33 254.157 169.26 254.34 169.12C254.523 168.973 254.615 168.753 254.615 168.46V168.102C254.615 167.809 254.523 167.589 254.34 167.443C254.157 167.296 253.903 167.223 253.579 167.223H252.26V169.33H253.579ZM259.056 166.554V170.393C259.056 170.705 259.065 170.983 259.083 171.227C259.102 171.472 259.151 171.683 259.23 171.86C259.309 172.031 259.432 172.162 259.596 172.254C259.768 172.345 260.003 172.391 260.302 172.391C260.601 172.391 260.834 172.345 260.999 172.254C261.17 172.162 261.295 172.031 261.374 171.86C261.454 171.683 261.503 171.472 261.521 171.227C261.539 170.983 261.548 170.705 261.548 170.393V166.554H262.318V170.21C262.318 170.687 262.294 171.102 262.245 171.456C262.202 171.811 262.107 172.107 261.961 172.345C261.82 172.584 261.616 172.764 261.347 172.886C261.084 173.002 260.736 173.06 260.302 173.06C259.868 173.06 259.517 173.002 259.248 172.886C258.986 172.764 258.781 172.584 258.634 172.345C258.494 172.107 258.399 171.811 258.35 171.456C258.307 171.102 258.286 170.687 258.286 170.21V166.554H259.056ZM265.192 172.95V172.336H266.787V167.168H265.192V166.554H269.151V167.168H267.556V172.336H269.151V172.95H265.192ZM272.391 172.95V166.554H273.161V172.281H276.194V172.95H272.391ZM281.295 167.223V172.95H280.525V167.223H278.39V166.554H283.43V167.223H281.295ZM292.724 172.95L292.22 166.554H292.908L293.173 170.219L293.311 172.153H293.384L294.227 168.222H295.089L295.932 172.153H296.005L296.143 170.219L296.408 166.554H297.077L296.573 172.95H295.464L294.686 169.129H294.612L293.833 172.95H292.724ZM299.539 172.95V172.336H301.133V167.168H299.539V166.554H303.498V167.168H301.903V172.336H303.498V172.95H299.539ZM308.772 167.223V172.95H308.003V167.223H305.867V166.554H310.908V167.223H308.772ZM316.503 170.045H314.011V172.95H313.241V166.554H314.011V169.376H316.503V166.554H317.273V172.95H316.503V170.045ZM327.016 172.95V172.336H328.611V167.168H327.016V166.554H330.975V167.168H329.381V172.336H330.975V172.95H327.016ZM334.61 167.562H334.545V172.95H333.849V166.554H334.939L337.12 171.942H337.185V166.554H337.881V172.95H336.791L334.61 167.562ZM343.119 167.223V172.95H342.349V167.223H340.214V166.554H345.254V167.223H343.119ZM347.679 172.95V166.554H351.62V167.223H348.449V169.376H351.51V170.045H348.449V172.281H351.62V172.95H347.679ZM355.218 167.562H355.153V172.95H354.457V166.554H355.547L357.728 171.942H357.793V166.554H358.489V172.95H357.399L355.218 167.562ZM363.727 167.223V172.95H362.957V167.223H360.822V166.554H365.862V167.223H363.727ZM368.232 172.95V172.336H369.827V167.168H368.232V166.554H372.191V167.168H370.597V172.336H372.191V172.95H368.232ZM377.081 173.06C376.69 173.06 376.354 172.987 376.073 172.84C375.792 172.687 375.56 172.471 375.377 172.19C375.193 171.909 375.059 171.563 374.973 171.154C374.888 170.745 374.845 170.277 374.845 169.752C374.845 169.233 374.888 168.768 374.973 168.359C375.059 167.944 375.193 167.595 375.377 167.314C375.56 167.033 375.792 166.82 376.073 166.673C376.354 166.52 376.69 166.444 377.081 166.444C377.472 166.444 377.808 166.52 378.089 166.673C378.37 166.82 378.602 167.033 378.786 167.314C378.969 167.595 379.103 167.944 379.189 168.359C379.274 168.768 379.317 169.233 379.317 169.752C379.317 170.277 379.274 170.745 379.189 171.154C379.103 171.563 378.969 171.909 378.786 172.19C378.602 172.471 378.37 172.687 378.089 172.84C377.808 172.987 377.472 173.06 377.081 173.06ZM377.081 172.391C377.338 172.391 377.555 172.342 377.732 172.245C377.909 172.141 378.056 171.997 378.172 171.814C378.288 171.631 378.37 171.411 378.419 171.154C378.474 170.891 378.501 170.598 378.501 170.274V169.23C378.501 168.912 378.474 168.622 378.419 168.359C378.37 168.096 378.288 167.873 378.172 167.69C378.056 167.507 377.909 167.366 377.732 167.269C377.555 167.165 377.338 167.113 377.081 167.113C376.824 167.113 376.608 167.165 376.43 167.269C376.253 167.366 376.107 167.507 375.991 167.69C375.875 167.873 375.789 168.096 375.734 168.359C375.685 168.622 375.661 168.912 375.661 169.23V170.274C375.661 170.598 375.685 170.891 375.734 171.154C375.789 171.411 375.875 171.631 375.991 171.814C376.107 171.997 376.253 172.141 376.43 172.245C376.608 172.342 376.824 172.391 377.081 172.391ZM382.695 167.562H382.631V172.95H381.934V166.554H383.025L385.206 171.942H385.27V166.554H385.966V172.95H384.876L382.695 167.562Z" fill="black"/>
<path d="M23.1935 180.378C23.1935 180.938 22.9604 181.35 22.494 181.616C22.0277 181.888 21.3282 182.025 20.3956 182.025C19.4988 182.025 18.8531 181.906 18.4585 181.669C18.0711 181.433 17.8774 181.092 17.8774 180.647C17.8774 180.346 17.9564 180.113 18.1142 179.948C18.272 179.783 18.4944 179.661 18.7814 179.582V179.453C18.6236 179.374 18.5016 179.273 18.4155 179.151C18.3294 179.029 18.2864 178.875 18.2864 178.689C18.2864 178.402 18.3796 178.186 18.5662 178.043C18.7599 177.899 19.0002 177.792 19.2872 177.72V177.677C18.9428 177.526 18.6738 177.304 18.4801 177.01C18.2935 176.716 18.2003 176.371 18.2003 175.977C18.2003 175.697 18.2505 175.439 18.3509 175.202C18.4514 174.965 18.5949 174.764 18.7814 174.599C18.9751 174.427 19.2047 174.294 19.4701 174.201C19.7356 174.108 20.0297 174.061 20.3525 174.061C20.7686 174.061 21.1345 174.137 21.4502 174.287V174.19C21.4502 173.975 21.5004 173.796 21.6009 173.652C21.7013 173.509 21.8735 173.437 22.1174 173.437H23.1397V174.19H21.8914V174.567C22.0923 174.739 22.2465 174.944 22.3542 175.18C22.4618 175.417 22.5156 175.683 22.5156 175.977C22.5156 176.256 22.4618 176.515 22.3542 176.752C22.2537 176.988 22.1102 177.193 21.9237 177.365C21.7372 177.53 21.5076 177.659 21.235 177.752C20.9695 177.846 20.6754 177.892 20.3525 177.892C20.2593 177.892 20.1696 177.889 20.0835 177.881C19.9974 177.874 19.9113 177.864 19.8252 177.849C19.7391 177.864 19.6495 177.889 19.5562 177.924C19.4629 177.953 19.3768 177.996 19.2979 178.054C19.219 178.104 19.1544 178.165 19.1042 178.237C19.054 178.308 19.0289 178.391 19.0289 178.484C19.0289 178.649 19.1114 178.76 19.2764 178.818C19.4414 178.868 19.6566 178.893 19.9221 178.893H21.1489C21.8663 178.893 22.3864 179.029 22.7093 179.302C23.0321 179.567 23.1935 179.926 23.1935 180.378ZM22.3864 180.421C22.3864 180.199 22.2968 180.019 22.1174 179.883C21.938 179.754 21.626 179.689 21.1812 179.689H19.2549C18.8818 179.84 18.6953 180.091 18.6953 180.443C18.6953 180.687 18.7921 180.895 18.9859 181.067C19.1796 181.246 19.5024 181.336 19.9544 181.336H20.7938C21.296 181.336 21.6869 181.257 21.9667 181.099C22.2465 180.948 22.3864 180.722 22.3864 180.421ZM20.3525 177.225C20.783 177.225 21.0987 177.125 21.2995 176.924C21.5076 176.723 21.6116 176.457 21.6116 176.127V175.815C21.6116 175.485 21.5076 175.223 21.2995 175.03C21.0987 174.829 20.783 174.728 20.3525 174.728C19.9221 174.728 19.6064 174.829 19.4055 175.03C19.2047 175.223 19.1042 175.485 19.1042 175.815V176.127C19.1042 176.457 19.2047 176.723 19.4055 176.924C19.6064 177.125 19.9221 177.225 20.3525 177.225ZM27.8059 179.872C27.4185 179.872 27.067 179.804 26.7513 179.668C26.4428 179.532 26.1774 179.338 25.955 179.087C25.7398 178.828 25.5748 178.524 25.46 178.172C25.3452 177.813 25.2878 177.412 25.2878 176.967C25.2878 176.529 25.3452 176.131 25.46 175.772C25.5748 175.414 25.7398 175.109 25.955 174.858C26.1774 174.599 26.4428 174.402 26.7513 174.266C27.067 174.129 27.4185 174.061 27.8059 174.061C28.1934 174.061 28.5413 174.129 28.8498 174.266C29.1655 174.402 29.4309 174.599 29.6461 174.858C29.8685 175.109 30.0371 175.414 30.1519 175.772C30.2667 176.131 30.3241 176.529 30.3241 176.967C30.3241 177.412 30.2667 177.813 30.1519 178.172C30.0371 178.524 29.8685 178.828 29.6461 179.087C29.4309 179.338 29.1655 179.532 28.8498 179.668C28.5413 179.804 28.1934 179.872 27.8059 179.872ZM27.8059 179.13C28.2866 179.13 28.674 178.986 28.9682 178.699C29.2623 178.412 29.4094 177.968 29.4094 177.365V176.569C29.4094 175.966 29.2623 175.521 28.9682 175.234C28.674 174.947 28.2866 174.804 27.8059 174.804C27.3253 174.804 26.9379 174.947 26.6437 175.234C26.3496 175.521 26.2025 175.966 26.2025 176.569V177.365C26.2025 177.968 26.3496 178.412 26.6437 178.699C26.9379 178.986 27.3253 179.13 27.8059 179.13ZM35.2271 179.872C34.8397 179.872 34.4881 179.804 34.1724 179.668C33.864 179.532 33.5985 179.338 33.3761 179.087C33.1609 178.828 32.9959 178.524 32.8811 178.172C32.7663 177.813 32.7089 177.412 32.7089 176.967C32.7089 176.529 32.7663 176.131 32.8811 175.772C32.9959 175.414 33.1609 175.109 33.3761 174.858C33.5985 174.599 33.864 174.402 34.1724 174.266C34.4881 174.129 34.8397 174.061 35.2271 174.061C35.6145 174.061 35.9624 174.129 36.2709 174.266C36.5866 174.402 36.852 174.599 37.0672 174.858C37.2896 175.109 37.4582 175.414 37.573 175.772C37.6878 176.131 37.7452 176.529 37.7452 176.967C37.7452 177.412 37.6878 177.813 37.573 178.172C37.4582 178.524 37.2896 178.828 37.0672 179.087C36.852 179.338 36.5866 179.532 36.2709 179.668C35.9624 179.804 35.6145 179.872 35.2271 179.872ZM35.2271 179.13C35.7077 179.13 36.0951 178.986 36.3893 178.699C36.6834 178.412 36.8305 177.968 36.8305 177.365V176.569C36.8305 175.966 36.6834 175.521 36.3893 175.234C36.0951 174.947 35.7077 174.804 35.2271 174.804C34.7464 174.804 34.359 174.947 34.0648 175.234C33.7707 175.521 33.6236 175.966 33.6236 176.569V177.365C33.6236 177.968 33.7707 178.412 34.0648 178.699C34.359 178.986 34.7464 179.13 35.2271 179.13ZM45.4569 180.378C45.4569 180.938 45.2237 181.35 44.7574 181.616C44.2911 181.888 43.5916 182.025 42.6589 182.025C41.7622 182.025 41.1165 181.906 40.7219 181.669C40.3345 181.433 40.1408 181.092 40.1408 180.647C40.1408 180.346 40.2197 180.113 40.3775 179.948C40.5354 179.783 40.7578 179.661 41.0447 179.582V179.453C40.8869 179.374 40.7649 179.273 40.6789 179.151C40.5928 179.029 40.5497 178.875 40.5497 178.689C40.5497 178.402 40.643 178.186 40.8295 178.043C41.0232 177.899 41.2636 177.792 41.5505 177.72V177.677C41.2062 177.526 40.9371 177.304 40.7434 177.01C40.5569 176.716 40.4636 176.371 40.4636 175.977C40.4636 175.697 40.5138 175.439 40.6143 175.202C40.7147 174.965 40.8582 174.764 41.0447 174.599C41.2384 174.427 41.468 174.294 41.7335 174.201C41.9989 174.108 42.2931 174.061 42.6159 174.061C43.032 174.061 43.3979 174.137 43.7135 174.287V174.19C43.7135 173.975 43.7638 173.796 43.8642 173.652C43.9646 173.509 44.1368 173.437 44.3808 173.437H45.4031V174.19H44.1548V174.567C44.3556 174.739 44.5099 174.944 44.6175 175.18C44.7251 175.417 44.7789 175.683 44.7789 175.977C44.7789 176.256 44.7251 176.515 44.6175 176.752C44.5171 176.988 44.3736 177.193 44.187 177.365C44.0005 177.53 43.7709 177.659 43.4983 177.752C43.2329 177.846 42.9387 177.892 42.6159 177.892C42.5226 177.892 42.433 177.889 42.3469 177.881C42.2608 177.874 42.1747 177.864 42.0886 177.849C42.0025 177.864 41.9128 177.889 41.8196 177.924C41.7263 177.953 41.6402 177.996 41.5613 178.054C41.4824 178.104 41.4178 178.165 41.3676 178.237C41.3174 178.308 41.2922 178.391 41.2922 178.484C41.2922 178.649 41.3748 178.76 41.5398 178.818C41.7048 178.868 41.92 178.893 42.1854 178.893H43.4122C44.1297 178.893 44.6498 179.029 44.9726 179.302C45.2955 179.567 45.4569 179.926 45.4569 180.378ZM44.6498 180.421C44.6498 180.199 44.5601 180.019 44.3808 179.883C44.2014 179.754 43.8893 179.689 43.4445 179.689H41.5182C41.1452 179.84 40.9586 180.091 40.9586 180.443C40.9586 180.687 41.0555 180.895 41.2492 181.067C41.4429 181.246 41.7657 181.336 42.2177 181.336H43.0571C43.5593 181.336 43.9503 181.257 44.2301 181.099C44.5099 180.948 44.6498 180.722 44.6498 180.421ZM42.6159 177.225C43.0463 177.225 43.362 177.125 43.5629 176.924C43.7709 176.723 43.875 176.457 43.875 176.127V175.815C43.875 175.485 43.7709 175.223 43.5629 175.03C43.362 174.829 43.0463 174.728 42.6159 174.728C42.1854 174.728 41.8698 174.829 41.6689 175.03C41.468 175.223 41.3676 175.485 41.3676 175.815V176.127C41.3676 176.457 41.468 176.723 41.6689 176.924C41.8698 177.125 42.1854 177.225 42.6159 177.225ZM47.7018 179.011H49.6388V172.512H47.7018V171.78H50.4997V179.011H52.4368V179.743H47.7018V179.011ZM57.5873 179.872C57.1855 179.872 56.8232 179.804 56.5004 179.668C56.1847 179.532 55.9121 179.338 55.6825 179.087C55.4601 178.828 55.2879 178.524 55.166 178.172C55.044 177.813 54.983 177.415 54.983 176.978C54.983 176.533 55.044 176.131 55.166 175.772C55.2951 175.414 55.4709 175.109 55.6933 174.858C55.9157 174.599 56.1811 174.402 56.4896 174.266C56.8053 174.129 57.1532 174.061 57.5335 174.061C57.9065 174.061 58.2437 174.129 58.545 174.266C58.8535 174.402 59.1154 174.592 59.3306 174.836C59.5458 175.073 59.7108 175.356 59.8256 175.686C59.9404 176.016 59.9978 176.378 59.9978 176.773V177.182H55.887V177.44C55.887 177.684 55.9264 177.91 56.0053 178.118C56.0843 178.326 56.1955 178.506 56.339 178.656C56.4896 178.807 56.669 178.925 56.877 179.011C57.0922 179.09 57.329 179.13 57.5873 179.13C57.9603 179.13 58.2832 179.044 58.5558 178.871C58.8284 178.699 59.0365 178.463 59.1799 178.161L59.8149 178.592C59.6499 178.965 59.3736 179.273 58.9862 179.517C58.606 179.754 58.1397 179.872 57.5873 179.872ZM57.5335 174.771C57.2967 174.771 57.0779 174.814 56.877 174.901C56.6761 174.987 56.5004 175.105 56.3497 175.256C56.2062 175.406 56.0914 175.586 56.0053 175.794C55.9264 175.995 55.887 176.217 55.887 176.461V176.536H59.0723V176.418C59.0723 176.174 59.0329 175.952 58.954 175.751C58.8822 175.55 58.7782 175.378 58.6419 175.234C58.5127 175.084 58.3513 174.969 58.1576 174.89C57.9711 174.811 57.763 174.771 57.5335 174.771ZM74.4311 179.743C74.0939 179.743 73.8536 179.657 73.7101 179.485C73.5666 179.313 73.4769 179.097 73.4411 178.839H73.3873C73.2653 179.162 73.068 179.417 72.7954 179.603C72.5299 179.783 72.1712 179.872 71.7193 179.872C71.1381 179.872 70.6754 179.722 70.331 179.42C69.9867 179.119 69.8145 178.706 69.8145 178.183C69.8145 177.666 70.001 177.268 70.3741 176.988C70.7543 176.708 71.3641 176.569 72.2035 176.569H73.3873V176.02C73.3873 175.611 73.2725 175.306 73.0429 175.105C72.8133 174.897 72.4869 174.793 72.0636 174.793C71.6906 174.793 71.3857 174.868 71.1489 175.019C70.9122 175.162 70.722 175.36 70.5786 175.611L69.9974 175.18C70.0692 175.037 70.166 174.897 70.288 174.761C70.41 174.624 70.5606 174.506 70.74 174.406C70.9193 174.298 71.1238 174.215 71.3534 174.158C71.5829 174.093 71.8376 174.061 72.1174 174.061C72.7703 174.061 73.2868 174.226 73.6671 174.556C74.0545 174.886 74.2482 175.345 74.2482 175.934V178.99H75.023V179.743H74.4311ZM71.8699 179.151C72.0923 179.151 72.2932 179.126 72.4725 179.076C72.6591 179.019 72.8205 178.947 72.9568 178.861C73.0931 178.767 73.1971 178.66 73.2689 178.538C73.3478 178.409 73.3873 178.272 73.3873 178.129V177.214H72.2035C71.687 177.214 71.3103 177.286 71.0736 177.429C70.8368 177.573 70.7184 177.781 70.7184 178.054V178.28C70.7184 178.567 70.8189 178.785 71.0198 178.936C71.2278 179.08 71.5112 179.151 71.8699 179.151ZM80.0981 172.964C79.847 172.964 79.6713 172.913 79.5708 172.813C79.4704 172.705 79.4202 172.573 79.4202 172.415V172.243C79.4202 172.085 79.4704 171.956 79.5708 171.855C79.6713 171.747 79.847 171.694 80.0981 171.694C80.3492 171.694 80.525 171.747 80.6254 171.855C80.7259 171.956 80.7761 172.085 80.7761 172.243V172.415C80.7761 172.573 80.7259 172.705 80.6254 172.813C80.525 172.913 80.3492 172.964 80.0981 172.964ZM77.6661 179.011H79.6677V174.922H77.6661V174.19H80.5286V179.011H82.4011V179.743H77.6661V179.011ZM94.6606 179.872C94.0795 179.872 93.5773 179.775 93.154 179.582C92.7379 179.381 92.3828 179.115 92.0886 178.785L92.6697 178.28C92.9352 178.559 93.2257 178.775 93.5414 178.925C93.8571 179.076 94.2373 179.151 94.6821 179.151C95.1125 179.151 95.4641 179.076 95.7367 178.925C96.0165 178.767 96.1564 178.524 96.1564 178.194C96.1564 178.05 96.1277 177.932 96.0703 177.838C96.0201 177.738 95.9483 177.659 95.8551 177.602C95.7618 177.544 95.6578 177.501 95.543 177.473C95.4282 177.437 95.3062 177.408 95.1771 177.386L94.3054 177.257C94.1117 177.229 93.9001 177.189 93.6705 177.139C93.4481 177.089 93.2437 177.01 93.0571 176.902C92.8706 176.787 92.7128 176.637 92.5836 176.45C92.4617 176.264 92.4007 176.02 92.4007 175.718C92.4007 175.439 92.4545 175.198 92.5621 174.997C92.6769 174.789 92.8347 174.617 93.0356 174.481C93.2365 174.337 93.4732 174.233 93.7459 174.169C94.0185 174.097 94.3162 174.061 94.639 174.061C95.1412 174.061 95.5753 174.14 95.9412 174.298C96.3142 174.456 96.6335 174.675 96.8989 174.954L96.3393 175.482C96.2748 175.403 96.1923 175.324 96.0918 175.245C95.9986 175.159 95.8802 175.084 95.7367 175.019C95.6004 174.947 95.439 174.89 95.2524 174.847C95.0659 174.804 94.8507 174.782 94.6068 174.782C94.1691 174.782 93.8319 174.858 93.5952 175.008C93.3656 175.159 93.2508 175.378 93.2508 175.665C93.2508 175.808 93.2759 175.93 93.3262 176.031C93.3836 176.124 93.4589 176.199 93.5522 176.256C93.6454 176.314 93.7494 176.361 93.8642 176.396C93.9862 176.425 94.1082 176.45 94.2301 176.472L95.1018 176.601C95.3027 176.63 95.5143 176.669 95.7367 176.719C95.9591 176.769 96.1636 176.852 96.3501 176.967C96.5366 177.074 96.6909 177.221 96.8128 177.408C96.942 177.594 97.0065 177.838 97.0065 178.14C97.0065 178.692 96.7913 179.119 96.3609 179.42C95.9376 179.722 95.3708 179.872 94.6606 179.872ZM102.286 179.743C101.863 179.743 101.551 179.625 101.35 179.388C101.156 179.151 101.059 178.846 101.059 178.473V174.922H99.2084V174.19H100.586C100.772 174.19 100.902 174.154 100.973 174.083C101.052 174.004 101.092 173.871 101.092 173.685V172.232H101.92V174.19H104.449V174.922H101.92V179.011H104.449V179.743H102.286ZM110.751 178.839H110.708C110.651 178.976 110.579 179.108 110.493 179.237C110.407 179.359 110.299 179.467 110.17 179.56C110.048 179.653 109.901 179.729 109.729 179.786C109.557 179.844 109.356 179.872 109.126 179.872C108.545 179.872 108.079 179.689 107.727 179.323C107.376 178.95 107.2 178.427 107.2 177.752V174.19H108.061V177.602C108.061 178.111 108.172 178.491 108.394 178.742C108.617 178.986 108.943 179.108 109.374 179.108C109.546 179.108 109.714 179.087 109.879 179.044C110.044 179.001 110.192 178.936 110.321 178.85C110.45 178.764 110.554 178.656 110.633 178.527C110.712 178.391 110.751 178.229 110.751 178.043V174.19H111.612V179.743H110.751V178.839ZM118.205 178.839H118.161C117.803 179.528 117.232 179.872 116.45 179.872C115.769 179.872 115.234 179.618 114.847 179.108C114.467 178.599 114.277 177.885 114.277 176.967C114.277 176.048 114.467 175.335 114.847 174.825C115.234 174.316 115.769 174.061 116.45 174.061C117.232 174.061 117.803 174.406 118.161 175.094H118.205V171.78H119.065V179.743H118.205V178.839ZM116.784 179.108C116.978 179.108 117.161 179.083 117.333 179.033C117.505 178.983 117.656 178.911 117.785 178.818C117.914 178.717 118.014 178.599 118.086 178.463C118.165 178.319 118.205 178.154 118.205 177.968V175.966C118.205 175.779 118.165 175.618 118.086 175.482C118.014 175.338 117.914 175.22 117.785 175.127C117.656 175.026 117.505 174.951 117.333 174.901C117.161 174.85 116.978 174.825 116.784 174.825C116.282 174.825 115.891 174.979 115.611 175.288C115.338 175.589 115.202 175.991 115.202 176.493V177.44C115.202 177.942 115.338 178.348 115.611 178.656C115.891 178.958 116.282 179.108 116.784 179.108ZM124.625 172.964C124.374 172.964 124.198 172.913 124.098 172.813C123.997 172.705 123.947 172.573 123.947 172.415V172.243C123.947 172.085 123.997 171.956 124.098 171.855C124.198 171.747 124.374 171.694 124.625 171.694C124.876 171.694 125.052 171.747 125.152 171.855C125.253 171.956 125.303 172.085 125.303 172.243V172.415C125.303 172.573 125.253 172.705 125.152 172.813C125.052 172.913 124.876 172.964 124.625 172.964ZM122.193 179.011H124.194V174.922H122.193V174.19H125.055V179.011H126.928V179.743H122.193V179.011ZM131.702 179.872C131.314 179.872 130.963 179.804 130.647 179.668C130.338 179.532 130.073 179.338 129.851 179.087C129.635 178.828 129.47 178.524 129.356 178.172C129.241 177.813 129.183 177.412 129.183 176.967C129.183 176.529 129.241 176.131 129.356 175.772C129.47 175.414 129.635 175.109 129.851 174.858C130.073 174.599 130.338 174.402 130.647 174.266C130.963 174.129 131.314 174.061 131.702 174.061C132.089 174.061 132.437 174.129 132.745 174.266C133.061 174.402 133.327 174.599 133.542 174.858C133.764 175.109 133.933 175.414 134.048 175.772C134.162 176.131 134.22 176.529 134.22 176.967C134.22 177.412 134.162 177.813 134.048 178.172C133.933 178.524 133.764 178.828 133.542 179.087C133.327 179.338 133.061 179.532 132.745 179.668C132.437 179.804 132.089 179.872 131.702 179.872ZM131.702 179.13C132.182 179.13 132.57 178.986 132.864 178.699C133.158 178.412 133.305 177.968 133.305 177.365V176.569C133.305 175.966 133.158 175.521 132.864 175.234C132.57 174.947 132.182 174.804 131.702 174.804C131.221 174.804 130.834 174.947 130.539 175.234C130.245 175.521 130.098 175.966 130.098 176.569V177.365C130.098 177.968 130.245 178.412 130.539 178.699C130.834 178.986 131.221 179.13 131.702 179.13Z" fill="black"/>
<rect x="10" y="9" width="317.356" height="34.0784" fill="black"/>
<rect x="13.1992" y="12.1943" width="41.5331" height="27.6887" fill="white"/>
<rect x="201.16" y="12.1943" width="123.002" height="27.6887" fill="white"/>
<path d="M212.691 19.7966C212.691 19.6168 212.744 19.4745 212.849 19.3696C212.969 19.2497 213.118 19.1898 213.298 19.1898H218.153C218.333 19.1898 218.475 19.2497 218.58 19.3696C218.7 19.4745 218.76 19.6168 218.76 19.7966V20.4035H212.691V19.7966ZM212.691 21.0103C212.691 21.1901 212.632 21.34 212.512 21.4598C212.407 21.5647 212.264 21.6172 212.085 21.6172H211.478V21.0103C211.478 20.8305 211.53 20.6882 211.635 20.5833C211.755 20.4634 211.905 20.4035 212.085 20.4035H212.691V21.0103ZM219.367 21.6172C219.187 21.6172 219.037 21.5647 218.917 21.4598C218.812 21.34 218.76 21.1901 218.76 21.0103V20.4035H219.344C219.524 20.4035 219.666 20.4634 219.771 20.5833C219.891 20.6882 219.951 20.8305 219.951 21.0103V21.6172H219.367ZM210.287 22.224C210.287 22.0442 210.339 21.9019 210.444 21.797C210.564 21.6771 210.714 21.6172 210.893 21.6172H211.478V25.2358H210.287V22.224ZM220.558 21.6172C220.738 21.6172 220.88 21.6771 220.985 21.797C221.105 21.9019 221.165 22.0442 221.165 22.224V24.6289C221.165 24.8087 221.105 24.9586 220.985 25.0785C220.88 25.1833 220.738 25.2358 220.558 25.2358H219.951V21.6172H220.558ZM219.951 25.8426C219.951 26.0224 219.891 26.1723 219.771 26.2921C219.666 26.397 219.524 26.4495 219.344 26.4495H218.76V25.8426C218.76 25.6628 218.812 25.5205 218.917 25.4156C219.037 25.2957 219.187 25.2358 219.367 25.2358H219.951V25.8426ZM218.76 27.0563C218.76 27.2361 218.7 27.386 218.58 27.5058C218.475 27.6107 218.333 27.6632 218.153 27.6632H217.546V27.0563C217.546 26.8765 217.599 26.7342 217.704 26.6293C217.823 26.5094 217.973 26.4495 218.153 26.4495H218.76V27.0563ZM217.546 28.27C217.546 28.4498 217.486 28.5997 217.366 28.7195C217.262 28.8244 217.119 28.8769 216.939 28.8769H216.333V28.27C216.333 28.0902 216.385 27.9479 216.49 27.843C216.61 27.7231 216.76 27.6632 216.939 27.6632H217.546V28.27ZM216.333 29.4837C216.333 29.6635 216.273 29.8134 216.153 29.9332C216.048 30.0381 215.905 30.0906 215.726 30.0906H215.119V29.4837C215.119 29.3039 215.171 29.1616 215.276 29.0567C215.396 28.9368 215.546 28.8769 215.726 28.8769H216.333V29.4837ZM215.119 30.6749C215.119 30.8547 215.059 31.0046 214.939 31.1244C214.834 31.2293 214.692 31.2818 214.512 31.2818H213.905V30.6974C213.905 30.5176 213.958 30.3752 214.062 30.2704C214.182 30.1505 214.332 30.0906 214.512 30.0906H215.119V30.6749ZM213.905 31.8886C213.905 32.0684 213.845 32.2183 213.725 32.3381C213.62 32.443 213.478 32.4955 213.298 32.4955H212.691V31.8886C212.691 31.7088 212.744 31.5665 212.849 31.4616C212.969 31.3417 213.118 31.2818 213.298 31.2818H213.905V31.8886ZM211.478 33.1023C211.478 32.9225 211.53 32.7802 211.635 32.6753C211.755 32.5554 211.905 32.4955 212.085 32.4955H212.691V33.7092H211.478V33.1023ZM211.478 34.316C211.478 34.4958 211.418 34.6457 211.298 34.7655C211.193 34.8704 211.051 34.9229 210.871 34.9229H210.287V33.7092H211.478V34.316ZM213.298 34.9229C213.118 34.9229 212.969 34.8704 212.849 34.7655C212.744 34.6457 212.691 34.4958 212.691 34.316V33.7092H221.165V34.9229H213.298ZM243.912 20.4035V19.7966C243.912 19.6168 243.965 19.4745 244.07 19.3696C244.189 19.2497 244.339 19.1898 244.519 19.1898H249.351C249.531 19.1898 249.674 19.2497 249.778 19.3696C249.898 19.4745 249.958 19.6168 249.958 19.7966V20.4035H243.912ZM242.699 21.6172V21.0103C242.699 20.8305 242.751 20.6882 242.856 20.5833C242.976 20.4634 243.126 20.4035 243.305 20.4035H243.912V21.0103C243.912 21.1901 243.852 21.34 243.732 21.4598C243.628 21.5647 243.485 21.6172 243.305 21.6172H242.699ZM249.958 20.4035H250.565C250.745 20.4035 250.887 20.4634 250.992 20.5833C251.112 20.6882 251.172 20.8305 251.172 21.0103V21.6172H250.565C250.385 21.6172 250.235 21.5647 250.116 21.4598C250.011 21.34 249.958 21.1901 249.958 21.0103V20.4035ZM242.699 30.0906H242.092C241.912 30.0906 241.762 30.0381 241.642 29.9332C241.537 29.8134 241.485 29.6635 241.485 29.4837V22.224C241.485 22.0442 241.537 21.9019 241.642 21.797C241.762 21.6771 241.912 21.6172 242.092 21.6172H242.699V30.0906ZM251.172 22.8309V21.6172H251.779C251.959 21.6172 252.101 21.6696 252.206 21.7745C252.326 21.8794 252.386 22.0292 252.386 22.224C252.386 22.4038 252.326 22.5537 252.206 22.6735C252.101 22.7784 251.959 22.8309 251.779 22.8309H251.172ZM249.958 24.0221V23.4377C249.958 23.2579 250.011 23.1156 250.116 23.0107C250.235 22.8908 250.385 22.8309 250.565 22.8309H251.172V24.0221H249.958ZM248.745 25.2358V24.6289C248.745 24.4491 248.797 24.3068 248.902 24.2019C249.022 24.082 249.172 24.0221 249.351 24.0221H249.958V24.6289C249.958 24.8087 249.898 24.9586 249.778 25.0785C249.674 25.1833 249.531 25.2358 249.351 25.2358H248.745ZM251.172 32.4955V24.0221H251.779C251.959 24.0221 252.101 24.082 252.206 24.2019C252.326 24.3068 252.386 24.4491 252.386 24.6289V31.8886C252.386 32.0684 252.326 32.2183 252.206 32.3381C252.101 32.443 251.959 32.4955 251.779 32.4955H251.172ZM247.531 26.4495V25.8426C247.531 25.6628 247.583 25.5205 247.688 25.4156C247.808 25.2957 247.958 25.2358 248.138 25.2358H248.745V25.8426C248.745 26.0224 248.685 26.1723 248.565 26.2921C248.46 26.397 248.318 26.4495 248.138 26.4495H247.531ZM246.317 27.6632V27.0563C246.317 26.8765 246.37 26.7342 246.475 26.6293C246.594 26.5094 246.744 26.4495 246.924 26.4495H247.531V27.0563C247.531 27.2361 247.471 27.386 247.351 27.5058C247.246 27.6107 247.104 27.6632 246.924 27.6632H246.317ZM245.126 28.8769V28.27C245.126 28.0902 245.178 27.9479 245.283 27.843C245.403 27.7231 245.553 27.6632 245.733 27.6632H246.317V28.27C246.317 28.4498 246.257 28.5997 246.137 28.7195C246.032 28.8244 245.89 28.8769 245.71 28.8769H245.126ZM243.912 30.0906V29.4837C243.912 29.3039 243.965 29.1616 244.07 29.0567C244.189 28.9368 244.339 28.8769 244.519 28.8769H245.126V29.4837C245.126 29.6635 245.066 29.8134 244.946 29.9332C244.841 30.0381 244.699 30.0906 244.519 30.0906H243.912ZM242.699 31.2818V30.0906H243.912V30.6749C243.912 30.8547 243.852 31.0046 243.732 31.1244C243.628 31.2293 243.485 31.2818 243.305 31.2818H242.699ZM241.485 31.8886C241.485 31.7088 241.537 31.5665 241.642 31.4616C241.762 31.3417 241.912 31.2818 242.092 31.2818H242.699V32.4955H242.092C241.912 32.4955 241.762 32.443 241.642 32.3381C241.537 32.2183 241.485 32.0684 241.485 31.8886ZM243.912 33.7092H243.305C243.126 33.7092 242.976 33.6567 242.856 33.5518C242.751 33.432 242.699 33.2821 242.699 33.1023V32.4955H243.305C243.485 32.4955 243.628 32.5554 243.732 32.6753C243.852 32.7802 243.912 32.9225 243.912 33.1023V33.7092ZM251.172 32.4955V33.1023C251.172 33.2821 251.112 33.432 250.992 33.5518C250.887 33.6567 250.745 33.7092 250.565 33.7092H249.958V33.1023C249.958 32.9225 250.011 32.7802 250.116 32.6753C250.235 32.5554 250.385 32.4955 250.565 32.4955H251.172ZM243.912 33.7092H249.958V34.316C249.958 34.4958 249.898 34.6457 249.778 34.7655C249.674 34.8704 249.531 34.9229 249.351 34.9229H244.519C244.339 34.9229 244.189 34.8704 244.07 34.7655C243.965 34.6457 243.912 34.4958 243.912 34.316V33.7092ZM275.11 19.7966C275.11 19.6168 275.163 19.4745 275.267 19.3696C275.387 19.2497 275.537 19.1898 275.717 19.1898H280.572C280.752 19.1898 280.894 19.2497 280.999 19.3696C281.119 19.4745 281.179 19.6168 281.179 19.7966V20.4035H275.11V19.7966ZM275.11 21.0103C275.11 21.1901 275.05 21.34 274.93 21.4598C274.825 21.5647 274.683 21.6172 274.503 21.6172H273.896V21.0103C273.896 20.8305 273.949 20.6882 274.054 20.5833C274.174 20.4634 274.323 20.4035 274.503 20.4035H275.11V21.0103ZM281.785 21.6172C281.606 21.6172 281.456 21.5647 281.336 21.4598C281.231 21.34 281.179 21.1901 281.179 21.0103V20.4035H281.763C281.943 20.4035 282.085 20.4634 282.19 20.5833C282.31 20.6882 282.37 20.8305 282.37 21.0103V21.6172H281.785ZM272.705 22.224C272.705 22.0442 272.758 21.9019 272.862 21.797C272.982 21.6771 273.132 21.6172 273.312 21.6172H273.896V25.2358H272.705V22.224ZM282.977 21.6172C283.156 21.6172 283.299 21.6771 283.404 21.797C283.524 21.9019 283.583 22.0442 283.583 22.224V24.6289C283.583 24.8087 283.524 24.9586 283.404 25.0785C283.299 25.1833 283.156 25.2358 282.977 25.2358H282.37V21.6172H282.977ZM282.37 25.8426C282.37 26.0224 282.31 26.1723 282.19 26.2921C282.085 26.397 281.943 26.4495 281.763 26.4495H281.179V25.8426C281.179 25.6628 281.231 25.5205 281.336 25.4156C281.456 25.2957 281.606 25.2358 281.785 25.2358H282.37V25.8426ZM281.179 27.0563C281.179 27.2361 281.119 27.386 280.999 27.5058C280.894 27.6107 280.752 27.6632 280.572 27.6632H279.965V27.0563C279.965 26.8765 280.017 26.7342 280.122 26.6293C280.242 26.5094 280.392 26.4495 280.572 26.4495H281.179V27.0563ZM279.965 28.27C279.965 28.4498 279.905 28.5997 279.785 28.7195C279.68 28.8244 279.538 28.8769 279.358 28.8769H278.751V28.27C278.751 28.0902 278.804 27.9479 278.908 27.843C279.028 27.7231 279.178 27.6632 279.358 27.6632H279.965V28.27ZM278.751 29.4837C278.751 29.6635 278.691 29.8134 278.571 29.9332C278.466 30.0381 278.324 30.0906 278.144 30.0906H277.537V29.4837C277.537 29.3039 277.59 29.1616 277.695 29.0567C277.815 28.9368 277.965 28.8769 278.144 28.8769H278.751V29.4837ZM277.537 30.6749C277.537 30.8547 277.478 31.0046 277.358 31.1244C277.253 31.2293 277.11 31.2818 276.931 31.2818H276.324V30.6974C276.324 30.5176 276.376 30.3752 276.481 30.2704C276.601 30.1505 276.751 30.0906 276.931 30.0906H277.537V30.6749ZM276.324 31.8886C276.324 32.0684 276.264 32.2183 276.144 32.3381C276.039 32.443 275.897 32.4955 275.717 32.4955H275.11V31.8886C275.11 31.7088 275.163 31.5665 275.267 31.4616C275.387 31.3417 275.537 31.2818 275.717 31.2818H276.324V31.8886ZM273.896 33.1023C273.896 32.9225 273.949 32.7802 274.054 32.6753C274.174 32.5554 274.323 32.4955 274.503 32.4955H275.11V33.7092H273.896V33.1023ZM273.896 34.316C273.896 34.4958 273.836 34.6457 273.717 34.7655C273.612 34.8704 273.469 34.9229 273.29 34.9229H272.705V33.7092H273.896V34.316ZM275.717 34.9229C275.537 34.9229 275.387 34.8704 275.267 34.7655C275.163 34.6457 275.11 34.4958 275.11 34.316V33.7092H283.583V34.9229H275.717ZM306.331 19.7966C306.331 19.6168 306.383 19.4745 306.488 19.3696C306.608 19.2497 306.758 19.1898 306.938 19.1898H311.77C311.95 19.1898 312.092 19.2497 312.197 19.3696C312.317 19.4745 312.377 19.6168 312.377 19.7966V20.4035H306.331V19.7966ZM312.984 21.6172C312.804 21.6172 312.654 21.5647 312.534 21.4598C312.429 21.34 312.377 21.1901 312.377 21.0103V20.4035H312.984C313.164 20.4035 313.306 20.4634 313.411 20.5833C313.531 20.6882 313.591 20.8305 313.591 21.0103V21.6172H312.984ZM306.331 21.0103C306.331 21.1901 306.271 21.34 306.151 21.4598C306.046 21.5647 305.904 21.6172 305.724 21.6172H305.117V21.0103C305.117 20.8305 305.17 20.6882 305.275 20.5833C305.394 20.4634 305.544 20.4035 305.724 20.4035H306.331V21.0103ZM303.904 22.224C303.904 22.0442 303.956 21.9019 304.061 21.797C304.181 21.6771 304.331 21.6172 304.51 21.6172H305.117V27.6632H304.51C304.331 27.6632 304.181 27.6107 304.061 27.5058C303.956 27.386 303.904 27.2361 303.904 27.0563V22.224ZM314.197 21.6172C314.377 21.6172 314.52 21.6771 314.624 21.797C314.744 21.9019 314.804 22.0442 314.804 22.224V22.8309H313.591V21.6172H314.197ZM307.545 25.8426C307.545 25.6628 307.597 25.5205 307.702 25.4156C307.822 25.2957 307.972 25.2358 308.151 25.2358H311.77C311.95 25.2358 312.092 25.2957 312.197 25.4156C312.317 25.5205 312.377 25.6628 312.377 25.8426V26.4495H307.545V25.8426ZM307.545 27.0563C307.545 27.2361 307.485 27.386 307.365 27.5058C307.26 27.6107 307.118 27.6632 306.938 27.6632H306.331V27.0563C306.331 26.8765 306.383 26.7342 306.488 26.6293C306.608 26.5094 306.758 26.4495 306.938 26.4495H307.545V27.0563ZM312.984 27.6632C312.804 27.6632 312.654 27.6107 312.534 27.5058C312.429 27.386 312.377 27.2361 312.377 27.0563V26.4495H312.984C313.164 26.4495 313.306 26.5094 313.411 26.6293C313.531 26.7342 313.591 26.8765 313.591 27.0563V27.6632H312.984ZM306.331 28.27C306.331 28.4498 306.271 28.5997 306.151 28.7195C306.046 28.8244 305.904 28.8769 305.724 28.8769H305.117V27.6632H306.331V28.27ZM314.197 27.6632C314.377 27.6632 314.52 27.7231 314.624 27.843C314.744 27.9479 314.804 28.0902 314.804 28.27V31.8886C314.804 32.0684 314.744 32.2183 314.624 32.3381C314.52 32.443 314.377 32.4955 314.197 32.4955H313.591V27.6632H314.197ZM303.904 29.4837C303.904 29.3039 303.956 29.1616 304.061 29.0567C304.181 28.9368 304.331 28.8769 304.51 28.8769H305.117V32.4955H304.51C304.331 32.4955 304.181 32.443 304.061 32.3381C303.956 32.2183 303.904 32.0684 303.904 31.8886V29.4837ZM305.724 33.7092C305.544 33.7092 305.394 33.6567 305.275 33.5518C305.17 33.432 305.117 33.2821 305.117 33.1023V32.4955H305.724C305.904 32.4955 306.046 32.5554 306.151 32.6753C306.271 32.7802 306.331 32.9225 306.331 33.1023V33.7092H305.724ZM313.591 33.1023C313.591 33.2821 313.531 33.432 313.411 33.5518C313.306 33.6567 313.164 33.7092 312.984 33.7092H312.377V33.1023C312.377 32.9225 312.429 32.7802 312.534 32.6753C312.654 32.5554 312.804 32.4955 312.984 32.4955H313.591V33.1023ZM306.938 34.9229C306.758 34.9229 306.608 34.8704 306.488 34.7655C306.383 34.6457 306.331 34.4958 306.331 34.316V33.7092H312.377V34.316C312.377 34.4958 312.317 34.6457 312.197 34.7655C312.092 34.8704 311.95 34.9229 311.77 34.9229H306.938Z" fill="black"/>
<path d="M211.02 133.153C209.223 130.925 206.994 129.088 204.463 127.749C199.24 124.995 193.018 124.899 187.71 127.486C185.08 128.762 182.745 130.575 180.854 132.807C178.969 135.035 177.506 137.587 176.538 140.34C174.581 145.881 174.581 151.925 176.538 157.465C177.506 160.219 178.969 162.773 180.854 165.002C182.745 167.231 185.08 169.043 187.71 170.322C193.018 172.907 199.24 172.81 204.463 170.06C206.994 168.721 209.223 166.881 211.02 164.655C214.543 160.164 216.458 154.625 216.458 148.918C216.458 143.211 214.543 137.671 211.02 133.183V133.153ZM215.653 146.442V146.439C215.421 147.102 215.071 147.714 214.618 148.248C213.708 149.346 212.353 149.976 210.927 149.967C209.515 149.919 208.2 149.241 207.344 148.116C205.561 145.851 205.561 142.66 207.344 140.395C207.845 139.761 208.496 139.261 209.235 138.935C208.894 139.164 208.59 139.439 208.324 139.755C206.605 141.818 206.605 144.816 208.324 146.879C209.126 147.935 210.378 148.55 211.702 148.544C213.026 148.538 214.272 147.911 215.065 146.849C215.288 146.577 215.478 146.282 215.635 145.968C215.62 146.131 215.644 146.285 215.659 146.439L215.653 146.442ZM215.544 145.6V145.597C215.366 145.998 215.134 146.372 214.857 146.71C214.097 147.633 212.963 148.167 211.768 148.17C210.586 148.128 209.485 147.561 208.764 146.626C207.281 144.72 207.281 142.054 208.764 140.147C209.172 139.619 209.702 139.197 210.309 138.92C210.025 139.116 209.766 139.342 209.536 139.598C208.098 141.351 208.098 143.878 209.536 145.63C210.248 146.481 211.301 146.969 212.408 146.966C213.496 146.927 214.513 146.411 215.179 145.552C215.279 145.422 215.369 145.29 215.451 145.151C215.496 145.299 215.529 145.443 215.55 145.597L215.544 145.6ZM206.912 140.069C204.883 142.521 204.883 146.068 206.912 148.516C207.878 149.726 209.346 150.419 210.893 150.398C212.441 150.377 213.891 149.644 214.826 148.408C215.194 147.955 215.496 147.452 215.722 146.912C215.725 146.969 215.725 147.029 215.722 147.09C215.454 148.106 214.965 149.056 214.292 149.867C213.216 151.209 211.581 151.982 209.859 151.954C208.14 151.93 206.526 151.11 205.492 149.738C203.354 146.99 203.354 143.141 205.492 140.394C206.532 139.046 208.119 138.232 209.823 138.171C210.043 138.156 210.266 138.156 210.486 138.171C209.09 138.304 207.802 138.986 206.912 140.068L206.912 140.069ZM213.584 152.986H213.581C212.094 154.871 209.811 155.954 207.41 155.917C205.01 155.881 202.763 154.729 201.33 152.802C198.365 148.99 198.365 143.651 201.33 139.839C202.778 137.969 204.979 136.835 207.344 136.751C207.796 136.742 208.249 136.775 208.695 136.85C206.487 136.85 204.394 137.831 202.983 139.529C200.078 143.021 200.078 148.088 202.983 151.58C204.361 153.314 206.463 154.31 208.677 154.277C210.891 154.246 212.963 153.191 214.293 151.42C214.82 150.766 215.252 150.042 215.574 149.264C215.182 150.633 214.504 151.903 213.581 152.986L213.584 152.986ZM215.406 150.802C214.938 152.359 214.148 153.8 213.089 155.034C211.325 157.239 208.641 158.505 205.815 158.463C202.992 158.421 200.347 157.076 198.649 154.817C196.954 152.63 196.034 149.943 196.034 147.177C196.034 144.412 196.954 141.725 198.649 139.538C200.365 137.309 202.989 135.97 205.799 135.886C206.372 135.874 206.943 135.922 207.506 136.025H207.344C204.72 136.016 202.232 137.18 200.558 139.197C198.896 141.203 197.985 143.724 197.985 146.327C197.985 148.933 198.896 151.454 200.558 153.46C202.234 155.469 204.726 156.624 207.344 156.609C209.925 156.521 212.332 155.291 213.915 153.249C214.525 152.51 215.025 151.683 215.405 150.803L215.406 150.802ZM205.8 135.035C202.7 135.014 199.75 136.386 197.772 138.772C195.814 141.136 194.744 144.11 194.744 147.177C194.744 150.244 195.814 153.218 197.772 155.583C199.756 157.962 202.7 159.332 205.8 159.32C208.834 159.208 211.663 157.757 213.521 155.357C214.181 154.539 214.733 153.637 215.165 152.678C214.616 154.376 213.735 155.951 212.58 157.311C210.43 159.902 207.236 161.395 203.87 161.379C200.571 161.259 197.497 159.672 195.486 157.055C193.474 154.47 192.382 151.288 192.382 148.009C192.382 144.734 193.474 141.552 195.486 138.964C197.501 136.353 200.574 134.772 203.87 134.649C205.131 134.615 206.389 134.821 207.577 135.252C206.992 135.119 206.398 135.047 205.8 135.035L205.8 135.035ZM211.775 138.687C210.556 139.327 209.805 140.609 209.844 141.984C209.739 143.842 211.147 145.437 213.002 145.561C213.913 145.54 214.767 145.108 215.318 144.388C215.358 144.566 215.397 144.734 215.427 144.912C215.324 145.09 215.204 145.259 215.074 145.422C214.423 146.203 213.458 146.656 212.441 146.656C211.44 146.616 210.508 146.137 209.899 145.344C208.644 143.736 208.644 141.477 209.899 139.87C210.348 139.291 210.972 138.871 211.675 138.672L211.775 138.687ZM209.844 137.662C207.953 137.665 206.159 138.512 204.959 139.978C202.488 142.949 202.488 147.259 204.959 150.229C206.162 151.686 207.956 152.521 209.844 152.509C211.699 152.449 213.427 151.565 214.564 150.099C214.908 149.677 215.204 149.216 215.442 148.724C215.101 149.629 214.607 150.467 213.976 151.203C212.716 152.787 210.792 153.694 208.765 153.664C206.741 153.634 204.844 152.669 203.632 151.049C201.128 147.825 201.128 143.316 203.632 140.093C204.853 138.512 206.714 137.553 208.711 137.475C209.428 137.463 210.146 137.574 210.828 137.801C210.496 137.725 210.161 137.68 209.823 137.662L209.844 137.662ZM209.003 134.99C207.423 134.148 205.661 133.69 203.87 133.654C200.211 133.642 196.737 135.264 194.396 138.078C192.077 140.874 190.807 144.394 190.807 148.028C190.807 151.659 192.077 155.179 194.396 157.975C196.737 160.786 200.211 162.402 203.87 162.384C205.661 162.348 207.42 161.893 209.003 161.057C210.559 160.222 211.932 159.082 213.035 157.706C213.343 157.32 213.63 156.934 213.901 156.503L213.898 156.5C213.355 157.553 212.692 158.542 211.922 159.444C209.389 162.499 205.619 164.263 201.647 164.245C199.713 164.2 197.819 163.699 196.118 162.785C194.426 161.878 192.936 160.635 191.739 159.133C189.363 156.078 188.072 152.317 188.072 148.447C188.072 144.578 189.363 140.817 191.739 137.762C192.936 136.26 194.426 135.017 196.118 134.109C197.822 133.207 199.716 132.716 201.647 132.674C204.611 132.643 207.498 133.63 209.823 135.469C209.552 135.291 209.283 135.123 209.003 134.99L209.003 134.99ZM207.706 133.069C203.9 131.045 199.355 130.963 195.476 132.842C193.552 133.765 191.842 135.08 190.458 136.703C187.719 140.008 186.22 144.165 186.22 148.457C186.22 152.749 187.719 156.904 190.458 160.207C191.842 161.833 193.552 163.148 195.476 164.068C199.355 165.947 203.9 165.865 207.706 163.845C209.546 162.861 211.166 161.516 212.471 159.891C212.743 159.55 212.99 159.203 213.243 158.847C212.658 159.891 211.977 160.877 211.205 161.791C208.222 165.38 203.788 167.446 199.123 167.418C196.855 167.364 194.632 166.782 192.629 165.72C190.642 164.65 188.893 163.19 187.487 161.426C184.694 157.84 183.177 153.424 183.177 148.879C183.177 144.334 184.694 139.919 187.487 136.333C188.893 134.571 190.642 133.112 192.629 132.041C194.632 130.982 196.855 130.406 199.123 130.358C202.657 130.316 206.096 131.513 208.843 133.739C208.475 133.492 208.098 133.263 207.706 133.051L207.706 133.069ZM210.378 164.106C208.611 166.184 206.427 167.873 203.969 169.061C199.059 171.459 193.296 171.362 188.467 168.808C186.112 167.547 184.034 165.825 182.36 163.741C179.048 159.504 177.248 154.28 177.248 148.902C177.248 143.525 179.048 138.301 182.36 134.063C184.034 131.979 186.112 130.257 188.467 128.996C193.296 126.442 199.06 126.348 203.969 128.743C206.427 129.931 208.611 131.62 210.378 133.698C210.65 134.015 210.903 134.347 211.15 134.673C209.751 133.104 208.086 131.798 206.231 130.812C204.039 129.651 201.605 129.018 199.123 128.966C196.626 128.921 194.156 129.458 191.903 130.535C189.644 131.623 187.635 133.177 186.012 135.089C184.39 136.995 183.132 139.184 182.297 141.543C180.614 146.29 180.614 151.468 182.297 156.212C183.132 158.574 184.39 160.761 186.012 162.67C187.635 164.588 189.641 166.144 191.903 167.239C194.165 168.313 196.65 168.84 199.153 168.783C201.635 168.732 204.069 168.101 206.265 166.937C208.12 165.951 209.784 164.645 211.181 163.077C210.903 163.442 210.65 163.773 210.379 164.09L210.378 164.106Z" fill="black"/>
<path d="M47.1822 26.2606C45.6258 26.2338 44.2605 26.2069 43.0598 26.1576C41.4914 24.053 39.496 22.3054 37.2017 21.0298C39.5349 22.3831 41.2973 24.2412 42.2116 26.1158C36.4758 25.7977 34.9463 24.7312 34.4457 19.8065C35.4047 20.1157 36.3292 20.525 37.2015 21.0299C36.3128 20.5161 35.3867 20.0665 34.4338 19.6841C34.2724 18.0172 34.2276 15.9364 34.1813 13.2598C34.135 15.8184 34.0902 17.8483 33.9438 19.4929C29.5509 17.8633 25.5315 18.162 24.1813 20.4832C23.309 22.0127 23.7527 24.0696 25.1642 26.1577C23.9976 26.204 22.6832 26.2309 21.1836 26.2578C22.74 26.2847 24.1052 26.3116 25.306 26.3609C26.8729 28.4655 28.8685 30.2146 31.1609 31.4918C28.8277 30.1385 27.0653 28.2804 26.151 26.4058C31.8868 26.724 33.4163 27.7904 33.9169 32.7151C32.9579 32.4059 32.0334 31.9966 31.1611 31.4918C32.0498 32.0056 32.9759 32.4552 33.9288 32.8375C34.0901 34.5045 34.135 36.6046 34.1813 39.2574C34.2276 36.6987 34.2724 34.6688 34.4188 33.0243C38.8117 34.6539 42.8311 34.3552 44.1813 32.034C45.0536 30.5044 44.6099 28.4476 43.1984 26.3594C44.3635 26.3146 45.6794 26.2877 47.1822 26.2609V26.2606ZM26.033 26.1232C25.322 24.4862 25.2683 22.8535 26.0136 21.5346C27.2832 19.336 30.4871 18.6817 33.9362 19.6421C33.4508 24.7313 31.9093 25.8096 26.0286 26.1232L26.033 26.1232ZM42.3572 30.9791C41.0875 33.1778 37.8836 33.8321 34.4346 32.891C34.911 27.7901 36.4525 26.7118 42.333 26.3982C43.0439 28.0353 43.1097 29.6679 42.3524 30.9791H42.3572Z" fill="black"/>
<path d="M65.5026 35.1299L60.4092 17.9551H62.5992L65.0351 26.5425L66.8805 33.0384H67.0036L68.849 26.5425L71.285 17.9551H73.4011L68.3077 35.1299H65.5026ZM72.6533 35.1299V33.4813H76.9347V19.6037H72.6533V17.9551H83.2829V19.6037H79.0015V33.4813H83.2829V35.1299H72.6533ZM83.8147 17.9551H89.6462C91.1225 17.9551 92.279 18.357 93.1156 19.1608C93.9522 19.9646 94.3705 21.039 94.3705 22.3841C94.3705 23.4176 94.1162 24.2296 93.6077 24.8201C93.1156 25.4106 92.4759 25.8289 91.6885 26.075V26.1488C92.6563 26.3785 93.4519 26.8132 94.0752 27.4529C94.6986 28.0762 95.0102 28.9867 95.0102 30.1841C95.0102 30.8731 94.8954 31.521 94.6658 32.128C94.4361 32.7349 94.108 33.2598 93.6815 33.7028C93.2714 34.1457 92.7793 34.4983 92.2052 34.7608C91.6475 35.0069 91.0405 35.1299 90.3844 35.1299H83.8147V17.9551ZM89.7692 33.3337C90.7207 33.3337 91.467 33.1204 92.0084 32.6939C92.5497 32.2674 92.8203 31.6113 92.8203 30.7255V29.7166C92.8203 28.8472 92.5497 28.1993 92.0084 27.7728C91.467 27.3299 90.7207 27.1084 89.7692 27.1084H85.8815V33.3337H89.7692ZM89.4248 25.4106C90.2942 25.4106 90.9749 25.222 91.467 24.8447C91.9591 24.451 92.2052 23.8605 92.2052 23.0731V22.1135C92.2052 21.3261 91.9591 20.7355 91.467 20.3419C90.9749 19.9482 90.2942 19.7513 89.4248 19.7513H85.8815V25.4106H89.4248ZM94.9268 35.1299V17.9551H105.507V19.7513H96.9937V25.5337H105.212V27.3299H96.9937V33.3337H105.507V35.1299H94.9268ZM110.566 16.9217H113.741L110.911 23.7374H109.262L110.566 16.9217ZM118.849 20.6617H118.677V35.1299H116.807V17.9551H119.735L125.591 32.4233H125.763V17.9551H127.633V35.1299H124.705L118.849 20.6617ZM132.692 16.9217H135.866L133.037 23.7374H131.388L132.692 16.9217ZM139.129 17.9551H144.961C146.437 17.9551 147.594 18.357 148.43 19.1608C149.267 19.9646 149.685 21.039 149.685 22.3841C149.685 23.4176 149.431 24.2296 148.922 24.8201C148.43 25.4106 147.791 25.8289 147.003 26.075V26.1488C147.971 26.3785 148.767 26.8132 149.39 27.4529C150.013 28.0762 150.325 28.9867 150.325 30.1841C150.325 30.8731 150.21 31.521 149.981 32.128C149.751 32.7349 149.423 33.2598 148.996 33.7028C148.586 34.1457 148.094 34.4983 147.52 34.7608C146.962 35.0069 146.355 35.1299 145.699 35.1299H139.129V17.9551ZM145.084 33.3337C146.035 33.3337 146.782 33.1204 147.323 32.6939C147.864 32.2674 148.135 31.6113 148.135 30.7255V29.7166C148.135 28.8472 147.864 28.1993 147.323 27.7728C146.782 27.3299 146.035 27.1084 145.084 27.1084H141.196V33.3337H145.084ZM144.74 25.4106C145.609 25.4106 146.29 25.222 146.782 24.8447C147.274 24.451 147.52 23.8605 147.52 23.0731V22.1135C147.52 21.3261 147.274 20.7355 146.782 20.3419C146.29 19.9482 145.609 19.7513 144.74 19.7513H141.196V25.4106H144.74ZM152.062 17.9551V28.2649C152.062 29.1015 152.087 29.8479 152.136 30.504C152.185 31.1602 152.317 31.7261 152.53 32.2018C152.743 32.6611 153.071 33.0138 153.514 33.2598C153.973 33.5059 154.605 33.6289 155.409 33.6289C156.213 33.6289 156.836 33.5059 157.279 33.2598C157.738 33.0138 158.074 32.6611 158.288 32.2018C158.501 31.7261 158.632 31.1602 158.681 30.504C158.731 29.8479 158.755 29.1015 158.755 28.2649V17.9551H160.822V27.7728C160.822 29.0523 160.756 30.1677 160.625 31.1192C160.51 32.0706 160.256 32.8662 159.862 33.5059C159.485 34.1457 158.936 34.6296 158.214 34.9576C157.508 35.2693 156.573 35.4252 155.409 35.4252C154.244 35.4252 153.301 35.2693 152.579 34.9576C151.874 34.6296 151.324 34.1457 150.931 33.5059C150.553 32.8662 150.299 32.0706 150.168 31.1192C150.053 30.1677 149.996 29.0523 149.996 27.7728V17.9551H152.062ZM161.157 35.1299V33.4813H165.438V19.6037H161.157V17.9551H171.787V19.6037H167.505V33.4813H171.787V35.1299H161.157ZM173.106 35.1299V17.9551H175.173V33.3337H183.317V35.1299H173.106ZM183.553 17.9551H188.352C190.451 17.9551 192.018 18.6769 193.051 20.1204C194.085 21.5639 194.601 23.7046 194.601 26.5425C194.601 29.3803 194.085 31.521 193.051 32.9646C192.018 34.4081 190.451 35.1299 188.352 35.1299H183.553V17.9551ZM188.253 33.3337C189.631 33.3337 190.665 32.858 191.354 31.9065C192.059 30.9551 192.412 29.61 192.412 27.8712V25.2138C192.412 23.475 192.059 22.1299 191.354 21.1784C190.665 20.227 189.631 19.7513 188.253 19.7513H185.62V33.3337H188.253Z" fill="white"/>
<path d="M11.0664 109.638H174.536" stroke="black" stroke-width="2.1299" stroke-linecap="square"/>
<path d="M10 114.963L10 147.444" stroke="black" stroke-width="2.1299" stroke-linecap="square"/>
<path d="M152.707 114.963L152.707 147.444" stroke="black" stroke-width="2.1299" stroke-linecap="square"/>
<path d="M152.707 162.886L152.707 187.912" stroke="black" stroke-width="2.1299" stroke-linecap="square"/>
<path d="M238.965 162.886L238.965 187.912" stroke="black" stroke-width="2.1299" stroke-linecap="square"/>
<path d="M389.656 187.912L207.017 187.912" stroke="black" stroke-width="2.1299" stroke-linecap="square"/>
<path d="M238.965 114.963L238.965 147.444" stroke="black" stroke-width="2.1299" stroke-linecap="square"/>
<path d="M191.578 109.638L233.111 109.638" stroke="black" stroke-width="2.1299" stroke-linecap="square"/>
<path d="M59.5234 162.886H21.1852" stroke="black" stroke-width="2.1299" stroke-linecap="square"/>
<path d="M59.5234 162.886H15.3279" stroke="black" stroke-width="2.1299" stroke-linecap="square"/>
<path d="M47.2734 187.912H15.3249" stroke="black" stroke-width="2.1299" stroke-linecap="square"/>
<path d="M76.0312 187.912H54.7322" stroke="black" stroke-width="2.1299" stroke-linecap="square"/>
<path d="M95.7305 187.912H82.9511" stroke="black" stroke-width="2.1299" stroke-linecap="square"/>
<path d="M109.574 187.912H103.185" stroke="black" stroke-width="2.1299" stroke-linecap="square"/>
<path d="M144.188 187.912H115.966" stroke="black" stroke-width="2.1299" stroke-linecap="square"/>
<path d="M10 184.185L10 168.21" stroke="black" stroke-width="2.1299" stroke-linecap="square"/>
<path d="M82.9531 162.886H68.5763" stroke="black" stroke-width="2.1299" stroke-linecap="square"/>
<path d="M101.055 162.886H90.4052" stroke="black" stroke-width="2.1299" stroke-linecap="square"/>
<path d="M117.562 162.886H109.575" stroke="black" stroke-width="2.1299" stroke-linecap="square"/>
<path d="M144.188 162.886H124.486" stroke="black" stroke-width="2.1299" stroke-linecap="square"/>
<path d="M181.457 187.912H161.755" stroke="black" stroke-width="2.1299" stroke-linecap="square"/>
<line x1="147.383" y1="60.9164" x2="164.422" y2="60.9164" stroke="black" stroke-width="0.532476"/>
</svg>
