<svg width="280" height="280" viewBox="0 0 280 280" fill="none" xmlns="http://www.w3.org/2000/svg">
<g clip-path="url(#clip0_324_1531)">
<rect width="280" height="280" fill="#E9E9E9"/>
<rect x="38.168" y="36.5" width="201" height="29" rx="6.5" stroke="#0A0A0A"/>
<path d="M59.9686 52.624L61.7806 46.6H63.1246L60.4966 55H59.4166L57.6526 49.156L55.8886 55H54.7966L52.1806 46.6H53.5606L55.3846 52.6L57.1726 46.6H58.1686L59.9686 52.624ZM64.2332 55V46.6H65.5052V49.492H65.5652C65.7012 49.284 65.9172 49.092 66.2132 48.916C66.5092 48.732 66.8532 48.64 67.2452 48.64C67.6852 48.64 68.0812 48.752 68.4332 48.976C68.7852 49.2 69.0612 49.52 69.2612 49.936C69.4612 50.344 69.5612 50.816 69.5612 51.352V55H68.2892V51.436C68.2892 50.956 68.1572 50.568 67.8932 50.272C67.6372 49.968 67.3092 49.816 66.9092 49.816C66.5012 49.816 66.1652 49.968 65.9012 50.272C65.6372 50.576 65.5052 50.964 65.5052 51.436V55H64.2332ZM75.1027 55C75.0387 54.744 74.9947 54.468 74.9707 54.172H74.9107C74.6627 54.5 74.3787 54.744 74.0587 54.904C73.7387 55.064 73.3627 55.144 72.9307 55.144C72.3147 55.144 71.8067 54.976 71.4067 54.64C71.0147 54.304 70.8187 53.864 70.8187 53.32C70.8187 52.728 71.0587 52.248 71.5387 51.88C72.0187 51.504 72.6547 51.284 73.4467 51.22L74.7547 51.1V51.04C74.7547 50.648 74.6427 50.34 74.4187 50.116C74.2027 49.892 73.8987 49.78 73.5067 49.78C73.1947 49.78 72.9307 49.86 72.7147 50.02C72.5067 50.18 72.3587 50.4 72.2707 50.68L71.0467 50.44C71.1907 49.888 71.4747 49.452 71.8987 49.132C72.3227 48.804 72.8587 48.64 73.5067 48.64C74.2907 48.64 74.9067 48.864 75.3547 49.312C75.8027 49.752 76.0267 50.36 76.0267 51.136V53.044C76.0267 53.876 76.0947 54.528 76.2307 55H75.1027ZM73.1587 54.064C73.6227 54.064 74.0027 53.924 74.2987 53.644C74.6027 53.356 74.7547 52.992 74.7547 52.552V52.084L73.5187 52.204C73.0867 52.244 72.7387 52.352 72.4747 52.528C72.2187 52.704 72.0907 52.944 72.0907 53.248C72.0907 53.512 72.1867 53.716 72.3787 53.86C72.5787 53.996 72.8387 54.064 73.1587 54.064ZM79.8103 55.144C79.2583 55.144 78.8063 54.952 78.4543 54.568C78.1103 54.184 77.9383 53.66 77.9383 52.996V49.936H76.9543V48.772H77.9383V47.272H79.2103V48.772H80.5063V49.936H79.2103V52.912C79.2103 53.256 79.2863 53.516 79.4383 53.692C79.5983 53.86 79.8183 53.944 80.0983 53.944C80.2663 53.944 80.4023 53.92 80.5063 53.872V55.024C80.2663 55.104 80.0343 55.144 79.8103 55.144ZM85.8944 55H84.6224V48.772H85.8944V55ZM85.2584 47.908C85.0504 47.908 84.8704 47.836 84.7184 47.692C84.5744 47.548 84.5024 47.368 84.5024 47.152C84.5024 46.936 84.5744 46.756 84.7184 46.612C84.8704 46.468 85.0504 46.396 85.2584 46.396C85.4664 46.396 85.6424 46.468 85.7864 46.612C85.9384 46.756 86.0144 46.936 86.0144 47.152C86.0144 47.368 85.9384 47.548 85.7864 47.692C85.6424 47.836 85.4664 47.908 85.2584 47.908ZM89.5533 55.144C88.9533 55.144 88.4453 54.996 88.0293 54.7C87.6133 54.396 87.3413 54.008 87.2133 53.536L88.4373 53.284C88.5093 53.524 88.6413 53.716 88.8333 53.86C89.0253 54.004 89.2653 54.076 89.5533 54.076C89.8653 54.076 90.1053 54.008 90.2733 53.872C90.4413 53.736 90.5253 53.552 90.5253 53.32C90.5253 53.064 90.4173 52.868 90.2013 52.732C89.9933 52.596 89.6693 52.456 89.2293 52.312C88.8213 52.168 88.4893 52.032 88.2333 51.904C87.9853 51.776 87.7693 51.592 87.5853 51.352C87.4093 51.112 87.3213 50.804 87.3213 50.428C87.3213 50.092 87.4053 49.788 87.5732 49.516C87.7493 49.244 87.9973 49.032 88.3173 48.88C88.6453 48.72 89.0293 48.64 89.4693 48.64C90.0453 48.64 90.5213 48.784 90.8973 49.072C91.2733 49.352 91.5213 49.724 91.6413 50.188L90.4293 50.428C90.3573 50.196 90.2373 50.016 90.0693 49.888C89.9093 49.76 89.7093 49.696 89.4693 49.696C89.1893 49.696 88.9733 49.764 88.8213 49.9C88.6693 50.028 88.5933 50.196 88.5933 50.404C88.5933 50.636 88.6933 50.816 88.8933 50.944C89.0933 51.064 89.4093 51.196 89.8413 51.34C90.2493 51.476 90.5813 51.612 90.8373 51.748C91.1013 51.876 91.3253 52.064 91.5093 52.312C91.7013 52.552 91.7973 52.868 91.7973 53.26C91.7973 53.812 91.5973 54.264 91.1973 54.616C90.8053 54.968 90.2573 55.144 89.5533 55.144ZM97.9861 55.144C97.4341 55.144 96.9821 54.952 96.6301 54.568C96.2861 54.184 96.1141 53.66 96.1141 52.996V49.936H95.1301V48.772H96.1141V47.272H97.3861V48.772H98.6821V49.936H97.3861V52.912C97.3861 53.256 97.4621 53.516 97.6141 53.692C97.7741 53.86 97.9941 53.944 98.2741 53.944C98.4421 53.944 98.5781 53.92 98.6821 53.872V55.024C98.4421 55.104 98.2101 55.144 97.9861 55.144ZM100.093 55V46.6H101.365V49.492H101.425C101.561 49.284 101.777 49.092 102.073 48.916C102.369 48.732 102.713 48.64 103.105 48.64C103.545 48.64 103.941 48.752 104.293 48.976C104.645 49.2 104.921 49.52 105.121 49.936C105.321 50.344 105.421 50.816 105.421 51.352V55H104.149V51.436C104.149 50.956 104.017 50.568 103.753 50.272C103.497 49.968 103.169 49.816 102.769 49.816C102.361 49.816 102.025 49.968 101.761 50.272C101.497 50.576 101.365 50.964 101.365 51.436V55H100.093ZM112.798 51.748C112.798 52.044 112.782 52.26 112.75 52.396H107.986C108.074 52.892 108.278 53.284 108.598 53.572C108.918 53.852 109.322 53.992 109.81 53.992C110.466 53.992 110.954 53.732 111.274 53.212L112.51 53.452C112.286 53.98 111.942 54.396 111.478 54.7C111.014 54.996 110.458 55.144 109.81 55.144C109.21 55.144 108.674 55.004 108.202 54.724C107.73 54.436 107.362 54.044 107.098 53.548C106.842 53.052 106.714 52.496 106.714 51.88C106.714 51.288 106.846 50.744 107.11 50.248C107.382 49.752 107.75 49.36 108.214 49.072C108.686 48.784 109.214 48.64 109.798 48.64C110.366 48.64 110.878 48.776 111.334 49.048C111.798 49.312 112.158 49.68 112.414 50.152C112.67 50.624 112.798 51.156 112.798 51.748ZM109.798 49.78C109.326 49.78 108.926 49.932 108.598 50.236C108.278 50.532 108.074 50.924 107.986 51.412H111.574C111.51 50.924 111.318 50.532 110.998 50.236C110.678 49.932 110.278 49.78 109.798 49.78ZM119.254 55.144C118.702 55.144 118.194 55 117.73 54.712C117.266 54.424 116.898 54.032 116.626 53.536C116.354 53.04 116.218 52.488 116.218 51.88C116.218 51.28 116.354 50.732 116.626 50.236C116.898 49.74 117.266 49.352 117.73 49.072C118.194 48.784 118.702 48.64 119.254 48.64C119.926 48.64 120.514 48.824 121.018 49.192C121.522 49.56 121.87 50.048 122.062 50.656L120.838 50.884C120.694 50.556 120.486 50.296 120.214 50.104C119.95 49.912 119.638 49.816 119.278 49.816C118.95 49.816 118.65 49.904 118.378 50.08C118.106 50.256 117.89 50.504 117.73 50.824C117.57 51.136 117.49 51.488 117.49 51.88C117.49 52.28 117.57 52.64 117.73 52.96C117.89 53.272 118.106 53.516 118.378 53.692C118.65 53.868 118.95 53.956 119.278 53.956C119.646 53.956 119.962 53.864 120.226 53.68C120.49 53.488 120.694 53.224 120.838 52.888L122.062 53.128C121.854 53.728 121.498 54.216 120.994 54.592C120.49 54.96 119.91 55.144 119.254 55.144ZM124.685 55H123.413V46.6H124.685V55ZM127.789 55H126.517V48.772H127.789V55ZM127.153 47.908C126.945 47.908 126.765 47.836 126.613 47.692C126.469 47.548 126.397 47.368 126.397 47.152C126.397 46.936 126.469 46.756 126.613 46.612C126.765 46.468 126.945 46.396 127.153 46.396C127.361 46.396 127.537 46.468 127.681 46.612C127.833 46.756 127.909 46.936 127.909 47.152C127.909 47.368 127.833 47.548 127.681 47.692C127.537 47.836 127.361 47.908 127.153 47.908ZM135.228 51.748C135.228 52.044 135.212 52.26 135.18 52.396H130.416C130.504 52.892 130.708 53.284 131.028 53.572C131.348 53.852 131.752 53.992 132.24 53.992C132.896 53.992 133.384 53.732 133.704 53.212L134.94 53.452C134.716 53.98 134.372 54.396 133.908 54.7C133.444 54.996 132.888 55.144 132.24 55.144C131.64 55.144 131.104 55.004 130.632 54.724C130.16 54.436 129.792 54.044 129.528 53.548C129.272 53.052 129.144 52.496 129.144 51.88C129.144 51.288 129.276 50.744 129.54 50.248C129.812 49.752 130.18 49.36 130.644 49.072C131.116 48.784 131.644 48.64 132.228 48.64C132.796 48.64 133.308 48.776 133.764 49.048C134.228 49.312 134.588 49.68 134.844 50.152C135.1 50.624 135.228 51.156 135.228 51.748ZM132.228 49.78C131.756 49.78 131.356 49.932 131.028 50.236C130.708 50.532 130.504 50.924 130.416 51.412H134.004C133.94 50.924 133.748 50.532 133.428 50.236C133.108 49.932 132.708 49.78 132.228 49.78ZM139.511 48.64C139.975 48.64 140.387 48.752 140.747 48.976C141.115 49.2 141.399 49.52 141.599 49.936C141.807 50.344 141.911 50.82 141.911 51.364V55H140.639V51.436C140.639 50.956 140.507 50.568 140.243 50.272C139.987 49.968 139.659 49.816 139.259 49.816C138.851 49.816 138.515 49.968 138.251 50.272C137.987 50.576 137.855 50.964 137.855 51.436V55H136.583V48.772H137.687V49.6H137.747C137.907 49.352 138.135 49.132 138.431 48.94C138.735 48.74 139.095 48.64 139.511 48.64ZM145.693 55.144C145.141 55.144 144.689 54.952 144.337 54.568C143.993 54.184 143.821 53.66 143.821 52.996V49.936H142.837V48.772H143.821V47.272H145.093V48.772H146.389V49.936H145.093V52.912C145.093 53.256 145.169 53.516 145.321 53.692C145.481 53.86 145.701 53.944 145.981 53.944C146.149 53.944 146.285 53.92 146.389 53.872V55.024C146.149 55.104 145.917 55.144 145.693 55.144ZM149.624 55.144C149.024 55.144 148.516 54.996 148.1 54.7C147.684 54.396 147.412 54.008 147.284 53.536L148.508 53.284C148.58 53.524 148.712 53.716 148.904 53.86C149.096 54.004 149.336 54.076 149.624 54.076C149.936 54.076 150.176 54.008 150.344 53.872C150.512 53.736 150.596 53.552 150.596 53.32C150.596 53.064 150.488 52.868 150.272 52.732C150.064 52.596 149.74 52.456 149.3 52.312C148.892 52.168 148.56 52.032 148.304 51.904C148.056 51.776 147.84 51.592 147.656 51.352C147.48 51.112 147.392 50.804 147.392 50.428C147.392 50.092 147.476 49.788 147.644 49.516C147.82 49.244 148.068 49.032 148.388 48.88C148.716 48.72 149.1 48.64 149.54 48.64C150.116 48.64 150.592 48.784 150.968 49.072C151.344 49.352 151.592 49.724 151.712 50.188L150.5 50.428C150.428 50.196 150.308 50.016 150.14 49.888C149.98 49.76 149.78 49.696 149.54 49.696C149.26 49.696 149.044 49.764 148.892 49.9C148.74 50.028 148.664 50.196 148.664 50.404C148.664 50.636 148.764 50.816 148.964 50.944C149.164 51.064 149.48 51.196 149.912 51.34C150.32 51.476 150.652 51.612 150.908 51.748C151.172 51.876 151.396 52.064 151.58 52.312C151.772 52.552 151.868 52.868 151.868 53.26C151.868 53.812 151.668 54.264 151.268 54.616C150.876 54.968 150.328 55.144 149.624 55.144ZM158.442 55.144C157.89 55.144 157.382 55 156.918 54.712C156.454 54.424 156.086 54.032 155.814 53.536C155.542 53.04 155.406 52.488 155.406 51.88C155.406 51.28 155.542 50.732 155.814 50.236C156.086 49.74 156.454 49.352 156.918 49.072C157.382 48.784 157.89 48.64 158.442 48.64C159.114 48.64 159.702 48.824 160.206 49.192C160.71 49.56 161.058 50.048 161.25 50.656L160.026 50.884C159.882 50.556 159.674 50.296 159.402 50.104C159.138 49.912 158.826 49.816 158.465 49.816C158.138 49.816 157.838 49.904 157.566 50.08C157.294 50.256 157.078 50.504 156.918 50.824C156.758 51.136 156.678 51.488 156.678 51.88C156.678 52.28 156.758 52.64 156.918 52.96C157.078 53.272 157.294 53.516 157.566 53.692C157.838 53.868 158.138 53.956 158.465 53.956C158.834 53.956 159.15 53.864 159.414 53.68C159.678 53.488 159.882 53.224 160.026 52.888L161.25 53.128C161.042 53.728 160.686 54.216 160.182 54.592C159.678 54.96 159.098 55.144 158.442 55.144ZM162.54 55V48.772H163.644V49.6H163.704C163.856 49.328 164.068 49.1 164.34 48.916C164.62 48.732 164.928 48.64 165.264 48.64C165.464 48.64 165.632 48.656 165.768 48.688V49.96C165.64 49.92 165.468 49.9 165.252 49.9C164.82 49.9 164.472 50.048 164.208 50.344C163.944 50.64 163.812 51.044 163.812 51.556V55H162.54ZM172.447 51.748C172.447 52.044 172.431 52.26 172.399 52.396H167.635C167.723 52.892 167.927 53.284 168.247 53.572C168.567 53.852 168.971 53.992 169.459 53.992C170.115 53.992 170.603 53.732 170.923 53.212L172.159 53.452C171.935 53.98 171.591 54.396 171.127 54.7C170.663 54.996 170.107 55.144 169.459 55.144C168.859 55.144 168.323 55.004 167.851 54.724C167.379 54.436 167.011 54.044 166.747 53.548C166.491 53.052 166.363 52.496 166.363 51.88C166.363 51.288 166.495 50.744 166.759 50.248C167.031 49.752 167.399 49.36 167.863 49.072C168.335 48.784 168.863 48.64 169.447 48.64C170.015 48.64 170.527 48.776 170.983 49.048C171.447 49.312 171.807 49.68 172.063 50.152C172.319 50.624 172.447 51.156 172.447 51.748ZM169.447 49.78C168.975 49.78 168.575 49.932 168.247 50.236C167.927 50.532 167.723 50.924 167.635 51.412H171.223C171.159 50.924 170.967 50.532 170.647 50.236C170.327 49.932 169.927 49.78 169.447 49.78ZM178.806 55C178.726 54.696 178.674 54.384 178.65 54.064H178.602C178.354 54.416 178.038 54.684 177.654 54.868C177.278 55.052 176.854 55.144 176.382 55.144C175.814 55.144 175.302 55.004 174.846 54.724C174.39 54.444 174.03 54.056 173.766 53.56C173.51 53.056 173.382 52.496 173.382 51.88C173.382 51.264 173.51 50.712 173.766 50.224C174.03 49.728 174.39 49.34 174.846 49.06C175.31 48.78 175.826 48.64 176.394 48.64C176.826 48.64 177.222 48.728 177.582 48.904C177.95 49.08 178.218 49.3 178.386 49.564H178.446V46.6H179.718V53.044C179.718 53.868 179.79 54.52 179.934 55H178.806ZM176.55 53.956C176.91 53.956 177.234 53.868 177.522 53.692C177.81 53.516 178.034 53.272 178.194 52.96C178.362 52.64 178.446 52.28 178.446 51.88C178.446 51.488 178.362 51.136 178.194 50.824C178.034 50.504 177.81 50.256 177.522 50.08C177.234 49.904 176.91 49.816 176.55 49.816C176.19 49.816 175.866 49.904 175.578 50.08C175.29 50.256 175.062 50.504 174.894 50.824C174.734 51.136 174.654 51.488 174.654 51.88C174.654 52.28 174.734 52.64 174.894 52.96C175.062 53.272 175.29 53.516 175.578 53.692C175.866 53.868 176.19 53.956 176.55 53.956ZM182.832 55H181.56V48.772H182.832V55ZM182.196 47.908C181.988 47.908 181.808 47.836 181.656 47.692C181.512 47.548 181.44 47.368 181.44 47.152C181.44 46.936 181.512 46.756 181.656 46.612C181.808 46.468 181.988 46.396 182.196 46.396C182.404 46.396 182.58 46.468 182.724 46.612C182.876 46.756 182.952 46.936 182.952 47.152C182.952 47.368 182.876 47.548 182.724 47.692C182.58 47.836 182.404 47.908 182.196 47.908ZM186.791 55.144C186.239 55.144 185.787 54.952 185.435 54.568C185.091 54.184 184.919 53.66 184.919 52.996V49.936H183.935V48.772H184.919V47.272H186.191V48.772H187.487V49.936H186.191V52.912C186.191 53.256 186.267 53.516 186.419 53.692C186.579 53.86 186.799 53.944 187.079 53.944C187.247 53.944 187.383 53.92 187.487 53.872V55.024C187.247 55.104 187.015 55.144 186.791 55.144ZM193.37 55.144C192.77 55.144 192.262 54.996 191.846 54.7C191.43 54.396 191.158 54.008 191.03 53.536L192.254 53.284C192.326 53.524 192.458 53.716 192.65 53.86C192.842 54.004 193.082 54.076 193.37 54.076C193.682 54.076 193.922 54.008 194.09 53.872C194.258 53.736 194.342 53.552 194.342 53.32C194.342 53.064 194.234 52.868 194.018 52.732C193.81 52.596 193.486 52.456 193.046 52.312C192.638 52.168 192.306 52.032 192.05 51.904C191.802 51.776 191.586 51.592 191.402 51.352C191.226 51.112 191.138 50.804 191.138 50.428C191.138 50.092 191.222 49.788 191.39 49.516C191.566 49.244 191.814 49.032 192.134 48.88C192.462 48.72 192.846 48.64 193.286 48.64C193.862 48.64 194.338 48.784 194.714 49.072C195.09 49.352 195.338 49.724 195.458 50.188L194.246 50.428C194.174 50.196 194.054 50.016 193.886 49.888C193.726 49.76 193.526 49.696 193.286 49.696C193.006 49.696 192.79 49.764 192.638 49.9C192.486 50.028 192.41 50.196 192.41 50.404C192.41 50.636 192.51 50.816 192.71 50.944C192.91 51.064 193.226 51.196 193.658 51.34C194.066 51.476 194.398 51.612 194.654 51.748C194.918 51.876 195.142 52.064 195.326 52.312C195.518 52.552 195.614 52.868 195.614 53.26C195.614 53.812 195.414 54.264 195.014 54.616C194.622 54.968 194.074 55.144 193.37 55.144ZM199.586 55.144C199.034 55.144 198.526 55 198.062 54.712C197.598 54.424 197.23 54.032 196.958 53.536C196.686 53.04 196.55 52.488 196.55 51.88C196.55 51.28 196.686 50.732 196.958 50.236C197.23 49.74 197.598 49.352 198.062 49.072C198.526 48.784 199.034 48.64 199.586 48.64C200.258 48.64 200.846 48.824 201.35 49.192C201.854 49.56 202.202 50.048 202.394 50.656L201.17 50.884C201.026 50.556 200.818 50.296 200.546 50.104C200.282 49.912 199.97 49.816 199.61 49.816C199.282 49.816 198.982 49.904 198.71 50.08C198.438 50.256 198.222 50.504 198.062 50.824C197.902 51.136 197.822 51.488 197.822 51.88C197.822 52.28 197.902 52.64 198.062 52.96C198.222 53.272 198.438 53.516 198.71 53.692C198.982 53.868 199.282 53.956 199.61 53.956C199.978 53.956 200.294 53.864 200.558 53.68C200.822 53.488 201.026 53.224 201.17 52.888L202.394 53.128C202.186 53.728 201.83 54.216 201.326 54.592C200.822 54.96 200.242 55.144 199.586 55.144ZM206.433 55.144C205.833 55.144 205.293 55.004 204.813 54.724C204.333 54.436 203.953 54.044 203.673 53.548C203.401 53.052 203.265 52.496 203.265 51.88C203.265 51.272 203.401 50.724 203.673 50.236C203.953 49.74 204.333 49.352 204.813 49.072C205.293 48.784 205.833 48.64 206.433 48.64C207.033 48.64 207.573 48.784 208.053 49.072C208.533 49.352 208.909 49.74 209.181 50.236C209.461 50.724 209.601 51.272 209.601 51.88C209.601 52.496 209.461 53.052 209.181 53.548C208.909 54.044 208.533 54.436 208.053 54.724C207.573 55.004 207.033 55.144 206.433 55.144ZM206.433 53.956C206.793 53.956 207.117 53.868 207.405 53.692C207.693 53.516 207.917 53.272 208.077 52.96C208.245 52.64 208.329 52.28 208.329 51.88C208.329 51.488 208.245 51.136 208.077 50.824C207.917 50.504 207.693 50.256 207.405 50.08C207.117 49.904 206.793 49.816 206.433 49.816C206.073 49.816 205.749 49.904 205.461 50.08C205.173 50.256 204.945 50.504 204.777 50.824C204.617 51.136 204.537 51.488 204.537 51.88C204.537 52.28 204.617 52.64 204.777 52.96C204.945 53.272 205.173 53.516 205.461 53.692C205.749 53.868 206.073 53.956 206.433 53.956ZM210.962 55V48.772H212.066V49.6H212.126C212.278 49.328 212.49 49.1 212.762 48.916C213.042 48.732 213.35 48.64 213.686 48.64C213.886 48.64 214.054 48.656 214.19 48.688V49.96C214.062 49.92 213.89 49.9 213.674 49.9C213.242 49.9 212.894 50.048 212.63 50.344C212.366 50.64 212.234 51.044 212.234 51.556V55H210.962ZM220.868 51.748C220.868 52.044 220.852 52.26 220.82 52.396H216.056C216.144 52.892 216.348 53.284 216.668 53.572C216.988 53.852 217.392 53.992 217.88 53.992C218.536 53.992 219.024 53.732 219.344 53.212L220.58 53.452C220.356 53.98 220.012 54.396 219.548 54.7C219.084 54.996 218.528 55.144 217.88 55.144C217.28 55.144 216.744 55.004 216.272 54.724C215.8 54.436 215.432 54.044 215.168 53.548C214.912 53.052 214.784 52.496 214.784 51.88C214.784 51.288 214.916 50.744 215.18 50.248C215.452 49.752 215.82 49.36 216.284 49.072C216.756 48.784 217.284 48.64 217.868 48.64C218.436 48.64 218.948 48.776 219.404 49.048C219.868 49.312 220.228 49.68 220.484 50.152C220.74 50.624 220.868 51.156 220.868 51.748ZM217.868 49.78C217.396 49.78 216.996 49.932 216.668 50.236C216.348 50.532 216.144 50.924 216.056 51.412H219.644C219.58 50.924 219.388 50.532 219.068 50.236C218.748 49.932 218.348 49.78 217.868 49.78ZM223.478 52.576C223.478 52.168 223.53 51.824 223.634 51.544C223.746 51.256 223.878 51.024 224.03 50.848C224.182 50.664 224.382 50.464 224.63 50.248C224.926 49.984 225.142 49.752 225.278 49.552C225.422 49.344 225.494 49.076 225.494 48.748C225.494 48.428 225.382 48.176 225.158 47.992C224.934 47.8 224.63 47.704 224.246 47.704C223.87 47.704 223.558 47.808 223.31 48.016C223.062 48.216 222.898 48.504 222.818 48.88L221.498 48.628C221.65 47.956 221.962 47.428 222.434 47.044C222.906 46.652 223.514 46.456 224.258 46.456C224.77 46.456 225.222 46.552 225.614 46.744C226.006 46.936 226.306 47.204 226.514 47.548C226.73 47.884 226.838 48.268 226.838 48.7C226.838 49.044 226.786 49.34 226.682 49.588C226.586 49.836 226.466 50.04 226.322 50.2C226.186 50.36 225.994 50.548 225.746 50.764C225.418 51.052 225.17 51.324 225.002 51.58C224.834 51.836 224.75 52.168 224.75 52.576V52.696H223.478V52.576ZM224.126 55.084C223.91 55.084 223.726 55.012 223.574 54.868C223.43 54.716 223.358 54.536 223.358 54.328C223.358 54.112 223.43 53.932 223.574 53.788C223.726 53.644 223.91 53.572 224.126 53.572C224.334 53.572 224.51 53.644 224.654 53.788C224.806 53.932 224.882 54.112 224.882 54.328C224.882 54.536 224.806 54.716 224.654 54.868C224.51 55.012 224.334 55.084 224.126 55.084Z" fill="black"/>
<rect x="252.168" y="36.5" width="203" height="29" rx="6.5" stroke="#0A0A0A"/>
<path d="M273.721 52.624L275.533 46.6H276.877L274.249 55H273.169L271.405 49.156L269.641 55H268.549L265.933 46.6H267.313L269.137 52.6L270.925 46.6H271.921L273.721 52.624ZM277.985 55V46.6H279.257V49.492H279.317C279.453 49.284 279.669 49.092 279.965 48.916C280.261 48.732 280.605 48.64 280.997 48.64C281.437 48.64 281.833 48.752 282.185 48.976C282.537 49.2 282.813 49.52 283.013 49.936C283.213 50.344 283.313 50.816 283.313 51.352V55H282.041V51.436C282.041 50.956 281.909 50.568 281.645 50.272C281.389 49.968 281.061 49.816 280.661 49.816C280.253 49.816 279.917 49.968 279.653 50.272C279.389 50.576 279.257 50.964 279.257 51.436V55H277.985ZM288.855 55C288.791 54.744 288.747 54.468 288.723 54.172H288.663C288.415 54.5 288.131 54.744 287.811 54.904C287.491 55.064 287.115 55.144 286.683 55.144C286.067 55.144 285.559 54.976 285.159 54.64C284.767 54.304 284.571 53.864 284.571 53.32C284.571 52.728 284.811 52.248 285.291 51.88C285.771 51.504 286.407 51.284 287.199 51.22L288.507 51.1V51.04C288.507 50.648 288.395 50.34 288.171 50.116C287.955 49.892 287.651 49.78 287.259 49.78C286.947 49.78 286.683 49.86 286.467 50.02C286.259 50.18 286.111 50.4 286.023 50.68L284.799 50.44C284.943 49.888 285.227 49.452 285.651 49.132C286.075 48.804 286.611 48.64 287.259 48.64C288.043 48.64 288.659 48.864 289.107 49.312C289.555 49.752 289.779 50.36 289.779 51.136V53.044C289.779 53.876 289.847 54.528 289.983 55H288.855ZM286.911 54.064C287.375 54.064 287.755 53.924 288.051 53.644C288.355 53.356 288.507 52.992 288.507 52.552V52.084L287.271 52.204C286.839 52.244 286.491 52.352 286.227 52.528C285.971 52.704 285.843 52.944 285.843 53.248C285.843 53.512 285.939 53.716 286.131 53.86C286.331 53.996 286.591 54.064 286.911 54.064ZM293.562 55.144C293.01 55.144 292.558 54.952 292.206 54.568C291.862 54.184 291.69 53.66 291.69 52.996V49.936H290.706V48.772H291.69V47.272H292.962V48.772H294.258V49.936H292.962V52.912C292.962 53.256 293.038 53.516 293.19 53.692C293.35 53.86 293.57 53.944 293.85 53.944C294.018 53.944 294.154 53.92 294.258 53.872V55.024C294.018 55.104 293.786 55.144 293.562 55.144ZM299.646 55H298.374V48.772H299.646V55ZM299.01 47.908C298.802 47.908 298.622 47.836 298.47 47.692C298.326 47.548 298.254 47.368 298.254 47.152C298.254 46.936 298.326 46.756 298.47 46.612C298.622 46.468 298.802 46.396 299.01 46.396C299.218 46.396 299.394 46.468 299.538 46.612C299.69 46.756 299.766 46.936 299.766 47.152C299.766 47.368 299.69 47.548 299.538 47.692C299.394 47.836 299.218 47.908 299.01 47.908ZM303.305 55.144C302.705 55.144 302.197 54.996 301.781 54.7C301.365 54.396 301.093 54.008 300.965 53.536L302.189 53.284C302.261 53.524 302.393 53.716 302.585 53.86C302.777 54.004 303.017 54.076 303.305 54.076C303.617 54.076 303.857 54.008 304.025 53.872C304.193 53.736 304.277 53.552 304.277 53.32C304.277 53.064 304.169 52.868 303.953 52.732C303.745 52.596 303.421 52.456 302.981 52.312C302.573 52.168 302.241 52.032 301.985 51.904C301.737 51.776 301.521 51.592 301.337 51.352C301.161 51.112 301.073 50.804 301.073 50.428C301.073 50.092 301.157 49.788 301.325 49.516C301.501 49.244 301.749 49.032 302.069 48.88C302.397 48.72 302.781 48.64 303.221 48.64C303.797 48.64 304.273 48.784 304.649 49.072C305.025 49.352 305.273 49.724 305.393 50.188L304.181 50.428C304.109 50.196 303.989 50.016 303.821 49.888C303.661 49.76 303.461 49.696 303.221 49.696C302.941 49.696 302.725 49.764 302.573 49.9C302.421 50.028 302.345 50.196 302.345 50.404C302.345 50.636 302.445 50.816 302.645 50.944C302.845 51.064 303.161 51.196 303.593 51.34C304.001 51.476 304.333 51.612 304.589 51.748C304.853 51.876 305.077 52.064 305.261 52.312C305.453 52.552 305.549 52.868 305.549 53.26C305.549 53.812 305.349 54.264 304.949 54.616C304.557 54.968 304.009 55.144 303.305 55.144ZM311.738 55.144C311.186 55.144 310.734 54.952 310.382 54.568C310.038 54.184 309.866 53.66 309.866 52.996V49.936H308.882V48.772H309.866V47.272H311.138V48.772H312.434V49.936H311.138V52.912C311.138 53.256 311.214 53.516 311.366 53.692C311.526 53.86 311.746 53.944 312.026 53.944C312.194 53.944 312.33 53.92 312.434 53.872V55.024C312.194 55.104 311.962 55.144 311.738 55.144ZM313.844 55V46.6H315.116V49.492H315.176C315.312 49.284 315.528 49.092 315.824 48.916C316.12 48.732 316.464 48.64 316.856 48.64C317.296 48.64 317.692 48.752 318.044 48.976C318.396 49.2 318.672 49.52 318.872 49.936C319.072 50.344 319.172 50.816 319.172 51.352V55H317.9V51.436C317.9 50.956 317.768 50.568 317.504 50.272C317.248 49.968 316.92 49.816 316.52 49.816C316.112 49.816 315.776 49.968 315.512 50.272C315.248 50.576 315.116 50.964 315.116 51.436V55H313.844ZM326.55 51.748C326.55 52.044 326.534 52.26 326.502 52.396H321.738C321.826 52.892 322.03 53.284 322.35 53.572C322.67 53.852 323.074 53.992 323.562 53.992C324.218 53.992 324.706 53.732 325.026 53.212L326.262 53.452C326.038 53.98 325.694 54.396 325.23 54.7C324.766 54.996 324.21 55.144 323.562 55.144C322.962 55.144 322.426 55.004 321.954 54.724C321.482 54.436 321.114 54.044 320.85 53.548C320.594 53.052 320.466 52.496 320.466 51.88C320.466 51.288 320.598 50.744 320.862 50.248C321.134 49.752 321.502 49.36 321.966 49.072C322.438 48.784 322.966 48.64 323.55 48.64C324.118 48.64 324.63 48.776 325.086 49.048C325.55 49.312 325.91 49.68 326.166 50.152C326.422 50.624 326.55 51.156 326.55 51.748ZM323.55 49.78C323.078 49.78 322.678 49.932 322.35 50.236C322.03 50.532 321.826 50.924 321.738 51.412H325.326C325.262 50.924 325.07 50.532 324.75 50.236C324.43 49.932 324.03 49.78 323.55 49.78ZM333.006 55.144C332.454 55.144 331.946 55 331.482 54.712C331.018 54.424 330.65 54.032 330.378 53.536C330.106 53.04 329.97 52.488 329.97 51.88C329.97 51.28 330.106 50.732 330.378 50.236C330.65 49.74 331.018 49.352 331.482 49.072C331.946 48.784 332.454 48.64 333.006 48.64C333.678 48.64 334.266 48.824 334.77 49.192C335.274 49.56 335.622 50.048 335.814 50.656L334.59 50.884C334.446 50.556 334.238 50.296 333.966 50.104C333.702 49.912 333.39 49.816 333.03 49.816C332.702 49.816 332.402 49.904 332.13 50.08C331.858 50.256 331.642 50.504 331.482 50.824C331.322 51.136 331.242 51.488 331.242 51.88C331.242 52.28 331.322 52.64 331.482 52.96C331.642 53.272 331.858 53.516 332.13 53.692C332.402 53.868 332.702 53.956 333.03 53.956C333.398 53.956 333.714 53.864 333.978 53.68C334.242 53.488 334.446 53.224 334.59 52.888L335.814 53.128C335.606 53.728 335.25 54.216 334.746 54.592C334.242 54.96 333.662 55.144 333.006 55.144ZM338.437 55H337.165V46.6H338.437V55ZM341.541 55H340.269V48.772H341.541V55ZM340.905 47.908C340.697 47.908 340.517 47.836 340.365 47.692C340.221 47.548 340.149 47.368 340.149 47.152C340.149 46.936 340.221 46.756 340.365 46.612C340.517 46.468 340.697 46.396 340.905 46.396C341.113 46.396 341.289 46.468 341.433 46.612C341.585 46.756 341.661 46.936 341.661 47.152C341.661 47.368 341.585 47.548 341.433 47.692C341.289 47.836 341.113 47.908 340.905 47.908ZM348.98 51.748C348.98 52.044 348.964 52.26 348.932 52.396H344.168C344.256 52.892 344.46 53.284 344.78 53.572C345.1 53.852 345.504 53.992 345.992 53.992C346.648 53.992 347.136 53.732 347.456 53.212L348.692 53.452C348.468 53.98 348.124 54.396 347.66 54.7C347.196 54.996 346.64 55.144 345.992 55.144C345.392 55.144 344.856 55.004 344.384 54.724C343.912 54.436 343.544 54.044 343.28 53.548C343.024 53.052 342.896 52.496 342.896 51.88C342.896 51.288 343.028 50.744 343.292 50.248C343.564 49.752 343.932 49.36 344.396 49.072C344.868 48.784 345.396 48.64 345.98 48.64C346.548 48.64 347.06 48.776 347.516 49.048C347.98 49.312 348.34 49.68 348.596 50.152C348.852 50.624 348.98 51.156 348.98 51.748ZM345.98 49.78C345.508 49.78 345.108 49.932 344.78 50.236C344.46 50.532 344.256 50.924 344.168 51.412H347.756C347.692 50.924 347.5 50.532 347.18 50.236C346.86 49.932 346.46 49.78 345.98 49.78ZM353.263 48.64C353.727 48.64 354.139 48.752 354.499 48.976C354.867 49.2 355.151 49.52 355.351 49.936C355.559 50.344 355.663 50.82 355.663 51.364V55H354.391V51.436C354.391 50.956 354.259 50.568 353.995 50.272C353.739 49.968 353.411 49.816 353.011 49.816C352.603 49.816 352.267 49.968 352.003 50.272C351.739 50.576 351.607 50.964 351.607 51.436V55H350.335V48.772H351.439V49.6H351.499C351.659 49.352 351.887 49.132 352.183 48.94C352.487 48.74 352.847 48.64 353.263 48.64ZM359.445 55.144C358.893 55.144 358.441 54.952 358.089 54.568C357.745 54.184 357.573 53.66 357.573 52.996V49.936H356.589V48.772H357.573V47.272H358.845V48.772H360.141V49.936H358.845V52.912C358.845 53.256 358.921 53.516 359.073 53.692C359.233 53.86 359.453 53.944 359.733 53.944C359.901 53.944 360.037 53.92 360.141 53.872V55.024C359.901 55.104 359.669 55.144 359.445 55.144ZM363.376 55.144C362.776 55.144 362.268 54.996 361.852 54.7C361.436 54.396 361.164 54.008 361.036 53.536L362.26 53.284C362.332 53.524 362.464 53.716 362.656 53.86C362.848 54.004 363.088 54.076 363.376 54.076C363.688 54.076 363.928 54.008 364.096 53.872C364.264 53.736 364.348 53.552 364.348 53.32C364.348 53.064 364.24 52.868 364.024 52.732C363.816 52.596 363.492 52.456 363.052 52.312C362.644 52.168 362.312 52.032 362.056 51.904C361.808 51.776 361.592 51.592 361.408 51.352C361.232 51.112 361.144 50.804 361.144 50.428C361.144 50.092 361.228 49.788 361.396 49.516C361.572 49.244 361.82 49.032 362.14 48.88C362.468 48.72 362.852 48.64 363.292 48.64C363.868 48.64 364.344 48.784 364.72 49.072C365.096 49.352 365.344 49.724 365.464 50.188L364.252 50.428C364.18 50.196 364.06 50.016 363.892 49.888C363.732 49.76 363.532 49.696 363.292 49.696C363.012 49.696 362.796 49.764 362.644 49.9C362.492 50.028 362.416 50.196 362.416 50.404C362.416 50.636 362.516 50.816 362.716 50.944C362.916 51.064 363.232 51.196 363.664 51.34C364.072 51.476 364.404 51.612 364.66 51.748C364.924 51.876 365.148 52.064 365.332 52.312C365.524 52.552 365.62 52.868 365.62 53.26C365.62 53.812 365.42 54.264 365.02 54.616C364.628 54.968 364.08 55.144 363.376 55.144ZM371.084 55H369.812V48.772H371.084V55ZM370.448 47.908C370.24 47.908 370.06 47.836 369.908 47.692C369.764 47.548 369.692 47.368 369.692 47.152C369.692 46.936 369.764 46.756 369.908 46.612C370.06 46.468 370.24 46.396 370.448 46.396C370.656 46.396 370.832 46.468 370.976 46.612C371.128 46.756 371.204 46.936 371.204 47.152C371.204 47.368 371.128 47.548 370.976 47.692C370.832 47.836 370.656 47.908 370.448 47.908ZM375.787 48.64C376.251 48.64 376.663 48.752 377.023 48.976C377.391 49.2 377.675 49.52 377.875 49.936C378.083 50.344 378.187 50.82 378.187 51.364V55H376.915V51.436C376.915 50.956 376.783 50.568 376.519 50.272C376.263 49.968 375.935 49.816 375.535 49.816C375.127 49.816 374.791 49.968 374.527 50.272C374.263 50.576 374.131 50.964 374.131 51.436V55H372.859V48.772H373.963V49.6H374.023C374.183 49.352 374.411 49.132 374.707 48.94C375.011 48.74 375.371 48.64 375.787 48.64ZM382.518 55.144C381.966 55.144 381.458 55 380.994 54.712C380.53 54.424 380.162 54.032 379.89 53.536C379.618 53.04 379.482 52.488 379.482 51.88C379.482 51.28 379.618 50.732 379.89 50.236C380.162 49.74 380.53 49.352 380.994 49.072C381.458 48.784 381.966 48.64 382.518 48.64C383.19 48.64 383.778 48.824 384.282 49.192C384.786 49.56 385.134 50.048 385.326 50.656L384.102 50.884C383.958 50.556 383.75 50.296 383.478 50.104C383.214 49.912 382.902 49.816 382.542 49.816C382.214 49.816 381.914 49.904 381.642 50.08C381.37 50.256 381.154 50.504 380.994 50.824C380.834 51.136 380.754 51.488 380.754 51.88C380.754 52.28 380.834 52.64 380.994 52.96C381.154 53.272 381.37 53.516 381.642 53.692C381.914 53.868 382.214 53.956 382.542 53.956C382.91 53.956 383.226 53.864 383.49 53.68C383.754 53.488 383.958 53.224 384.102 52.888L385.326 53.128C385.118 53.728 384.762 54.216 384.258 54.592C383.754 54.96 383.174 55.144 382.518 55.144ZM389.365 55.144C388.765 55.144 388.225 55.004 387.745 54.724C387.265 54.436 386.885 54.044 386.605 53.548C386.333 53.052 386.197 52.496 386.197 51.88C386.197 51.272 386.333 50.724 386.605 50.236C386.885 49.74 387.265 49.352 387.745 49.072C388.225 48.784 388.765 48.64 389.365 48.64C389.965 48.64 390.505 48.784 390.985 49.072C391.465 49.352 391.841 49.74 392.113 50.236C392.393 50.724 392.533 51.272 392.533 51.88C392.533 52.496 392.393 53.052 392.113 53.548C391.841 54.044 391.465 54.436 390.985 54.724C390.505 55.004 389.965 55.144 389.365 55.144ZM389.365 53.956C389.725 53.956 390.049 53.868 390.337 53.692C390.625 53.516 390.849 53.272 391.009 52.96C391.177 52.64 391.261 52.28 391.261 51.88C391.261 51.488 391.177 51.136 391.009 50.824C390.849 50.504 390.625 50.256 390.337 50.08C390.049 49.904 389.725 49.816 389.365 49.816C389.005 49.816 388.681 49.904 388.393 50.08C388.105 50.256 387.877 50.504 387.709 50.824C387.549 51.136 387.469 51.488 387.469 51.88C387.469 52.28 387.549 52.64 387.709 52.96C387.877 53.272 388.105 53.516 388.393 53.692C388.681 53.868 389.005 53.956 389.365 53.956ZM400.158 48.64C400.566 48.64 400.93 48.744 401.25 48.952C401.57 49.16 401.818 49.46 401.994 49.852C402.178 50.236 402.27 50.696 402.27 51.232V55H400.998V51.268C400.998 50.82 400.894 50.468 400.686 50.212C400.478 49.948 400.206 49.816 399.87 49.816C399.542 49.816 399.266 49.952 399.042 50.224C398.826 50.488 398.718 50.836 398.718 51.268V55H397.446V51.268C397.446 50.82 397.338 50.468 397.122 50.212C396.914 49.948 396.646 49.816 396.318 49.816C395.99 49.816 395.714 49.952 395.49 50.224C395.274 50.488 395.166 50.836 395.166 51.268V55H393.894V48.772H394.998V49.6H395.058C395.226 49.344 395.438 49.12 395.694 48.928C395.958 48.736 396.274 48.64 396.642 48.64C397.066 48.64 397.422 48.744 397.71 48.952C397.998 49.16 398.214 49.396 398.358 49.66C398.518 49.396 398.75 49.16 399.054 48.952C399.366 48.744 399.734 48.64 400.158 48.64ZM409.648 51.748C409.648 52.044 409.632 52.26 409.6 52.396H404.836C404.924 52.892 405.128 53.284 405.448 53.572C405.768 53.852 406.172 53.992 406.66 53.992C407.316 53.992 407.804 53.732 408.124 53.212L409.36 53.452C409.136 53.98 408.792 54.396 408.328 54.7C407.864 54.996 407.308 55.144 406.66 55.144C406.06 55.144 405.524 55.004 405.052 54.724C404.58 54.436 404.212 54.044 403.948 53.548C403.692 53.052 403.564 52.496 403.564 51.88C403.564 51.288 403.696 50.744 403.96 50.248C404.232 49.752 404.6 49.36 405.064 49.072C405.536 48.784 406.064 48.64 406.648 48.64C407.216 48.64 407.728 48.776 408.184 49.048C408.648 49.312 409.008 49.68 409.264 50.152C409.52 50.624 409.648 51.156 409.648 51.748ZM406.648 49.78C406.176 49.78 405.776 49.932 405.448 50.236C405.128 50.532 404.924 50.924 404.836 51.412H408.424C408.36 50.924 408.168 50.532 407.848 50.236C407.528 49.932 407.128 49.78 406.648 49.78ZM415.718 55.144C415.166 55.144 414.714 54.952 414.362 54.568C414.018 54.184 413.846 53.66 413.846 52.996V49.936H412.862V48.772H413.846V47.272H415.118V48.772H416.414V49.936H415.118V52.912C415.118 53.256 415.194 53.516 415.346 53.692C415.506 53.86 415.726 53.944 416.006 53.944C416.174 53.944 416.31 53.92 416.414 53.872V55.024C416.174 55.104 415.942 55.144 415.718 55.144ZM421.497 48.772H422.805L420.297 55.324C420.025 56.02 419.745 56.508 419.457 56.788C419.169 57.076 418.829 57.22 418.437 57.22C418.213 57.22 417.993 57.18 417.777 57.1V55.936C417.897 55.992 418.045 56.02 418.221 56.02C418.453 56.02 418.641 55.96 418.785 55.84C418.929 55.72 419.049 55.52 419.145 55.24L419.301 54.796L416.949 48.772H418.317L419.937 53.224L421.497 48.772ZM427.113 48.64C427.681 48.64 428.189 48.78 428.637 49.06C429.093 49.34 429.449 49.728 429.705 50.224C429.969 50.72 430.101 51.276 430.101 51.892C430.101 52.508 429.969 53.064 429.705 53.56C429.449 54.056 429.093 54.444 428.637 54.724C428.181 55.004 427.669 55.144 427.101 55.144C426.661 55.144 426.261 55.056 425.901 54.88C425.541 54.704 425.273 54.484 425.097 54.22H425.037V57.16H423.765V48.772H424.869V49.684H424.929C425.177 49.34 425.485 49.08 425.853 48.904C426.229 48.728 426.649 48.64 427.113 48.64ZM426.933 53.956C427.293 53.956 427.617 53.868 427.905 53.692C428.201 53.516 428.429 53.272 428.589 52.96C428.757 52.64 428.841 52.284 428.841 51.892C428.841 51.492 428.757 51.136 428.589 50.824C428.429 50.504 428.201 50.256 427.905 50.08C427.617 49.904 427.293 49.816 426.933 49.816C426.573 49.816 426.249 49.904 425.961 50.08C425.673 50.256 425.445 50.504 425.277 50.824C425.117 51.136 425.037 51.492 425.037 51.892C425.037 52.284 425.117 52.64 425.277 52.96C425.445 53.272 425.673 53.516 425.961 53.692C426.249 53.868 426.573 53.956 426.933 53.956ZM437.116 51.748C437.116 52.044 437.1 52.26 437.068 52.396H432.304C432.392 52.892 432.596 53.284 432.916 53.572C433.236 53.852 433.64 53.992 434.128 53.992C434.784 53.992 435.272 53.732 435.592 53.212L436.828 53.452C436.604 53.98 436.26 54.396 435.796 54.7C435.332 54.996 434.776 55.144 434.128 55.144C433.528 55.144 432.992 55.004 432.52 54.724C432.048 54.436 431.68 54.044 431.416 53.548C431.16 53.052 431.032 52.496 431.032 51.88C431.032 51.288 431.164 50.744 431.428 50.248C431.7 49.752 432.068 49.36 432.532 49.072C433.004 48.784 433.532 48.64 434.116 48.64C434.684 48.64 435.196 48.776 435.652 49.048C436.116 49.312 436.476 49.68 436.732 50.152C436.988 50.624 437.116 51.156 437.116 51.748ZM434.116 49.78C433.644 49.78 433.244 49.932 432.916 50.236C432.596 50.532 432.392 50.924 432.304 51.412H435.892C435.828 50.924 435.636 50.532 435.316 50.236C434.996 49.932 434.596 49.78 434.116 49.78ZM439.726 52.576C439.726 52.168 439.778 51.824 439.882 51.544C439.994 51.256 440.126 51.024 440.278 50.848C440.43 50.664 440.63 50.464 440.878 50.248C441.174 49.984 441.39 49.752 441.526 49.552C441.67 49.344 441.742 49.076 441.742 48.748C441.742 48.428 441.63 48.176 441.406 47.992C441.182 47.8 440.878 47.704 440.494 47.704C440.118 47.704 439.806 47.808 439.558 48.016C439.31 48.216 439.146 48.504 439.066 48.88L437.746 48.628C437.898 47.956 438.21 47.428 438.682 47.044C439.154 46.652 439.762 46.456 440.506 46.456C441.018 46.456 441.47 46.552 441.862 46.744C442.254 46.936 442.554 47.204 442.762 47.548C442.978 47.884 443.086 48.268 443.086 48.7C443.086 49.044 443.034 49.34 442.93 49.588C442.834 49.836 442.714 50.04 442.57 50.2C442.434 50.36 442.242 50.548 441.994 50.764C441.666 51.052 441.418 51.324 441.25 51.58C441.082 51.836 440.998 52.168 440.998 52.576V52.696H439.726V52.576ZM440.374 55.084C440.158 55.084 439.974 55.012 439.822 54.868C439.678 54.716 439.606 54.536 439.606 54.328C439.606 54.112 439.678 53.932 439.822 53.788C439.974 53.644 440.158 53.572 440.374 53.572C440.582 53.572 440.758 53.644 440.902 53.788C441.054 53.932 441.13 54.112 441.13 54.328C441.13 54.536 441.054 54.716 440.902 54.868C440.758 55.012 440.582 55.084 440.374 55.084Z" fill="black"/>
<g filter="url(#filter0_d_324_1531)">
<rect x="37.668" y="82" width="800" height="160" rx="16" fill="white" shape-rendering="crispEdges"/>
<rect x="38.168" y="82.5" width="799" height="159" rx="15.5" stroke="#F2F2F2" shape-rendering="crispEdges"/>
<path d="M65.812 117.568V112.8H67.316V124H65.812V118.992H60.628V124H59.124V112.8H60.628V117.568H65.812ZM77.3213 119.68C77.3213 120.043 77.3 120.315 77.2573 120.496H70.8733C70.9693 121.232 71.2413 121.813 71.6893 122.24C72.148 122.667 72.7347 122.88 73.4493 122.88C74.42 122.88 75.124 122.48 75.5613 121.68L76.9373 121.936C76.6387 122.64 76.1907 123.189 75.5933 123.584C74.996 123.979 74.2813 124.176 73.4493 124.176C72.6707 124.176 71.972 123.989 71.3533 123.616C70.7453 123.243 70.2707 122.731 69.9293 122.08C69.5987 121.429 69.4333 120.693 69.4333 119.872C69.4333 119.083 69.604 118.363 69.9453 117.712C70.2973 117.051 70.7773 116.533 71.3853 116.16C71.9933 115.776 72.676 115.584 73.4333 115.584C74.18 115.584 74.8467 115.76 75.4333 116.112C76.0307 116.464 76.4947 116.955 76.8253 117.584C77.156 118.203 77.3213 118.901 77.3213 119.68ZM73.4333 116.88C72.7613 116.88 72.1907 117.109 71.7213 117.568C71.252 118.016 70.964 118.603 70.8573 119.328H75.9453C75.8707 118.603 75.604 118.016 75.1453 117.568C74.6973 117.109 74.1267 116.88 73.4333 116.88ZM80.7165 124H79.2925V112.8H80.7165V124ZM84.7633 124H83.3393V112.8H84.7633V124ZM90.8422 124.176C90.0636 124.176 89.3596 123.989 88.7302 123.616C88.1116 123.243 87.6209 122.731 87.2582 122.08C86.9062 121.419 86.7302 120.683 86.7302 119.872C86.7302 119.061 86.9062 118.331 87.2582 117.68C87.6209 117.029 88.1116 116.517 88.7302 116.144C89.3596 115.771 90.0636 115.584 90.8422 115.584C91.6209 115.584 92.3196 115.771 92.9382 116.144C93.5676 116.517 94.0582 117.029 94.4102 117.68C94.7729 118.331 94.9542 119.061 94.9542 119.872C94.9542 120.683 94.7729 121.419 94.4102 122.08C94.0582 122.731 93.5676 123.243 92.9382 123.616C92.3196 123.989 91.6209 124.176 90.8422 124.176ZM90.8422 122.864C91.3542 122.864 91.8129 122.736 92.2182 122.48C92.6342 122.224 92.9596 121.872 93.1942 121.424C93.4289 120.965 93.5462 120.448 93.5462 119.872C93.5462 119.307 93.4289 118.8 93.1942 118.352C92.9596 117.893 92.6342 117.536 92.2182 117.28C91.8129 117.024 91.3542 116.896 90.8422 116.896C90.3302 116.896 89.8662 117.024 89.4502 117.28C89.0449 117.536 88.7249 117.893 88.4902 118.352C88.2662 118.8 88.1542 119.307 88.1542 119.872C88.1542 120.448 88.2662 120.965 88.4902 121.424C88.7249 121.872 89.0449 122.224 89.4502 122.48C89.8662 122.736 90.3302 122.864 90.8422 122.864ZM96.845 122.304C97.101 122.304 97.3143 122.395 97.485 122.576C97.6556 122.757 97.741 122.992 97.741 123.28C97.741 123.621 97.6343 123.979 97.421 124.352C97.2183 124.736 96.9676 125.051 96.669 125.296L96.237 125.056C96.5036 124.725 96.6796 124.405 96.765 124.096C96.5303 124.075 96.333 123.984 96.173 123.824C96.0236 123.653 95.949 123.445 95.949 123.2C95.949 122.944 96.0343 122.731 96.205 122.56C96.3756 122.389 96.589 122.304 96.845 122.304ZM110.476 121.84L112.412 115.76H113.836L111.068 124H109.9L107.996 118.224L106.076 124H104.924L102.156 115.76H103.644L105.564 121.808L107.564 115.76H108.476L110.476 121.84ZM115.324 124V112.8H116.748V116.784H116.828C117.02 116.475 117.313 116.197 117.708 115.952C118.113 115.707 118.572 115.584 119.084 115.584C119.67 115.584 120.198 115.733 120.668 116.032C121.137 116.331 121.505 116.757 121.772 117.312C122.049 117.856 122.188 118.485 122.188 119.2V124H120.78V119.248C120.78 118.544 120.593 117.979 120.22 117.552C119.846 117.115 119.372 116.896 118.796 116.896C118.188 116.896 117.692 117.115 117.308 117.552C116.934 117.979 116.748 118.544 116.748 119.248V124H115.324ZM129.643 124C129.558 123.691 129.505 123.296 129.483 122.816H129.387C128.694 123.723 127.803 124.176 126.715 124.176C125.926 124.176 125.275 123.957 124.763 123.52C124.251 123.072 123.995 122.496 123.995 121.792C123.995 121.013 124.299 120.379 124.907 119.888C125.526 119.397 126.337 119.109 127.339 119.024L129.243 118.848V118.704C129.243 118.139 129.083 117.696 128.763 117.376C128.443 117.045 127.995 116.88 127.419 116.88C126.971 116.88 126.587 117.003 126.267 117.248C125.958 117.483 125.745 117.808 125.627 118.224L124.251 117.952C124.443 117.227 124.817 116.651 125.371 116.224C125.926 115.797 126.614 115.584 127.435 115.584C128.427 115.584 129.211 115.872 129.787 116.448C130.374 117.013 130.667 117.792 130.667 118.784V121.488C130.667 122.576 130.753 123.413 130.923 124H129.643ZM126.955 122.944C127.617 122.944 128.161 122.741 128.587 122.336C129.025 121.92 129.243 121.403 129.243 120.784V119.984L127.467 120.176C126.849 120.24 126.347 120.405 125.963 120.672C125.59 120.928 125.403 121.28 125.403 121.728C125.403 122.123 125.542 122.427 125.819 122.64C126.107 122.843 126.486 122.944 126.955 122.944ZM135.652 124.176C134.959 124.176 134.393 123.931 133.956 123.44C133.519 122.949 133.3 122.277 133.3 121.424V117.072H131.94V115.76H133.3V113.744H134.708V115.76H136.484V117.072H134.708V121.376C134.708 121.867 134.815 122.235 135.028 122.48C135.252 122.725 135.556 122.848 135.94 122.848C136.132 122.848 136.313 122.816 136.484 122.752V124.032C136.217 124.128 135.94 124.176 135.652 124.176ZM148.961 121.84L150.897 115.76H152.321L149.553 124H148.385L146.481 118.224L144.561 124H143.409L140.641 115.76H142.129L144.049 121.808L146.049 115.76H146.961L148.961 121.84ZM157.108 124.176C156.329 124.176 155.625 123.989 154.996 123.616C154.377 123.243 153.887 122.731 153.524 122.08C153.172 121.419 152.996 120.683 152.996 119.872C152.996 119.061 153.172 118.331 153.524 117.68C153.887 117.029 154.377 116.517 154.996 116.144C155.625 115.771 156.329 115.584 157.108 115.584C157.887 115.584 158.585 115.771 159.204 116.144C159.833 116.517 160.324 117.029 160.676 117.68C161.039 118.331 161.22 119.061 161.22 119.872C161.22 120.683 161.039 121.419 160.676 122.08C160.324 122.731 159.833 123.243 159.204 123.616C158.585 123.989 157.887 124.176 157.108 124.176ZM157.108 122.864C157.62 122.864 158.079 122.736 158.484 122.48C158.9 122.224 159.225 121.872 159.46 121.424C159.695 120.965 159.812 120.448 159.812 119.872C159.812 119.307 159.695 118.8 159.46 118.352C159.225 117.893 158.9 117.536 158.484 117.28C158.079 117.024 157.62 116.896 157.108 116.896C156.596 116.896 156.132 117.024 155.716 117.28C155.311 117.536 154.991 117.893 154.756 118.352C154.532 118.8 154.42 119.307 154.42 119.872C154.42 120.448 154.532 120.965 154.756 121.424C154.991 121.872 155.311 122.224 155.716 122.48C156.132 122.736 156.596 122.864 157.108 122.864ZM168.754 124C168.668 123.669 168.615 123.275 168.594 122.816H168.514C168.268 123.221 167.932 123.552 167.506 123.808C167.09 124.053 166.615 124.176 166.082 124.176C165.474 124.176 164.924 124.027 164.434 123.728C163.954 123.419 163.58 122.992 163.314 122.448C163.047 121.893 162.914 121.264 162.914 120.56V115.76H164.338V120.512C164.338 121.205 164.519 121.771 164.882 122.208C165.255 122.645 165.735 122.864 166.322 122.864C166.93 122.864 167.42 122.645 167.794 122.208C168.178 121.771 168.37 121.205 168.37 120.512V115.76H169.778V121.488C169.778 122.533 169.868 123.371 170.05 124H168.754ZM173.763 124H172.339V112.8H173.763V124ZM182.946 124C182.829 123.648 182.754 123.195 182.722 122.64H182.658C182.317 123.152 181.89 123.536 181.378 123.792C180.877 124.048 180.317 124.176 179.698 124.176C178.952 124.176 178.274 123.989 177.666 123.616C177.069 123.243 176.594 122.731 176.242 122.08C175.901 121.419 175.73 120.683 175.73 119.872C175.73 119.061 175.901 118.331 176.242 117.68C176.594 117.029 177.074 116.517 177.682 116.144C178.29 115.771 178.973 115.584 179.73 115.584C180.317 115.584 180.85 115.712 181.33 115.968C181.821 116.224 182.2 116.56 182.466 116.976H182.546V112.8H183.954V121.488C183.954 122.555 184.045 123.392 184.226 124H182.946ZM179.842 122.864C180.354 122.864 180.813 122.736 181.218 122.48C181.634 122.224 181.96 121.872 182.194 121.424C182.429 120.965 182.546 120.448 182.546 119.872C182.546 119.307 182.429 118.8 182.194 118.352C181.96 117.893 181.634 117.536 181.218 117.28C180.813 117.024 180.354 116.896 179.842 116.896C179.33 116.896 178.866 117.024 178.45 117.28C178.045 117.536 177.725 117.893 177.49 118.352C177.266 118.8 177.154 119.307 177.154 119.872C177.154 120.448 177.266 120.965 177.49 121.424C177.725 121.872 178.045 122.224 178.45 122.48C178.866 122.736 179.33 122.864 179.842 122.864ZM195.079 115.76H196.535L193.143 124.576C192.802 125.461 192.45 126.08 192.087 126.432C191.735 126.784 191.319 126.96 190.839 126.96C190.562 126.96 190.301 126.912 190.055 126.816V125.52C190.205 125.595 190.397 125.632 190.631 125.632C190.909 125.632 191.143 125.547 191.335 125.376C191.527 125.216 191.687 124.944 191.815 124.56L192.119 123.728L188.983 115.76H190.503L192.823 121.984L195.079 115.76ZM201.28 124.176C200.501 124.176 199.797 123.989 199.168 123.616C198.549 123.243 198.058 122.731 197.696 122.08C197.344 121.419 197.168 120.683 197.168 119.872C197.168 119.061 197.344 118.331 197.696 117.68C198.058 117.029 198.549 116.517 199.168 116.144C199.797 115.771 200.501 115.584 201.28 115.584C202.058 115.584 202.757 115.771 203.376 116.144C204.005 116.517 204.496 117.029 204.848 117.68C205.21 118.331 205.392 119.061 205.392 119.872C205.392 120.683 205.21 121.419 204.848 122.08C204.496 122.731 204.005 123.243 203.376 123.616C202.757 123.989 202.058 124.176 201.28 124.176ZM201.28 122.864C201.792 122.864 202.25 122.736 202.656 122.48C203.072 122.224 203.397 121.872 203.632 121.424C203.866 120.965 203.984 120.448 203.984 119.872C203.984 119.307 203.866 118.8 203.632 118.352C203.397 117.893 203.072 117.536 202.656 117.28C202.25 117.024 201.792 116.896 201.28 116.896C200.768 116.896 200.304 117.024 199.888 117.28C199.482 117.536 199.162 117.893 198.928 118.352C198.704 118.8 198.592 119.307 198.592 119.872C198.592 120.448 198.704 120.965 198.928 121.424C199.162 121.872 199.482 122.224 199.888 122.48C200.304 122.736 200.768 122.864 201.28 122.864ZM212.926 124C212.84 123.669 212.787 123.275 212.766 122.816H212.686C212.44 123.221 212.104 123.552 211.678 123.808C211.262 124.053 210.787 124.176 210.254 124.176C209.646 124.176 209.096 124.027 208.606 123.728C208.126 123.419 207.752 122.992 207.486 122.448C207.219 121.893 207.086 121.264 207.086 120.56V115.76H208.51V120.512C208.51 121.205 208.691 121.771 209.054 122.208C209.427 122.645 209.907 122.864 210.494 122.864C211.102 122.864 211.592 122.645 211.966 122.208C212.35 121.771 212.542 121.205 212.542 120.512V115.76H213.95V121.488C213.95 122.533 214.04 123.371 214.222 124H212.926ZM221.826 124H220.402V112.8H221.826V124ZM225.793 124H224.369V115.76H225.793V124ZM225.089 114.528C224.843 114.528 224.635 114.448 224.465 114.288C224.294 114.117 224.209 113.904 224.209 113.648C224.209 113.392 224.294 113.184 224.465 113.024C224.635 112.853 224.843 112.768 225.089 112.768C225.334 112.768 225.542 112.853 225.713 113.024C225.883 113.184 225.969 113.392 225.969 113.648C225.969 113.904 225.883 114.117 225.713 114.288C225.542 114.448 225.334 114.528 225.089 114.528ZM235.235 124H233.507L230.883 120.24L229.763 121.52V124H228.339V112.8H229.763V119.776L233.187 115.76H234.915L231.843 119.232L235.235 124ZM243.493 119.68C243.493 120.043 243.472 120.315 243.429 120.496H237.045C237.141 121.232 237.413 121.813 237.861 122.24C238.32 122.667 238.907 122.88 239.621 122.88C240.592 122.88 241.296 122.48 241.733 121.68L243.109 121.936C242.811 122.64 242.363 123.189 241.765 123.584C241.168 123.979 240.453 124.176 239.621 124.176C238.843 124.176 238.144 123.989 237.525 123.616C236.917 123.243 236.443 122.731 236.101 122.08C235.771 121.429 235.605 120.693 235.605 119.872C235.605 119.083 235.776 118.363 236.117 117.712C236.469 117.051 236.949 116.533 237.557 116.16C238.165 115.776 238.848 115.584 239.605 115.584C240.352 115.584 241.019 115.76 241.605 116.112C242.203 116.464 242.667 116.955 242.997 117.584C243.328 118.203 243.493 118.901 243.493 119.68ZM239.605 116.88C238.933 116.88 238.363 117.109 237.893 117.568C237.424 118.016 237.136 118.603 237.029 119.328H242.117C242.043 118.603 241.776 118.016 241.317 117.568C240.869 117.109 240.299 116.88 239.605 116.88ZM251.511 124.176C250.818 124.176 250.253 123.931 249.815 123.44C249.378 122.949 249.159 122.277 249.159 121.424V117.072H247.799V115.76H249.159V113.744H250.567V115.76H252.343V117.072H250.567V121.376C250.567 121.867 250.674 122.235 250.887 122.48C251.111 122.725 251.415 122.848 251.799 122.848C251.991 122.848 252.173 122.816 252.343 122.752V124.032C252.077 124.128 251.799 124.176 251.511 124.176ZM257.717 124.176C256.939 124.176 256.235 123.989 255.605 123.616C254.987 123.243 254.496 122.731 254.133 122.08C253.781 121.419 253.605 120.683 253.605 119.872C253.605 119.061 253.781 118.331 254.133 117.68C254.496 117.029 254.987 116.517 255.605 116.144C256.235 115.771 256.939 115.584 257.717 115.584C258.496 115.584 259.195 115.771 259.813 116.144C260.443 116.517 260.933 117.029 261.285 117.68C261.648 118.331 261.829 119.061 261.829 119.872C261.829 120.683 261.648 121.419 261.285 122.08C260.933 122.731 260.443 123.243 259.813 123.616C259.195 123.989 258.496 124.176 257.717 124.176ZM257.717 122.864C258.229 122.864 258.688 122.736 259.093 122.48C259.509 122.224 259.835 121.872 260.069 121.424C260.304 120.965 260.421 120.448 260.421 119.872C260.421 119.307 260.304 118.8 260.069 118.352C259.835 117.893 259.509 117.536 259.093 117.28C258.688 117.024 258.229 116.896 257.717 116.896C257.205 116.896 256.741 117.024 256.325 117.28C255.92 117.536 255.6 117.893 255.365 118.352C255.141 118.8 255.029 119.307 255.029 119.872C255.029 120.448 255.141 120.965 255.365 121.424C255.6 121.872 255.92 122.224 256.325 122.48C256.741 122.736 257.205 122.864 257.717 122.864ZM269.55 124.176C268.772 124.176 268.116 123.979 267.582 123.584C267.049 123.189 266.702 122.677 266.542 122.048L267.902 121.776C268.009 122.128 268.201 122.411 268.478 122.624C268.766 122.837 269.124 122.944 269.55 122.944C269.998 122.944 270.345 122.843 270.59 122.64C270.846 122.427 270.974 122.149 270.974 121.808C270.974 121.552 270.894 121.339 270.734 121.168C270.585 120.997 270.393 120.859 270.158 120.752C269.934 120.645 269.609 120.517 269.182 120.368C268.66 120.187 268.228 120.016 267.886 119.856C267.556 119.685 267.273 119.445 267.038 119.136C266.804 118.816 266.686 118.411 266.686 117.92C266.686 117.483 266.798 117.088 267.022 116.736C267.246 116.384 267.561 116.107 267.966 115.904C268.382 115.691 268.868 115.584 269.422 115.584C270.158 115.584 270.766 115.776 271.246 116.16C271.726 116.533 272.046 117.024 272.206 117.632L270.846 117.904C270.633 117.179 270.158 116.816 269.422 116.816C269.006 116.816 268.681 116.917 268.446 117.12C268.212 117.312 268.094 117.568 268.094 117.888C268.094 118.229 268.238 118.496 268.526 118.688C268.814 118.869 269.252 119.056 269.838 119.248C270.382 119.44 270.825 119.621 271.166 119.792C271.508 119.963 271.796 120.208 272.03 120.528C272.276 120.848 272.398 121.259 272.398 121.76C272.398 122.464 272.142 123.045 271.63 123.504C271.118 123.952 270.425 124.176 269.55 124.176ZM281.618 119.68C281.618 120.043 281.597 120.315 281.554 120.496H275.17C275.266 121.232 275.538 121.813 275.986 122.24C276.445 122.667 277.032 122.88 277.746 122.88C278.717 122.88 279.421 122.48 279.858 121.68L281.234 121.936C280.936 122.64 280.488 123.189 279.89 123.584C279.293 123.979 278.578 124.176 277.746 124.176C276.968 124.176 276.269 123.989 275.65 123.616C275.042 123.243 274.568 122.731 274.226 122.08C273.896 121.429 273.73 120.693 273.73 119.872C273.73 119.083 273.901 118.363 274.242 117.712C274.594 117.051 275.074 116.533 275.682 116.16C276.29 115.776 276.973 115.584 277.73 115.584C278.477 115.584 279.144 115.76 279.73 116.112C280.328 116.464 280.792 116.955 281.122 117.584C281.453 118.203 281.618 118.901 281.618 119.68ZM277.73 116.88C277.058 116.88 276.488 117.109 276.018 117.568C275.549 118.016 275.261 118.603 275.154 119.328H280.242C280.168 118.603 279.901 118.016 279.442 117.568C278.994 117.109 278.424 116.88 277.73 116.88ZM288.565 124C288.48 123.691 288.427 123.296 288.405 122.816H288.309C287.616 123.723 286.725 124.176 285.637 124.176C284.848 124.176 284.197 123.957 283.685 123.52C283.173 123.072 282.917 122.496 282.917 121.792C282.917 121.013 283.221 120.379 283.829 119.888C284.448 119.397 285.259 119.109 286.261 119.024L288.165 118.848V118.704C288.165 118.139 288.005 117.696 287.685 117.376C287.365 117.045 286.917 116.88 286.341 116.88C285.893 116.88 285.509 117.003 285.189 117.248C284.88 117.483 284.667 117.808 284.549 118.224L283.173 117.952C283.365 117.227 283.739 116.651 284.293 116.224C284.848 115.797 285.536 115.584 286.357 115.584C287.349 115.584 288.133 115.872 288.709 116.448C289.296 117.013 289.589 117.792 289.589 118.784V121.488C289.589 122.576 289.675 123.413 289.845 124H288.565ZM285.877 122.944C286.539 122.944 287.083 122.741 287.509 122.336C287.947 121.92 288.165 121.403 288.165 120.784V119.984L286.389 120.176C285.771 120.24 285.269 120.405 284.885 120.672C284.512 120.928 284.325 121.28 284.325 121.728C284.325 122.123 284.464 122.427 284.741 122.64C285.029 122.843 285.408 122.944 285.877 122.944ZM291.978 124V115.76H293.242V116.928H293.322C293.546 116.533 293.839 116.213 294.202 115.968C294.575 115.712 294.991 115.584 295.45 115.584C295.695 115.584 295.903 115.605 296.074 115.648V117.072C295.903 117.019 295.695 116.992 295.45 116.992C294.842 116.992 294.346 117.205 293.962 117.632C293.589 118.059 293.402 118.64 293.402 119.376V124H291.978ZM300.87 124.176C300.155 124.176 299.494 123.989 298.886 123.616C298.288 123.243 297.808 122.731 297.446 122.08C297.094 121.419 296.918 120.683 296.918 119.872C296.918 119.072 297.094 118.347 297.446 117.696C297.808 117.035 298.288 116.517 298.886 116.144C299.494 115.771 300.155 115.584 300.87 115.584C301.744 115.584 302.507 115.829 303.158 116.32C303.808 116.811 304.256 117.451 304.502 118.24L303.142 118.512C302.939 118.011 302.646 117.616 302.262 117.328C301.878 117.04 301.419 116.896 300.886 116.896C300.427 116.896 300 117.024 299.606 117.28C299.222 117.525 298.912 117.877 298.678 118.336C298.454 118.784 298.342 119.296 298.342 119.872C298.342 120.448 298.454 120.965 298.678 121.424C298.912 121.872 299.222 122.224 299.606 122.48C300 122.736 300.427 122.864 300.886 122.864C301.419 122.864 301.878 122.725 302.262 122.448C302.656 122.16 302.95 121.76 303.142 121.248L304.502 121.52C304.235 122.299 303.776 122.939 303.126 123.44C302.475 123.931 301.723 124.176 300.87 124.176ZM306.402 124V112.8H307.826V116.784H307.906C308.098 116.475 308.391 116.197 308.786 115.952C309.191 115.707 309.65 115.584 310.162 115.584C310.749 115.584 311.277 115.733 311.746 116.032C312.215 116.331 312.583 116.757 312.85 117.312C313.127 117.856 313.266 118.485 313.266 119.2V124H311.858V119.248C311.858 118.544 311.671 117.979 311.298 117.552C310.925 117.115 310.45 116.896 309.874 116.896C309.266 116.896 308.77 117.115 308.386 117.552C308.013 117.979 307.826 118.544 307.826 119.248V124H306.402ZM322.329 113.984C321.945 113.984 321.646 114.107 321.433 114.352C321.22 114.597 321.113 114.965 321.113 115.456V115.76H322.889V117.056H321.129V124H319.721V117.056H318.617V115.76H319.721V115.36C319.721 114.517 319.94 113.851 320.377 113.36C320.814 112.869 321.38 112.624 322.073 112.624C322.329 112.624 322.601 112.672 322.889 112.768V114.08C322.729 114.016 322.542 113.984 322.329 113.984ZM327.967 124.176C327.189 124.176 326.485 123.989 325.855 123.616C325.237 123.243 324.746 122.731 324.383 122.08C324.031 121.419 323.855 120.683 323.855 119.872C323.855 119.061 324.031 118.331 324.383 117.68C324.746 117.029 325.237 116.517 325.855 116.144C326.485 115.771 327.189 115.584 327.967 115.584C328.746 115.584 329.445 115.771 330.063 116.144C330.693 116.517 331.183 117.029 331.535 117.68C331.898 118.331 332.079 119.061 332.079 119.872C332.079 120.683 331.898 121.419 331.535 122.08C331.183 122.731 330.693 123.243 330.063 123.616C329.445 123.989 328.746 124.176 327.967 124.176ZM327.967 122.864C328.479 122.864 328.938 122.736 329.343 122.48C329.759 122.224 330.085 121.872 330.319 121.424C330.554 120.965 330.671 120.448 330.671 119.872C330.671 119.307 330.554 118.8 330.319 118.352C330.085 117.893 329.759 117.536 329.343 117.28C328.938 117.024 328.479 116.896 327.967 116.896C327.455 116.896 326.991 117.024 326.575 117.28C326.17 117.536 325.85 117.893 325.615 118.352C325.391 118.8 325.279 119.307 325.279 119.872C325.279 120.448 325.391 120.965 325.615 121.424C325.85 121.872 326.17 122.224 326.575 122.48C326.991 122.736 327.455 122.864 327.967 122.864ZM333.962 124V115.76H335.226V116.928H335.306C335.53 116.533 335.824 116.213 336.186 115.968C336.56 115.712 336.976 115.584 337.434 115.584C337.68 115.584 337.888 115.605 338.058 115.648V117.072C337.888 117.019 337.68 116.992 337.434 116.992C336.826 116.992 336.33 117.205 335.946 117.632C335.573 118.059 335.386 118.64 335.386 119.376V124H333.962ZM341.586 120.848C341.586 120.293 341.656 119.824 341.794 119.44C341.944 119.045 342.12 118.725 342.322 118.48C342.525 118.224 342.792 117.941 343.122 117.632C343.517 117.269 343.81 116.944 344.002 116.656C344.194 116.368 344.29 115.995 344.29 115.536C344.29 115.077 344.125 114.709 343.794 114.432C343.474 114.155 343.042 114.016 342.498 114.016C341.944 114.016 341.49 114.171 341.138 114.48C340.786 114.779 340.552 115.195 340.434 115.728L338.962 115.44C339.165 114.565 339.57 113.877 340.178 113.376C340.786 112.875 341.57 112.624 342.53 112.624C343.17 112.624 343.736 112.747 344.226 112.992C344.717 113.237 345.101 113.579 345.378 114.016C345.656 114.453 345.794 114.944 345.794 115.488C345.794 115.936 345.73 116.325 345.602 116.656C345.474 116.987 345.314 117.264 345.122 117.488C344.941 117.712 344.696 117.963 344.386 118.24C344.088 118.517 343.848 118.763 343.666 118.976C343.485 119.189 343.33 119.451 343.202 119.76C343.085 120.069 343.026 120.432 343.026 120.848V121.04H341.586V120.848ZM342.322 124.096C342.066 124.096 341.853 124.011 341.682 123.84C341.512 123.659 341.426 123.445 341.426 123.2C341.426 122.955 341.512 122.747 341.682 122.576C341.853 122.395 342.066 122.304 342.322 122.304C342.568 122.304 342.776 122.395 342.946 122.576C343.128 122.747 343.218 122.955 343.218 123.2C343.218 123.445 343.128 123.659 342.946 123.84C342.776 124.011 342.568 124.096 342.322 124.096Z" fill="#7B7B7B"/>
<path d="M75.668 192.94H76.668C77.773 192.94 78.668 193.836 78.668 194.94V204C78.668 205.105 77.773 206 76.668 206H62.668C61.563 206 60.668 205.105 60.668 204V192C60.668 190.895 61.563 190 62.668 190H67.139C67.47 190 67.779 190.164 67.965 190.437L69.37 192.502C69.556 192.776 69.866 192.94 70.197 192.94H71.668M74.668 192H72.668C72.116 192 71.668 192.448 71.668 193V198L73.668 197L75.668 198V193C75.668 192.448 75.22 192 74.668 192Z" stroke="#111111" stroke-width="1.5" stroke-linecap="round" stroke-linejoin="round"/>
<path d="M92.468 203.692C91.348 203.692 90.42 203.399 89.684 202.812C88.9586 202.225 88.4893 201.452 88.276 200.492L90.132 200.156C90.2813 200.732 90.5533 201.196 90.948 201.548C91.3533 201.889 91.8546 202.06 92.452 202.06C93.0813 202.06 93.572 201.932 93.924 201.676C94.276 201.409 94.452 201.057 94.452 200.62C94.452 200.3 94.3506 200.033 94.148 199.82C93.9453 199.596 93.6893 199.415 93.38 199.276C93.0706 199.137 92.644 198.972 92.1 198.78C91.3533 198.524 90.7453 198.279 90.276 198.044C89.8066 197.799 89.4013 197.452 89.06 197.004C88.7293 196.556 88.564 195.975 88.564 195.26C88.564 194.663 88.7133 194.124 89.012 193.644C89.3213 193.164 89.7533 192.791 90.308 192.524C90.8733 192.247 91.5186 192.108 92.244 192.108C93.332 192.108 94.212 192.391 94.884 192.956C95.5666 193.511 96.004 194.247 96.196 195.164L94.34 195.5C94.2013 194.913 93.9506 194.476 93.588 194.188C93.2253 193.889 92.7773 193.74 92.244 193.74C91.6786 193.74 91.22 193.884 90.868 194.172C90.5266 194.449 90.356 194.812 90.356 195.26C90.356 195.612 90.4626 195.911 90.676 196.156C90.9 196.391 91.172 196.583 91.492 196.732C91.812 196.871 92.26 197.041 92.836 197.244C93.5613 197.489 94.148 197.729 94.596 197.964C95.0546 198.188 95.444 198.513 95.764 198.94C96.084 199.356 96.244 199.895 96.244 200.556C96.244 201.164 96.0893 201.708 95.78 202.188C95.4706 202.657 95.028 203.025 94.452 203.292C93.8866 203.559 93.2253 203.692 92.468 203.692ZM103.253 203.5C103.168 203.159 103.109 202.791 103.077 202.396H102.997C102.666 202.833 102.288 203.159 101.861 203.372C101.434 203.585 100.933 203.692 100.357 203.692C99.5355 203.692 98.8582 203.468 98.3248 203.02C97.8022 202.572 97.5408 201.985 97.5408 201.26C97.5408 200.471 97.8608 199.831 98.5008 199.34C99.1408 198.839 99.9888 198.545 101.045 198.46L102.789 198.3V198.22C102.789 197.697 102.64 197.287 102.341 196.988C102.053 196.689 101.648 196.54 101.125 196.54C100.709 196.54 100.357 196.647 100.069 196.86C99.7915 197.073 99.5942 197.367 99.4768 197.74L97.8448 197.42C98.0368 196.684 98.4155 196.103 98.9808 195.676C99.5462 195.239 100.261 195.02 101.125 195.02C102.17 195.02 102.992 195.319 103.589 195.916C104.186 196.503 104.485 197.313 104.485 198.348V200.892C104.485 202.001 104.576 202.871 104.757 203.5H103.253ZM100.661 202.252C101.28 202.252 101.786 202.065 102.181 201.692C102.586 201.308 102.789 200.823 102.789 200.236V199.612L101.141 199.772C100.565 199.825 100.101 199.969 99.7488 200.204C99.4075 200.439 99.2368 200.759 99.2368 201.164C99.2368 201.516 99.3648 201.788 99.6208 201.98C99.8875 202.161 100.234 202.252 100.661 202.252ZM109.436 201.436L111.612 195.196H113.356L110.204 203.5H108.588L105.436 195.196H107.244L109.436 201.436ZM122.013 199.164C122.013 199.559 121.992 199.847 121.949 200.028H115.597C115.715 200.689 115.987 201.212 116.413 201.596C116.84 201.969 117.379 202.156 118.029 202.156C118.904 202.156 119.555 201.809 119.981 201.116L121.629 201.436C121.331 202.14 120.872 202.695 120.253 203.1C119.635 203.495 118.893 203.692 118.029 203.692C117.229 203.692 116.515 203.505 115.885 203.132C115.256 202.748 114.765 202.225 114.413 201.564C114.072 200.903 113.901 200.161 113.901 199.34C113.901 198.551 114.077 197.825 114.429 197.164C114.792 196.503 115.283 195.98 115.901 195.596C116.531 195.212 117.235 195.02 118.013 195.02C118.771 195.02 119.453 195.201 120.061 195.564C120.68 195.916 121.16 196.407 121.501 197.036C121.843 197.665 122.013 198.375 122.013 199.164ZM118.013 196.54C117.384 196.54 116.851 196.743 116.413 197.148C115.987 197.543 115.715 198.065 115.597 198.716H120.381C120.296 198.065 120.04 197.543 119.613 197.148C119.187 196.743 118.653 196.54 118.013 196.54ZM130.493 203.5C130.386 203.095 130.317 202.679 130.285 202.252H130.221C129.89 202.721 129.469 203.079 128.957 203.324C128.455 203.569 127.89 203.692 127.261 203.692C126.503 203.692 125.821 203.505 125.213 203.132C124.605 202.759 124.125 202.241 123.773 201.58C123.431 200.908 123.261 200.161 123.261 199.34C123.261 198.519 123.431 197.783 123.773 197.132C124.125 196.471 124.605 195.953 125.213 195.58C125.831 195.207 126.519 195.02 127.277 195.02C127.853 195.02 128.381 195.137 128.861 195.372C129.351 195.607 129.709 195.9 129.933 196.252H130.013V192.3H131.709V200.892C131.709 201.991 131.805 202.86 131.997 203.5H130.493ZM127.485 202.108C127.965 202.108 128.397 201.991 128.781 201.756C129.165 201.521 129.463 201.196 129.677 200.78C129.901 200.353 130.013 199.873 130.013 199.34C130.013 198.817 129.901 198.348 129.677 197.932C129.463 197.505 129.165 197.175 128.781 196.94C128.397 196.705 127.965 196.588 127.485 196.588C127.005 196.588 126.573 196.705 126.189 196.94C125.805 197.175 125.501 197.505 125.277 197.932C125.063 198.348 124.957 198.817 124.957 199.34C124.957 199.873 125.063 200.353 125.277 200.78C125.501 201.196 125.805 201.521 126.189 201.756C126.573 201.991 127.005 202.108 127.485 202.108ZM142.566 195.02C143.323 195.02 144.001 195.207 144.598 195.58C145.206 195.953 145.681 196.471 146.022 197.132C146.374 197.793 146.55 198.535 146.55 199.356C146.55 200.177 146.374 200.919 146.022 201.58C145.681 202.241 145.206 202.759 144.598 203.132C143.99 203.505 143.307 203.692 142.55 203.692C141.963 203.692 141.43 203.575 140.95 203.34C140.47 203.105 140.113 202.812 139.878 202.46H139.798V206.38H138.102V195.196H139.574V196.412H139.654C139.985 195.953 140.395 195.607 140.886 195.372C141.387 195.137 141.947 195.02 142.566 195.02ZM142.326 202.108C142.806 202.108 143.238 201.991 143.622 201.756C144.017 201.521 144.321 201.196 144.534 200.78C144.758 200.353 144.87 199.879 144.87 199.356C144.87 198.823 144.758 198.348 144.534 197.932C144.321 197.505 144.017 197.175 143.622 196.94C143.238 196.705 142.806 196.588 142.326 196.588C141.846 196.588 141.414 196.705 141.03 196.94C140.646 197.175 140.342 197.505 140.118 197.932C139.905 198.348 139.798 198.823 139.798 199.356C139.798 199.879 139.905 200.353 140.118 200.78C140.342 201.196 140.646 201.521 141.03 201.756C141.414 201.991 141.846 202.108 142.326 202.108ZM148.352 203.5V195.196H149.824V196.3H149.904C150.107 195.937 150.389 195.633 150.752 195.388C151.125 195.143 151.536 195.02 151.984 195.02C152.251 195.02 152.475 195.041 152.656 195.084V196.78C152.485 196.727 152.256 196.7 151.968 196.7C151.392 196.7 150.928 196.897 150.576 197.292C150.224 197.687 150.048 198.225 150.048 198.908V203.5H148.352ZM157.672 203.692C156.872 203.692 156.152 203.505 155.512 203.132C154.872 202.748 154.366 202.225 153.992 201.564C153.63 200.903 153.448 200.161 153.448 199.34C153.448 198.529 153.63 197.799 153.992 197.148C154.366 196.487 154.872 195.969 155.512 195.596C156.152 195.212 156.872 195.02 157.672 195.02C158.472 195.02 159.192 195.212 159.832 195.596C160.472 195.969 160.974 196.487 161.336 197.148C161.71 197.799 161.896 198.529 161.896 199.34C161.896 200.161 161.71 200.903 161.336 201.564C160.974 202.225 160.472 202.748 159.832 203.132C159.192 203.505 158.472 203.692 157.672 203.692ZM157.672 202.108C158.152 202.108 158.584 201.991 158.968 201.756C159.352 201.521 159.651 201.196 159.864 200.78C160.088 200.353 160.2 199.873 160.2 199.34C160.2 198.817 160.088 198.348 159.864 197.932C159.651 197.505 159.352 197.175 158.968 196.94C158.584 196.705 158.152 196.588 157.672 196.588C157.192 196.588 156.76 196.705 156.376 196.94C155.992 197.175 155.688 197.505 155.464 197.932C155.251 198.348 155.144 198.817 155.144 199.34C155.144 199.873 155.251 200.353 155.464 200.78C155.688 201.196 155.992 201.521 156.376 201.756C156.76 201.991 157.192 202.108 157.672 202.108ZM172.063 195.02C172.607 195.02 173.093 195.159 173.519 195.436C173.946 195.713 174.277 196.113 174.511 196.636C174.757 197.148 174.879 197.761 174.879 198.476V203.5H173.183V198.524C173.183 197.927 173.045 197.457 172.767 197.116C172.49 196.764 172.127 196.588 171.679 196.588C171.242 196.588 170.874 196.769 170.575 197.132C170.287 197.484 170.143 197.948 170.143 198.524V203.5H168.447V198.524C168.447 197.927 168.303 197.457 168.015 197.116C167.738 196.764 167.381 196.588 166.943 196.588C166.506 196.588 166.138 196.769 165.839 197.132C165.551 197.484 165.407 197.948 165.407 198.524V203.5H163.711V195.196H165.183V196.3H165.263C165.487 195.959 165.77 195.66 166.111 195.404C166.463 195.148 166.885 195.02 167.375 195.02C167.941 195.02 168.415 195.159 168.799 195.436C169.183 195.713 169.471 196.028 169.663 196.38C169.877 196.028 170.186 195.713 170.591 195.436C171.007 195.159 171.498 195.02 172.063 195.02ZM181.628 195.02C182.386 195.02 183.063 195.207 183.66 195.58C184.268 195.953 184.743 196.471 185.084 197.132C185.436 197.793 185.612 198.535 185.612 199.356C185.612 200.177 185.436 200.919 185.084 201.58C184.743 202.241 184.268 202.759 183.66 203.132C183.052 203.505 182.37 203.692 181.612 203.692C181.026 203.692 180.492 203.575 180.012 203.34C179.532 203.105 179.175 202.812 178.94 202.46H178.86V206.38H177.164V195.196H178.636V196.412H178.716C179.047 195.953 179.458 195.607 179.948 195.372C180.45 195.137 181.01 195.02 181.628 195.02ZM181.388 202.108C181.868 202.108 182.3 201.991 182.684 201.756C183.079 201.521 183.383 201.196 183.596 200.78C183.82 200.353 183.932 199.879 183.932 199.356C183.932 198.823 183.82 198.348 183.596 197.932C183.383 197.505 183.079 197.175 182.684 196.94C182.3 196.705 181.868 196.588 181.388 196.588C180.908 196.588 180.476 196.705 180.092 196.94C179.708 197.175 179.404 197.505 179.18 197.932C178.967 198.348 178.86 198.823 178.86 199.356C178.86 199.879 178.967 200.353 179.18 200.78C179.404 201.196 179.708 201.521 180.092 201.756C180.476 201.991 180.908 202.108 181.388 202.108ZM190.17 203.692C189.434 203.692 188.832 203.436 188.362 202.924C187.904 202.412 187.674 201.713 187.674 200.828V196.748H186.362V195.196H187.674V193.196H189.37V195.196H191.098V196.748H189.37V200.716C189.37 201.175 189.472 201.521 189.674 201.756C189.888 201.98 190.181 202.092 190.554 202.092C190.778 202.092 190.96 202.06 191.098 201.996V203.532C190.778 203.639 190.469 203.692 190.17 203.692ZM195.411 203.692C194.611 203.692 193.934 203.495 193.379 203.1C192.824 202.695 192.462 202.177 192.291 201.548L193.923 201.212C194.019 201.532 194.195 201.788 194.451 201.98C194.707 202.172 195.027 202.268 195.411 202.268C195.827 202.268 196.147 202.177 196.371 201.996C196.595 201.815 196.707 201.569 196.707 201.26C196.707 200.919 196.563 200.657 196.275 200.476C195.998 200.295 195.566 200.108 194.979 199.916C194.435 199.724 193.992 199.543 193.651 199.372C193.32 199.201 193.032 198.956 192.787 198.636C192.552 198.316 192.435 197.905 192.435 197.404C192.435 196.956 192.547 196.551 192.771 196.188C193.006 195.825 193.336 195.543 193.763 195.34C194.2 195.127 194.712 195.02 195.299 195.02C196.067 195.02 196.702 195.212 197.203 195.596C197.704 195.969 198.035 196.465 198.195 197.084L196.579 197.404C196.483 197.095 196.323 196.855 196.099 196.684C195.886 196.513 195.619 196.428 195.299 196.428C194.926 196.428 194.638 196.519 194.435 196.7C194.232 196.871 194.131 197.095 194.131 197.372C194.131 197.681 194.264 197.921 194.531 198.092C194.798 198.252 195.219 198.428 195.795 198.62C196.339 198.801 196.782 198.983 197.123 199.164C197.475 199.335 197.774 199.585 198.019 199.916C198.275 200.236 198.403 200.657 198.403 201.18C198.403 201.916 198.136 202.519 197.603 202.988C197.08 203.457 196.35 203.692 195.411 203.692Z" fill="#111111"/>
<line x1="211.168" y1="218" x2="211.168" y2="178" stroke="#E9E9E9"/>
<path d="M247.104 200.484L252.668 202.976L243.655 207L234.668 202.976L240.232 200.491M247.104 195.509L252.668 198L243.655 202.024L234.668 198L240.232 195.516M234.668 193.024L243.655 197.049L252.668 193.024L243.681 189L234.668 193.024Z" stroke="#111111" stroke-width="1.5" stroke-linecap="round" stroke-linejoin="round"/>
<path d="M266.468 203.692C265.348 203.692 264.42 203.399 263.684 202.812C262.959 202.225 262.489 201.452 262.276 200.492L264.132 200.156C264.281 200.732 264.553 201.196 264.948 201.548C265.353 201.889 265.855 202.06 266.452 202.06C267.081 202.06 267.572 201.932 267.924 201.676C268.276 201.409 268.452 201.057 268.452 200.62C268.452 200.3 268.351 200.033 268.148 199.82C267.945 199.596 267.689 199.415 267.38 199.276C267.071 199.137 266.644 198.972 266.1 198.78C265.353 198.524 264.745 198.279 264.276 198.044C263.807 197.799 263.401 197.452 263.06 197.004C262.729 196.556 262.564 195.975 262.564 195.26C262.564 194.663 262.713 194.124 263.012 193.644C263.321 193.164 263.753 192.791 264.308 192.524C264.873 192.247 265.519 192.108 266.244 192.108C267.332 192.108 268.212 192.391 268.884 192.956C269.567 193.511 270.004 194.247 270.196 195.164L268.34 195.5C268.201 194.913 267.951 194.476 267.588 194.188C267.225 193.889 266.777 193.74 266.244 193.74C265.679 193.74 265.22 193.884 264.868 194.172C264.527 194.449 264.356 194.812 264.356 195.26C264.356 195.612 264.463 195.911 264.676 196.156C264.9 196.391 265.172 196.583 265.492 196.732C265.812 196.871 266.26 197.041 266.836 197.244C267.561 197.489 268.148 197.729 268.596 197.964C269.055 198.188 269.444 198.513 269.764 198.94C270.084 199.356 270.244 199.895 270.244 200.556C270.244 201.164 270.089 201.708 269.78 202.188C269.471 202.657 269.028 203.025 268.452 203.292C267.887 203.559 267.225 203.692 266.468 203.692ZM275.813 203.692C275.013 203.692 274.293 203.505 273.653 203.132C273.013 202.748 272.506 202.225 272.133 201.564C271.77 200.903 271.589 200.161 271.589 199.34C271.589 198.529 271.77 197.799 272.133 197.148C272.506 196.487 273.013 195.969 273.653 195.596C274.293 195.212 275.013 195.02 275.813 195.02C276.613 195.02 277.333 195.212 277.973 195.596C278.613 195.969 279.114 196.487 279.477 197.148C279.85 197.799 280.037 198.529 280.037 199.34C280.037 200.161 279.85 200.903 279.477 201.564C279.114 202.225 278.613 202.748 277.973 203.132C277.333 203.505 276.613 203.692 275.813 203.692ZM275.813 202.108C276.293 202.108 276.725 201.991 277.109 201.756C277.493 201.521 277.792 201.196 278.005 200.78C278.229 200.353 278.341 199.873 278.341 199.34C278.341 198.817 278.229 198.348 278.005 197.932C277.792 197.505 277.493 197.175 277.109 196.94C276.725 196.705 276.293 196.588 275.813 196.588C275.333 196.588 274.901 196.705 274.517 196.94C274.133 197.175 273.829 197.505 273.605 197.932C273.392 198.348 273.285 198.817 273.285 199.34C273.285 199.873 273.392 200.353 273.605 200.78C273.829 201.196 274.133 201.521 274.517 201.756C274.901 201.991 275.333 202.108 275.813 202.108ZM287.597 203.5C287.512 203.159 287.453 202.785 287.421 202.38H287.341C287.107 202.743 286.781 203.052 286.365 203.308C285.949 203.564 285.464 203.692 284.909 203.692C284.291 203.692 283.736 203.543 283.245 203.244C282.765 202.935 282.387 202.508 282.109 201.964C281.843 201.409 281.709 200.775 281.709 200.06V195.196H283.405V199.964C283.405 200.593 283.576 201.111 283.917 201.516C284.259 201.911 284.701 202.108 285.245 202.108C285.8 202.108 286.248 201.911 286.589 201.516C286.941 201.111 287.117 200.593 287.117 199.964V195.196H288.813V200.892C288.813 202.023 288.909 202.892 289.101 203.5H287.597ZM291.18 203.5V195.196H292.652V196.3H292.732C292.935 195.937 293.217 195.633 293.58 195.388C293.953 195.143 294.364 195.02 294.812 195.02C295.079 195.02 295.303 195.041 295.484 195.084V196.78C295.313 196.727 295.084 196.7 294.796 196.7C294.22 196.7 293.756 196.897 293.404 197.292C293.052 197.687 292.876 198.225 292.876 198.908V203.5H291.18ZM300.324 203.692C299.588 203.692 298.911 203.5 298.292 203.116C297.674 202.732 297.183 202.209 296.82 201.548C296.458 200.887 296.276 200.151 296.276 199.34C296.276 198.54 296.458 197.809 296.82 197.148C297.183 196.487 297.674 195.969 298.292 195.596C298.911 195.212 299.588 195.02 300.324 195.02C301.22 195.02 302.004 195.265 302.676 195.756C303.348 196.247 303.812 196.897 304.068 197.708L302.436 198.012C302.244 197.575 301.967 197.228 301.604 196.972C301.252 196.716 300.836 196.588 300.356 196.588C299.919 196.588 299.519 196.705 299.156 196.94C298.794 197.175 298.506 197.505 298.292 197.932C298.079 198.348 297.972 198.817 297.972 199.34C297.972 199.873 298.079 200.353 298.292 200.78C298.506 201.196 298.794 201.521 299.156 201.756C299.519 201.991 299.919 202.108 300.356 202.108C300.847 202.108 301.268 201.985 301.62 201.74C301.972 201.484 302.244 201.132 302.436 200.684L304.068 201.004C303.791 201.804 303.316 202.455 302.644 202.956C301.972 203.447 301.199 203.692 300.324 203.692ZM313.341 199.164C313.341 199.559 313.32 199.847 313.277 200.028H306.925C307.043 200.689 307.315 201.212 307.741 201.596C308.168 201.969 308.707 202.156 309.357 202.156C310.232 202.156 310.883 201.809 311.309 201.116L312.957 201.436C312.659 202.14 312.2 202.695 311.581 203.1C310.963 203.495 310.221 203.692 309.357 203.692C308.557 203.692 307.843 203.505 307.213 203.132C306.584 202.748 306.093 202.225 305.741 201.564C305.4 200.903 305.229 200.161 305.229 199.34C305.229 198.551 305.405 197.825 305.757 197.164C306.12 196.503 306.611 195.98 307.229 195.596C307.859 195.212 308.563 195.02 309.341 195.02C310.099 195.02 310.781 195.201 311.389 195.564C312.008 195.916 312.488 196.407 312.829 197.036C313.171 197.665 313.341 198.375 313.341 199.164ZM309.341 196.54C308.712 196.54 308.179 196.743 307.741 197.148C307.315 197.543 307.043 198.065 306.925 198.716H311.709C311.624 198.065 311.368 197.543 310.941 197.148C310.515 196.743 309.981 196.54 309.341 196.54ZM317.661 203.692C316.861 203.692 316.184 203.495 315.629 203.1C315.074 202.695 314.712 202.177 314.541 201.548L316.173 201.212C316.269 201.532 316.445 201.788 316.701 201.98C316.957 202.172 317.277 202.268 317.661 202.268C318.077 202.268 318.397 202.177 318.621 201.996C318.845 201.815 318.957 201.569 318.957 201.26C318.957 200.919 318.813 200.657 318.525 200.476C318.248 200.295 317.816 200.108 317.229 199.916C316.685 199.724 316.242 199.543 315.901 199.372C315.57 199.201 315.282 198.956 315.037 198.636C314.802 198.316 314.685 197.905 314.685 197.404C314.685 196.956 314.797 196.551 315.021 196.188C315.256 195.825 315.586 195.543 316.013 195.34C316.45 195.127 316.962 195.02 317.549 195.02C318.317 195.02 318.952 195.212 319.453 195.596C319.954 195.969 320.285 196.465 320.445 197.084L318.829 197.404C318.733 197.095 318.573 196.855 318.349 196.684C318.136 196.513 317.869 196.428 317.549 196.428C317.176 196.428 316.888 196.519 316.685 196.7C316.482 196.871 316.381 197.095 316.381 197.372C316.381 197.681 316.514 197.921 316.781 198.092C317.048 198.252 317.469 198.428 318.045 198.62C318.589 198.801 319.032 198.983 319.373 199.164C319.725 199.335 320.024 199.585 320.269 199.916C320.525 200.236 320.653 200.657 320.653 201.18C320.653 201.916 320.386 202.519 319.853 202.988C319.33 203.457 318.6 203.692 317.661 203.692Z" fill="#111111"/>
</g>
</g>
<defs>
<filter id="filter0_d_324_1531" x="17.668" y="72" width="840" height="200" filterUnits="userSpaceOnUse" color-interpolation-filters="sRGB">
<feFlood flood-opacity="0" result="BackgroundImageFix"/>
<feColorMatrix in="SourceAlpha" type="matrix" values="0 0 0 0 0 0 0 0 0 0 0 0 0 0 0 0 0 0 127 0" result="hardAlpha"/>
<feOffset dy="10"/>
<feGaussianBlur stdDeviation="10"/>
<feComposite in2="hardAlpha" operator="out"/>
<feColorMatrix type="matrix" values="0 0 0 0 0 0 0 0 0 0 0 0 0 0 0 0 0 0 0.02 0"/>
<feBlend mode="normal" in2="BackgroundImageFix" result="effect1_dropShadow_324_1531"/>
<feBlend mode="normal" in="SourceGraphic" in2="effect1_dropShadow_324_1531" result="shape"/>
</filter>
<clipPath id="clip0_324_1531">
<rect width="280" height="280" fill="white"/>
</clipPath>
</defs>
</svg>
