<svg width="160" height="160" viewBox="0 0 160 160" fill="none" xmlns="http://www.w3.org/2000/svg">
<rect width="160" height="160" fill="#2973DE"/>
<g clip-path="url(#clip0_5_3348)">
<path d="M129.853 66.6422C142.311 69.4574 150 73.8087 150 80C150 86.1913 142.311 90.5426 129.853 93.3578C139.235 102.025 143.718 109.638 140.622 115C137.527 120.362 128.692 120.286 116.495 116.495C120.287 128.692 120.363 137.526 115.001 140.622C109.639 143.718 102.026 139.234 93.3581 129.852C90.5429 142.311 86.1915 150 80 150C73.8087 150 69.4574 142.311 66.6422 129.853C57.975 139.235 50.3625 143.717 45.0007 140.622C39.6388 137.526 39.7147 128.692 43.5061 116.495C31.3089 120.286 22.4746 120.362 19.3789 115C16.2832 109.638 20.7661 102.025 30.148 93.3581C17.689 90.5429 10 86.1915 10 80C10 73.8085 17.689 69.4571 30.148 66.6419C20.7661 57.9746 16.2832 50.3619 19.3789 45C22.4746 39.6381 31.3089 39.7141 43.5061 43.5054C39.7147 31.3083 39.6388 22.4739 45.0007 19.3782C50.3625 16.2826 57.975 20.7653 66.6422 30.1468C69.4574 17.6885 73.8087 10 80 10C86.1915 10 90.5429 17.689 93.3581 30.148C102.026 20.7657 109.639 16.2825 115.001 19.3782C120.363 22.4739 120.287 31.3083 116.495 43.5054C128.692 39.7141 137.527 39.6381 140.622 45C143.718 50.3619 139.235 57.9748 129.853 66.6422Z" fill="white"/>
</g>
<defs>
<clipPath id="clip0_5_3348">
<rect width="140" height="140" fill="white" transform="translate(10 10)"/>
</clipPath>
</defs>
</svg>
