<svg width="160" height="160" viewBox="0 0 160 160" fill="none" xmlns="http://www.w3.org/2000/svg">
<path d="M160 160H156.879C156.879 157.508 154.859 155.488 152.367 155.488C149.876 155.489 147.857 157.509 147.856 160H136.377C136.377 157.508 134.357 155.488 131.865 155.488C129.374 155.489 127.355 157.509 127.354 160H115.875C115.875 157.509 113.855 155.488 111.363 155.488C108.872 155.488 106.852 157.509 106.852 160H95.3721C95.372 157.509 93.3527 155.489 90.8613 155.488C88.3699 155.488 86.3497 157.509 86.3496 160H74.8701C74.87 157.508 72.8499 155.488 70.3584 155.488C67.867 155.488 65.8468 157.509 65.8467 160H54.3672C54.3671 157.509 52.3478 155.488 49.8564 155.488C47.365 155.488 45.3448 157.509 45.3447 160H33.8652C33.8651 157.509 31.8459 155.488 29.3545 155.488C26.8631 155.488 24.8429 157.509 24.8428 160H12.3154C12.3157 159.978 12.3174 159.956 12.3174 159.935C12.3174 157.443 10.2973 155.423 7.80566 155.423C5.31416 155.423 3.29395 157.443 3.29395 159.935C3.29395 159.956 3.29559 159.978 3.2959 160H0V0H160V160Z" fill="#285426"/>
<rect width="141.176" height="60" transform="translate(9 50)" fill="#285426"/>
<path d="M27.4234 80.2V78.07H41.8234V80.2H27.4234ZM45.9817 76V56.32H48.5017V64.57H56.7217V56.32H59.2417V76H56.7217V66.73H48.5017V76H45.9817ZM65.02 76V56.32H77.2V58.42H67.54V64.6H75.7V66.73H67.54V73.87H77.5V76H65.02ZM83.6082 76V56.32H86.0682V73.87H95.8182V76H83.6082ZM101.597 76V56.32H104.057V73.87H113.807V76H101.597ZM124.565 76.36C123.085 76.36 121.775 75.95 120.635 75.13C119.495 74.31 118.605 73.14 117.965 71.62C117.325 70.08 117.005 68.23 117.005 66.07C117.005 63.95 117.325 62.14 117.965 60.64C118.605 59.12 119.495 57.96 120.635 57.16C121.775 56.36 123.085 55.96 124.565 55.96C126.045 55.96 127.355 56.36 128.495 57.16C129.635 57.96 130.525 59.12 131.165 60.64C131.805 62.14 132.125 63.95 132.125 66.07C132.125 68.23 131.805 70.08 131.165 71.62C130.525 73.14 129.635 74.31 128.495 75.13C127.355 75.95 126.045 76.36 124.565 76.36ZM124.565 74.17C125.565 74.17 126.435 73.85 127.175 73.21C127.935 72.55 128.515 71.62 128.915 70.42C129.335 69.2 129.545 67.75 129.545 66.07C129.545 64.41 129.335 62.99 128.915 61.81C128.515 60.63 127.935 59.73 127.175 59.11C126.435 58.47 125.565 58.15 124.565 58.15C123.565 58.15 122.685 58.47 121.925 59.11C121.185 59.73 120.605 60.63 120.185 61.81C119.785 62.99 119.585 64.41 119.585 66.07C119.585 67.75 119.785 69.2 120.185 70.42C120.605 71.62 121.185 72.55 121.925 73.21C122.685 73.85 123.565 74.17 124.565 74.17ZM28.9234 106L25.9234 86.29H28.7434L30.1834 98.65C30.2434 99.19 30.2934 99.69 30.3334 100.15C30.3934 100.59 30.4434 101.05 30.4834 101.53C30.5234 101.99 30.5534 102.55 30.5734 103.21H30.6634C30.7834 102.55 30.8934 101.99 30.9934 101.53C31.0934 101.05 31.1934 100.59 31.2934 100.15C31.3934 99.71 31.5034 99.22 31.6234 98.68L33.5434 91.36H35.9434L37.8034 98.68C37.9434 99.22 38.0634 99.71 38.1634 100.15C38.2634 100.59 38.3534 101.05 38.4334 101.53C38.5334 101.99 38.6434 102.55 38.7634 103.21H38.8834C38.9234 102.55 38.9534 101.99 38.9734 101.53C39.0134 101.05 39.0534 100.59 39.0934 100.15C39.1334 99.71 39.1834 99.22 39.2434 98.68L40.6234 86.29H43.3234L40.4434 106H37.3234L35.4034 98.08C35.2634 97.48 35.1334 96.89 35.0134 96.31C34.8934 95.73 34.7834 95.14 34.6834 94.54H34.5934C34.4934 95.14 34.3934 95.73 34.2934 96.31C34.1934 96.89 34.0634 97.48 33.9034 98.08L31.9834 106H28.9234ZM52.6117 106.36C51.1317 106.36 49.8217 105.95 48.6817 105.13C47.5417 104.31 46.6517 103.14 46.0117 101.62C45.3717 100.08 45.0517 98.23 45.0517 96.07C45.0517 93.95 45.3717 92.14 46.0117 90.64C46.6517 89.12 47.5417 87.96 48.6817 87.16C49.8217 86.36 51.1317 85.96 52.6117 85.96C54.0917 85.96 55.4017 86.36 56.5417 87.16C57.6817 87.96 58.5717 89.12 59.2117 90.64C59.8517 92.14 60.1717 93.95 60.1717 96.07C60.1717 98.23 59.8517 100.08 59.2117 101.62C58.5717 103.14 57.6817 104.31 56.5417 105.13C55.4017 105.95 54.0917 106.36 52.6117 106.36ZM52.6117 104.17C53.6117 104.17 54.4817 103.85 55.2217 103.21C55.9817 102.55 56.5617 101.62 56.9617 100.42C57.3817 99.2 57.5917 97.75 57.5917 96.07C57.5917 94.41 57.3817 92.99 56.9617 91.81C56.5617 90.63 55.9817 89.73 55.2217 89.11C54.4817 88.47 53.6117 88.15 52.6117 88.15C51.6117 88.15 50.7317 88.47 49.9717 89.11C49.2317 89.73 48.6517 90.63 48.2317 91.81C47.8317 92.99 47.6317 94.41 47.6317 96.07C47.6317 97.75 47.8317 99.2 48.2317 100.42C48.6517 101.62 49.2317 102.55 49.9717 103.21C50.7317 103.85 51.6117 104.17 52.6117 104.17ZM64.6 106V86.32H70.72C72.06 86.32 73.24 86.5 74.26 86.86C75.3 87.2 76.11 87.78 76.69 88.6C77.29 89.4 77.59 90.48 77.59 91.84C77.59 93.16 77.29 94.25 76.69 95.11C76.11 95.97 75.3 96.62 74.26 97.06C73.24 97.48 72.06 97.69 70.72 97.69H67.09V106H64.6ZM67.09 95.65H70.36C71.9 95.65 73.07 95.34 73.87 94.72C74.69 94.08 75.1 93.12 75.1 91.84C75.1 90.56 74.69 89.66 73.87 89.14C73.07 88.6 71.9 88.33 70.36 88.33H67.09V95.65ZM70.21 97L72.19 95.68L78.19 106H75.34L70.21 97ZM83.6082 106V86.32H86.0682V103.87H95.8182V106H83.6082ZM100.187 106V86.32H105.047C107.027 86.32 108.687 86.7 110.027 87.46C111.387 88.2 112.417 89.3 113.117 90.76C113.817 92.22 114.167 93.99 114.167 96.07C114.167 98.17 113.817 99.96 113.117 101.44C112.437 102.92 111.427 104.05 110.087 104.83C108.747 105.61 107.107 106 105.167 106H100.187ZM102.677 103.96H104.867C106.367 103.96 107.607 103.65 108.587 103.03C109.587 102.39 110.337 101.49 110.837 100.33C111.337 99.15 111.587 97.73 111.587 96.07C111.587 94.43 111.337 93.03 110.837 91.87C110.337 90.71 109.587 89.84 108.587 89.26C107.607 88.66 106.367 88.36 104.867 88.36H102.677V103.96ZM117.365 110.2V108.07H131.765V110.2H117.365Z" fill="white"/>
</svg>
