<svg width="160" height="160" viewBox="0 0 160 160" fill="none" xmlns="http://www.w3.org/2000/svg">
<rect width="160" height="160" fill="#F9C842"/>
<g clip-path="url(#clip0_5_3347)">
<path d="M150 27.5C150 37.165 142.165 45 132.5 45C122.835 45 115 37.165 115 27.5C115 17.835 122.835 10 132.5 10C142.165 10 150 17.835 150 27.5Z" fill="white"/>
<path d="M150 132.5C150 142.165 142.165 150 132.5 150C122.835 150 115 142.165 115 132.5C115 122.835 122.835 115 132.5 115C142.165 115 150 122.835 150 132.5Z" fill="white"/>
<path d="M132.5 97.5C142.165 97.5 150 89.665 150 80C150 70.335 142.165 62.5 132.5 62.5C122.835 62.5 115 70.335 115 80C115 89.665 122.835 97.5 132.5 97.5Z" fill="white"/>
<path d="M97.5 132.5C97.5 142.165 89.665 150 80 150C70.335 150 62.5 142.165 62.5 132.5C62.5 122.835 70.335 115 80 115C89.665 115 97.5 122.835 97.5 132.5Z" fill="white"/>
<path d="M80 45C89.665 45 97.5 37.165 97.5 27.5C97.5 17.835 89.665 10 80 10C70.335 10 62.5 17.835 62.5 27.5C62.5 37.165 70.335 45 80 45Z" fill="white"/>
<path d="M45 132.5C45 142.165 37.165 150 27.5 150C17.835 150 10 142.165 10 132.5C10 122.835 17.835 115 27.5 115C37.165 115 45 122.835 45 132.5Z" fill="white"/>
<path d="M80 97.5C89.665 97.5 97.5 89.665 97.5 80C97.5 70.335 89.665 62.5 80 62.5C70.335 62.5 62.5 70.335 62.5 80C62.5 89.665 70.335 97.5 80 97.5Z" fill="white"/>
<path d="M45 27.5C45 37.165 37.165 45 27.5 45C17.835 45 10 37.165 10 27.5C10 17.835 17.835 10 27.5 10C37.165 10 45 17.835 45 27.5Z" fill="white"/>
<path d="M27.5 97.5C37.165 97.5 45 89.665 45 80C45 70.335 37.165 62.5 27.5 62.5C17.835 62.5 10 70.335 10 80C10 89.665 17.835 97.5 27.5 97.5Z" fill="white"/>
</g>
<defs>
<clipPath id="clip0_5_3347">
<rect width="140" height="140" fill="white" transform="translate(10 10)"/>
</clipPath>
</defs>
</svg>
